M48
METRIC,TZ
T1C0.300
T2C0.600
T3C1.000
T4C1.100
T5C1.200
T6C1.250
T7C1.300
%
G90
G05
T1
X32.901Y-45.095
X36.131Y-58.966
X37.401Y-58.979
X37.427Y-61.468
X38.463Y-54.209
X39.203Y-65.151
X39.825Y-48.075
X42.083Y-65.204
X47.196Y-69.615
X49.238Y-60.546
X51.107Y-67.755
X52.009Y-70.582
X56.266Y-53.437
X58.707Y-68.715
T2
X65.641Y-66.782
X65.641Y-68.782
T3
X31.255Y-33.198
X31.255Y-35.738
X31.255Y-38.278
X31.255Y-40.818
X31.255Y-43.358
X71.438Y-56.769
X71.438Y-59.309
X71.438Y-61.849
X71.438Y-64.389
X71.438Y-66.929
X34.039Y-30.467
X36.579Y-30.467
T4
X51.707Y-28.197
X55.105Y-30.124
X58.837Y-28.179
X51.758Y-38.847
X55.123Y-40.879
X58.864Y-38.834
T5
X65.738Y-57.239
X65.738Y-62.319
T6
X31.261Y-52.17
X31.261Y-67.57
X60.661Y-57.37
X60.661Y-62.37
T7
X65.855Y-32.662
X65.855Y-37.662
X65.855Y-42.662
X65.855Y-47.662
X65.855Y-52.662
T0
M30
