G04 #@! TF.GenerationSoftware,KiCad,Pcbnew,5.0.1*
G04 #@! TF.CreationDate,2019-01-05T16:55:50+01:00*
G04 #@! TF.ProjectId,sensor_board-ac-7 -without-regulator-2,73656E736F725F626F6172642D61632D,V1.2*
G04 #@! TF.SameCoordinates,Original*
G04 #@! TF.FileFunction,Copper,L2,Bot,Signal*
G04 #@! TF.FilePolarity,Positive*
%FSLAX46Y46*%
G04 Gerber Fmt 4.6, Leading zero omitted, Abs format (unit mm)*
G04 Created by KiCad (PCBNEW 5.0.1) date Sat 05 Jan 2019 04:55:50 PM CET*
%MOMM*%
%LPD*%
G01*
G04 APERTURE LIST*
G04 #@! TA.AperFunction,SMDPad,CuDef*
%ADD10R,2.000000X1.780000*%
G04 #@! TD*
G04 #@! TA.AperFunction,Conductor*
%ADD11C,0.100000*%
G04 #@! TD*
G04 #@! TA.AperFunction,SMDPad,CuDef*
%ADD12C,1.425000*%
G04 #@! TD*
G04 #@! TA.AperFunction,SMDPad,CuDef*
%ADD13R,0.900000X0.800000*%
G04 #@! TD*
G04 #@! TA.AperFunction,SMDPad,CuDef*
%ADD14C,1.150000*%
G04 #@! TD*
G04 #@! TA.AperFunction,SMDPad,CuDef*
%ADD15R,1.000000X2.510000*%
G04 #@! TD*
G04 #@! TA.AperFunction,ComponentPad*
%ADD16O,2.400000X2.400000*%
G04 #@! TD*
G04 #@! TA.AperFunction,ComponentPad*
%ADD17C,2.400000*%
G04 #@! TD*
G04 #@! TA.AperFunction,ComponentPad*
%ADD18C,2.500000*%
G04 #@! TD*
G04 #@! TA.AperFunction,ComponentPad*
%ADD19R,2.500000X2.500000*%
G04 #@! TD*
G04 #@! TA.AperFunction,SMDPad,CuDef*
%ADD20R,0.900000X1.200000*%
G04 #@! TD*
G04 #@! TA.AperFunction,ComponentPad*
%ADD21O,1.700000X1.700000*%
G04 #@! TD*
G04 #@! TA.AperFunction,ComponentPad*
%ADD22R,1.700000X1.700000*%
G04 #@! TD*
G04 #@! TA.AperFunction,ComponentPad*
%ADD23C,1.200000*%
G04 #@! TD*
G04 #@! TA.AperFunction,ComponentPad*
%ADD24R,1.200000X1.200000*%
G04 #@! TD*
G04 #@! TA.AperFunction,ComponentPad*
%ADD25C,2.200000*%
G04 #@! TD*
G04 #@! TA.AperFunction,ComponentPad*
%ADD26R,1.905000X2.000000*%
G04 #@! TD*
G04 #@! TA.AperFunction,ComponentPad*
%ADD27O,1.905000X2.000000*%
G04 #@! TD*
G04 #@! TA.AperFunction,SMDPad,CuDef*
%ADD28R,0.800000X1.000000*%
G04 #@! TD*
G04 #@! TA.AperFunction,SMDPad,CuDef*
%ADD29R,0.600000X1.500000*%
G04 #@! TD*
G04 #@! TA.AperFunction,ViaPad*
%ADD30C,0.600000*%
G04 #@! TD*
G04 #@! TA.AperFunction,Conductor*
%ADD31C,0.400000*%
G04 #@! TD*
G04 #@! TA.AperFunction,Conductor*
%ADD32C,0.254000*%
G04 #@! TD*
G04 APERTURE END LIST*
D10*
G04 #@! TO.P,U3,6*
G04 #@! TO.N,Net-(R17-Pad2)*
X47396400Y-44005500D03*
G04 #@! TO.P,U3,3*
G04 #@! TO.N,N/C*
X39776400Y-38925500D03*
G04 #@! TO.P,U3,5*
X47396400Y-41465500D03*
G04 #@! TO.P,U3,2*
G04 #@! TO.N,GND*
X39776400Y-41465500D03*
G04 #@! TO.P,U3,4*
G04 #@! TO.N,Net-(Q2-Pad3)*
X47396400Y-38925500D03*
G04 #@! TO.P,U3,1*
G04 #@! TO.N,Net-(R4-Pad2)*
X39776400Y-44005500D03*
G04 #@! TD*
D11*
G04 #@! TO.N,NEUT*
G04 #@! TO.C,R6*
G36*
X53334184Y-54420344D02*
X53358453Y-54423944D01*
X53382251Y-54429905D01*
X53405351Y-54438170D01*
X53427529Y-54448660D01*
X53448573Y-54461273D01*
X53468278Y-54475887D01*
X53486457Y-54492363D01*
X53502933Y-54510542D01*
X53517547Y-54530247D01*
X53530160Y-54551291D01*
X53540650Y-54573469D01*
X53548915Y-54596569D01*
X53554876Y-54620367D01*
X53558476Y-54644636D01*
X53559680Y-54669140D01*
X53559680Y-55594140D01*
X53558476Y-55618644D01*
X53554876Y-55642913D01*
X53548915Y-55666711D01*
X53540650Y-55689811D01*
X53530160Y-55711989D01*
X53517547Y-55733033D01*
X53502933Y-55752738D01*
X53486457Y-55770917D01*
X53468278Y-55787393D01*
X53448573Y-55802007D01*
X53427529Y-55814620D01*
X53405351Y-55825110D01*
X53382251Y-55833375D01*
X53358453Y-55839336D01*
X53334184Y-55842936D01*
X53309680Y-55844140D01*
X52059680Y-55844140D01*
X52035176Y-55842936D01*
X52010907Y-55839336D01*
X51987109Y-55833375D01*
X51964009Y-55825110D01*
X51941831Y-55814620D01*
X51920787Y-55802007D01*
X51901082Y-55787393D01*
X51882903Y-55770917D01*
X51866427Y-55752738D01*
X51851813Y-55733033D01*
X51839200Y-55711989D01*
X51828710Y-55689811D01*
X51820445Y-55666711D01*
X51814484Y-55642913D01*
X51810884Y-55618644D01*
X51809680Y-55594140D01*
X51809680Y-54669140D01*
X51810884Y-54644636D01*
X51814484Y-54620367D01*
X51820445Y-54596569D01*
X51828710Y-54573469D01*
X51839200Y-54551291D01*
X51851813Y-54530247D01*
X51866427Y-54510542D01*
X51882903Y-54492363D01*
X51901082Y-54475887D01*
X51920787Y-54461273D01*
X51941831Y-54448660D01*
X51964009Y-54438170D01*
X51987109Y-54429905D01*
X52010907Y-54423944D01*
X52035176Y-54420344D01*
X52059680Y-54419140D01*
X53309680Y-54419140D01*
X53334184Y-54420344D01*
X53334184Y-54420344D01*
G37*
D12*
G04 #@! TD*
G04 #@! TO.P,R6,2*
G04 #@! TO.N,NEUT*
X52684680Y-55131640D03*
D11*
G04 #@! TO.N,Net-(C1-Pad1)*
G04 #@! TO.C,R6*
G36*
X53334184Y-57395344D02*
X53358453Y-57398944D01*
X53382251Y-57404905D01*
X53405351Y-57413170D01*
X53427529Y-57423660D01*
X53448573Y-57436273D01*
X53468278Y-57450887D01*
X53486457Y-57467363D01*
X53502933Y-57485542D01*
X53517547Y-57505247D01*
X53530160Y-57526291D01*
X53540650Y-57548469D01*
X53548915Y-57571569D01*
X53554876Y-57595367D01*
X53558476Y-57619636D01*
X53559680Y-57644140D01*
X53559680Y-58569140D01*
X53558476Y-58593644D01*
X53554876Y-58617913D01*
X53548915Y-58641711D01*
X53540650Y-58664811D01*
X53530160Y-58686989D01*
X53517547Y-58708033D01*
X53502933Y-58727738D01*
X53486457Y-58745917D01*
X53468278Y-58762393D01*
X53448573Y-58777007D01*
X53427529Y-58789620D01*
X53405351Y-58800110D01*
X53382251Y-58808375D01*
X53358453Y-58814336D01*
X53334184Y-58817936D01*
X53309680Y-58819140D01*
X52059680Y-58819140D01*
X52035176Y-58817936D01*
X52010907Y-58814336D01*
X51987109Y-58808375D01*
X51964009Y-58800110D01*
X51941831Y-58789620D01*
X51920787Y-58777007D01*
X51901082Y-58762393D01*
X51882903Y-58745917D01*
X51866427Y-58727738D01*
X51851813Y-58708033D01*
X51839200Y-58686989D01*
X51828710Y-58664811D01*
X51820445Y-58641711D01*
X51814484Y-58617913D01*
X51810884Y-58593644D01*
X51809680Y-58569140D01*
X51809680Y-57644140D01*
X51810884Y-57619636D01*
X51814484Y-57595367D01*
X51820445Y-57571569D01*
X51828710Y-57548469D01*
X51839200Y-57526291D01*
X51851813Y-57505247D01*
X51866427Y-57485542D01*
X51882903Y-57467363D01*
X51901082Y-57450887D01*
X51920787Y-57436273D01*
X51941831Y-57423660D01*
X51964009Y-57413170D01*
X51987109Y-57404905D01*
X52010907Y-57398944D01*
X52035176Y-57395344D01*
X52059680Y-57394140D01*
X53309680Y-57394140D01*
X53334184Y-57395344D01*
X53334184Y-57395344D01*
G37*
D12*
G04 #@! TD*
G04 #@! TO.P,R6,1*
G04 #@! TO.N,Net-(C1-Pad1)*
X52684680Y-58106640D03*
D13*
G04 #@! TO.P,Q5,1*
G04 #@! TO.N,Net-(C2-Pad2)*
X50585880Y-68682220D03*
G04 #@! TO.P,Q5,2*
G04 #@! TO.N,Net-(D1-Pad2)*
X50585880Y-70582220D03*
G04 #@! TO.P,Q5,3*
G04 #@! TO.N,Net-(Q5-Pad3)*
X48585880Y-69632220D03*
G04 #@! TD*
D11*
G04 #@! TO.N,Net-(R17-Pad1)*
G04 #@! TO.C,R17*
G36*
X53346004Y-43614304D02*
X53370273Y-43617904D01*
X53394071Y-43623865D01*
X53417171Y-43632130D01*
X53439349Y-43642620D01*
X53460393Y-43655233D01*
X53480098Y-43669847D01*
X53498277Y-43686323D01*
X53514753Y-43704502D01*
X53529367Y-43724207D01*
X53541980Y-43745251D01*
X53552470Y-43767429D01*
X53560735Y-43790529D01*
X53566696Y-43814327D01*
X53570296Y-43838596D01*
X53571500Y-43863100D01*
X53571500Y-45113100D01*
X53570296Y-45137604D01*
X53566696Y-45161873D01*
X53560735Y-45185671D01*
X53552470Y-45208771D01*
X53541980Y-45230949D01*
X53529367Y-45251993D01*
X53514753Y-45271698D01*
X53498277Y-45289877D01*
X53480098Y-45306353D01*
X53460393Y-45320967D01*
X53439349Y-45333580D01*
X53417171Y-45344070D01*
X53394071Y-45352335D01*
X53370273Y-45358296D01*
X53346004Y-45361896D01*
X53321500Y-45363100D01*
X52396500Y-45363100D01*
X52371996Y-45361896D01*
X52347727Y-45358296D01*
X52323929Y-45352335D01*
X52300829Y-45344070D01*
X52278651Y-45333580D01*
X52257607Y-45320967D01*
X52237902Y-45306353D01*
X52219723Y-45289877D01*
X52203247Y-45271698D01*
X52188633Y-45251993D01*
X52176020Y-45230949D01*
X52165530Y-45208771D01*
X52157265Y-45185671D01*
X52151304Y-45161873D01*
X52147704Y-45137604D01*
X52146500Y-45113100D01*
X52146500Y-43863100D01*
X52147704Y-43838596D01*
X52151304Y-43814327D01*
X52157265Y-43790529D01*
X52165530Y-43767429D01*
X52176020Y-43745251D01*
X52188633Y-43724207D01*
X52203247Y-43704502D01*
X52219723Y-43686323D01*
X52237902Y-43669847D01*
X52257607Y-43655233D01*
X52278651Y-43642620D01*
X52300829Y-43632130D01*
X52323929Y-43623865D01*
X52347727Y-43617904D01*
X52371996Y-43614304D01*
X52396500Y-43613100D01*
X53321500Y-43613100D01*
X53346004Y-43614304D01*
X53346004Y-43614304D01*
G37*
D12*
G04 #@! TD*
G04 #@! TO.P,R17,1*
G04 #@! TO.N,Net-(R17-Pad1)*
X52859000Y-44488100D03*
D11*
G04 #@! TO.N,Net-(R17-Pad2)*
G04 #@! TO.C,R17*
G36*
X50371004Y-43614304D02*
X50395273Y-43617904D01*
X50419071Y-43623865D01*
X50442171Y-43632130D01*
X50464349Y-43642620D01*
X50485393Y-43655233D01*
X50505098Y-43669847D01*
X50523277Y-43686323D01*
X50539753Y-43704502D01*
X50554367Y-43724207D01*
X50566980Y-43745251D01*
X50577470Y-43767429D01*
X50585735Y-43790529D01*
X50591696Y-43814327D01*
X50595296Y-43838596D01*
X50596500Y-43863100D01*
X50596500Y-45113100D01*
X50595296Y-45137604D01*
X50591696Y-45161873D01*
X50585735Y-45185671D01*
X50577470Y-45208771D01*
X50566980Y-45230949D01*
X50554367Y-45251993D01*
X50539753Y-45271698D01*
X50523277Y-45289877D01*
X50505098Y-45306353D01*
X50485393Y-45320967D01*
X50464349Y-45333580D01*
X50442171Y-45344070D01*
X50419071Y-45352335D01*
X50395273Y-45358296D01*
X50371004Y-45361896D01*
X50346500Y-45363100D01*
X49421500Y-45363100D01*
X49396996Y-45361896D01*
X49372727Y-45358296D01*
X49348929Y-45352335D01*
X49325829Y-45344070D01*
X49303651Y-45333580D01*
X49282607Y-45320967D01*
X49262902Y-45306353D01*
X49244723Y-45289877D01*
X49228247Y-45271698D01*
X49213633Y-45251993D01*
X49201020Y-45230949D01*
X49190530Y-45208771D01*
X49182265Y-45185671D01*
X49176304Y-45161873D01*
X49172704Y-45137604D01*
X49171500Y-45113100D01*
X49171500Y-43863100D01*
X49172704Y-43838596D01*
X49176304Y-43814327D01*
X49182265Y-43790529D01*
X49190530Y-43767429D01*
X49201020Y-43745251D01*
X49213633Y-43724207D01*
X49228247Y-43704502D01*
X49244723Y-43686323D01*
X49262902Y-43669847D01*
X49282607Y-43655233D01*
X49303651Y-43642620D01*
X49325829Y-43632130D01*
X49348929Y-43623865D01*
X49372727Y-43617904D01*
X49396996Y-43614304D01*
X49421500Y-43613100D01*
X50346500Y-43613100D01*
X50371004Y-43614304D01*
X50371004Y-43614304D01*
G37*
D12*
G04 #@! TD*
G04 #@! TO.P,R17,2*
G04 #@! TO.N,Net-(R17-Pad2)*
X49884000Y-44488100D03*
D11*
G04 #@! TO.N,Net-(R3-Pad1)*
G04 #@! TO.C,R3*
G36*
X37594065Y-35119664D02*
X37618333Y-35123264D01*
X37642132Y-35129225D01*
X37665231Y-35137490D01*
X37687410Y-35147980D01*
X37708453Y-35160592D01*
X37728159Y-35175207D01*
X37746337Y-35191683D01*
X37762813Y-35209861D01*
X37777428Y-35229567D01*
X37790040Y-35250610D01*
X37800530Y-35272789D01*
X37808795Y-35295888D01*
X37814756Y-35319687D01*
X37818356Y-35343955D01*
X37819560Y-35368459D01*
X37819560Y-36018461D01*
X37818356Y-36042965D01*
X37814756Y-36067233D01*
X37808795Y-36091032D01*
X37800530Y-36114131D01*
X37790040Y-36136310D01*
X37777428Y-36157353D01*
X37762813Y-36177059D01*
X37746337Y-36195237D01*
X37728159Y-36211713D01*
X37708453Y-36226328D01*
X37687410Y-36238940D01*
X37665231Y-36249430D01*
X37642132Y-36257695D01*
X37618333Y-36263656D01*
X37594065Y-36267256D01*
X37569561Y-36268460D01*
X36669559Y-36268460D01*
X36645055Y-36267256D01*
X36620787Y-36263656D01*
X36596988Y-36257695D01*
X36573889Y-36249430D01*
X36551710Y-36238940D01*
X36530667Y-36226328D01*
X36510961Y-36211713D01*
X36492783Y-36195237D01*
X36476307Y-36177059D01*
X36461692Y-36157353D01*
X36449080Y-36136310D01*
X36438590Y-36114131D01*
X36430325Y-36091032D01*
X36424364Y-36067233D01*
X36420764Y-36042965D01*
X36419560Y-36018461D01*
X36419560Y-35368459D01*
X36420764Y-35343955D01*
X36424364Y-35319687D01*
X36430325Y-35295888D01*
X36438590Y-35272789D01*
X36449080Y-35250610D01*
X36461692Y-35229567D01*
X36476307Y-35209861D01*
X36492783Y-35191683D01*
X36510961Y-35175207D01*
X36530667Y-35160592D01*
X36551710Y-35147980D01*
X36573889Y-35137490D01*
X36596988Y-35129225D01*
X36620787Y-35123264D01*
X36645055Y-35119664D01*
X36669559Y-35118460D01*
X37569561Y-35118460D01*
X37594065Y-35119664D01*
X37594065Y-35119664D01*
G37*
D14*
G04 #@! TD*
G04 #@! TO.P,R3,1*
G04 #@! TO.N,Net-(R3-Pad1)*
X37119560Y-35693460D03*
D11*
G04 #@! TO.N,Net-(R3-Pad2)*
G04 #@! TO.C,R3*
G36*
X37594065Y-33069664D02*
X37618333Y-33073264D01*
X37642132Y-33079225D01*
X37665231Y-33087490D01*
X37687410Y-33097980D01*
X37708453Y-33110592D01*
X37728159Y-33125207D01*
X37746337Y-33141683D01*
X37762813Y-33159861D01*
X37777428Y-33179567D01*
X37790040Y-33200610D01*
X37800530Y-33222789D01*
X37808795Y-33245888D01*
X37814756Y-33269687D01*
X37818356Y-33293955D01*
X37819560Y-33318459D01*
X37819560Y-33968461D01*
X37818356Y-33992965D01*
X37814756Y-34017233D01*
X37808795Y-34041032D01*
X37800530Y-34064131D01*
X37790040Y-34086310D01*
X37777428Y-34107353D01*
X37762813Y-34127059D01*
X37746337Y-34145237D01*
X37728159Y-34161713D01*
X37708453Y-34176328D01*
X37687410Y-34188940D01*
X37665231Y-34199430D01*
X37642132Y-34207695D01*
X37618333Y-34213656D01*
X37594065Y-34217256D01*
X37569561Y-34218460D01*
X36669559Y-34218460D01*
X36645055Y-34217256D01*
X36620787Y-34213656D01*
X36596988Y-34207695D01*
X36573889Y-34199430D01*
X36551710Y-34188940D01*
X36530667Y-34176328D01*
X36510961Y-34161713D01*
X36492783Y-34145237D01*
X36476307Y-34127059D01*
X36461692Y-34107353D01*
X36449080Y-34086310D01*
X36438590Y-34064131D01*
X36430325Y-34041032D01*
X36424364Y-34017233D01*
X36420764Y-33992965D01*
X36419560Y-33968461D01*
X36419560Y-33318459D01*
X36420764Y-33293955D01*
X36424364Y-33269687D01*
X36430325Y-33245888D01*
X36438590Y-33222789D01*
X36449080Y-33200610D01*
X36461692Y-33179567D01*
X36476307Y-33159861D01*
X36492783Y-33141683D01*
X36510961Y-33125207D01*
X36530667Y-33110592D01*
X36551710Y-33097980D01*
X36573889Y-33087490D01*
X36596988Y-33079225D01*
X36620787Y-33073264D01*
X36645055Y-33069664D01*
X36669559Y-33068460D01*
X37569561Y-33068460D01*
X37594065Y-33069664D01*
X37594065Y-33069664D01*
G37*
D14*
G04 #@! TD*
G04 #@! TO.P,R3,2*
G04 #@! TO.N,Net-(R3-Pad2)*
X37119560Y-33643460D03*
D11*
G04 #@! TO.N,Net-(C8-Pad2)*
G04 #@! TO.C,C8*
G36*
X50332904Y-47487804D02*
X50357173Y-47491404D01*
X50380971Y-47497365D01*
X50404071Y-47505630D01*
X50426249Y-47516120D01*
X50447293Y-47528733D01*
X50466998Y-47543347D01*
X50485177Y-47559823D01*
X50501653Y-47578002D01*
X50516267Y-47597707D01*
X50528880Y-47618751D01*
X50539370Y-47640929D01*
X50547635Y-47664029D01*
X50553596Y-47687827D01*
X50557196Y-47712096D01*
X50558400Y-47736600D01*
X50558400Y-48986600D01*
X50557196Y-49011104D01*
X50553596Y-49035373D01*
X50547635Y-49059171D01*
X50539370Y-49082271D01*
X50528880Y-49104449D01*
X50516267Y-49125493D01*
X50501653Y-49145198D01*
X50485177Y-49163377D01*
X50466998Y-49179853D01*
X50447293Y-49194467D01*
X50426249Y-49207080D01*
X50404071Y-49217570D01*
X50380971Y-49225835D01*
X50357173Y-49231796D01*
X50332904Y-49235396D01*
X50308400Y-49236600D01*
X49383400Y-49236600D01*
X49358896Y-49235396D01*
X49334627Y-49231796D01*
X49310829Y-49225835D01*
X49287729Y-49217570D01*
X49265551Y-49207080D01*
X49244507Y-49194467D01*
X49224802Y-49179853D01*
X49206623Y-49163377D01*
X49190147Y-49145198D01*
X49175533Y-49125493D01*
X49162920Y-49104449D01*
X49152430Y-49082271D01*
X49144165Y-49059171D01*
X49138204Y-49035373D01*
X49134604Y-49011104D01*
X49133400Y-48986600D01*
X49133400Y-47736600D01*
X49134604Y-47712096D01*
X49138204Y-47687827D01*
X49144165Y-47664029D01*
X49152430Y-47640929D01*
X49162920Y-47618751D01*
X49175533Y-47597707D01*
X49190147Y-47578002D01*
X49206623Y-47559823D01*
X49224802Y-47543347D01*
X49244507Y-47528733D01*
X49265551Y-47516120D01*
X49287729Y-47505630D01*
X49310829Y-47497365D01*
X49334627Y-47491404D01*
X49358896Y-47487804D01*
X49383400Y-47486600D01*
X50308400Y-47486600D01*
X50332904Y-47487804D01*
X50332904Y-47487804D01*
G37*
D12*
G04 #@! TD*
G04 #@! TO.P,C8,2*
G04 #@! TO.N,Net-(C8-Pad2)*
X49845900Y-48361600D03*
D11*
G04 #@! TO.N,SW_1_LINE*
G04 #@! TO.C,C8*
G36*
X53307904Y-47487804D02*
X53332173Y-47491404D01*
X53355971Y-47497365D01*
X53379071Y-47505630D01*
X53401249Y-47516120D01*
X53422293Y-47528733D01*
X53441998Y-47543347D01*
X53460177Y-47559823D01*
X53476653Y-47578002D01*
X53491267Y-47597707D01*
X53503880Y-47618751D01*
X53514370Y-47640929D01*
X53522635Y-47664029D01*
X53528596Y-47687827D01*
X53532196Y-47712096D01*
X53533400Y-47736600D01*
X53533400Y-48986600D01*
X53532196Y-49011104D01*
X53528596Y-49035373D01*
X53522635Y-49059171D01*
X53514370Y-49082271D01*
X53503880Y-49104449D01*
X53491267Y-49125493D01*
X53476653Y-49145198D01*
X53460177Y-49163377D01*
X53441998Y-49179853D01*
X53422293Y-49194467D01*
X53401249Y-49207080D01*
X53379071Y-49217570D01*
X53355971Y-49225835D01*
X53332173Y-49231796D01*
X53307904Y-49235396D01*
X53283400Y-49236600D01*
X52358400Y-49236600D01*
X52333896Y-49235396D01*
X52309627Y-49231796D01*
X52285829Y-49225835D01*
X52262729Y-49217570D01*
X52240551Y-49207080D01*
X52219507Y-49194467D01*
X52199802Y-49179853D01*
X52181623Y-49163377D01*
X52165147Y-49145198D01*
X52150533Y-49125493D01*
X52137920Y-49104449D01*
X52127430Y-49082271D01*
X52119165Y-49059171D01*
X52113204Y-49035373D01*
X52109604Y-49011104D01*
X52108400Y-48986600D01*
X52108400Y-47736600D01*
X52109604Y-47712096D01*
X52113204Y-47687827D01*
X52119165Y-47664029D01*
X52127430Y-47640929D01*
X52137920Y-47618751D01*
X52150533Y-47597707D01*
X52165147Y-47578002D01*
X52181623Y-47559823D01*
X52199802Y-47543347D01*
X52219507Y-47528733D01*
X52240551Y-47516120D01*
X52262729Y-47505630D01*
X52285829Y-47497365D01*
X52309627Y-47491404D01*
X52333896Y-47487804D01*
X52358400Y-47486600D01*
X53283400Y-47486600D01*
X53307904Y-47487804D01*
X53307904Y-47487804D01*
G37*
D12*
G04 #@! TD*
G04 #@! TO.P,C8,1*
G04 #@! TO.N,SW_1_LINE*
X52820900Y-48361600D03*
D15*
G04 #@! TO.P,J5,4*
G04 #@! TO.N,Net-(J5-Pad4)*
X42181780Y-70128980D03*
G04 #@! TO.P,J5,2*
G04 #@! TO.N,Net-(J5-Pad2)*
X37101780Y-70128980D03*
G04 #@! TO.P,J5,3*
G04 #@! TO.N,Net-(J5-Pad3)*
X39641780Y-70128980D03*
G04 #@! TO.P,J5,1*
G04 #@! TO.N,Net-(J5-Pad1)*
X34561780Y-70128980D03*
G04 #@! TD*
D11*
G04 #@! TO.N,LINE*
G04 #@! TO.C,R2*
G36*
X58616504Y-43614304D02*
X58640773Y-43617904D01*
X58664571Y-43623865D01*
X58687671Y-43632130D01*
X58709849Y-43642620D01*
X58730893Y-43655233D01*
X58750598Y-43669847D01*
X58768777Y-43686323D01*
X58785253Y-43704502D01*
X58799867Y-43724207D01*
X58812480Y-43745251D01*
X58822970Y-43767429D01*
X58831235Y-43790529D01*
X58837196Y-43814327D01*
X58840796Y-43838596D01*
X58842000Y-43863100D01*
X58842000Y-45113100D01*
X58840796Y-45137604D01*
X58837196Y-45161873D01*
X58831235Y-45185671D01*
X58822970Y-45208771D01*
X58812480Y-45230949D01*
X58799867Y-45251993D01*
X58785253Y-45271698D01*
X58768777Y-45289877D01*
X58750598Y-45306353D01*
X58730893Y-45320967D01*
X58709849Y-45333580D01*
X58687671Y-45344070D01*
X58664571Y-45352335D01*
X58640773Y-45358296D01*
X58616504Y-45361896D01*
X58592000Y-45363100D01*
X57667000Y-45363100D01*
X57642496Y-45361896D01*
X57618227Y-45358296D01*
X57594429Y-45352335D01*
X57571329Y-45344070D01*
X57549151Y-45333580D01*
X57528107Y-45320967D01*
X57508402Y-45306353D01*
X57490223Y-45289877D01*
X57473747Y-45271698D01*
X57459133Y-45251993D01*
X57446520Y-45230949D01*
X57436030Y-45208771D01*
X57427765Y-45185671D01*
X57421804Y-45161873D01*
X57418204Y-45137604D01*
X57417000Y-45113100D01*
X57417000Y-43863100D01*
X57418204Y-43838596D01*
X57421804Y-43814327D01*
X57427765Y-43790529D01*
X57436030Y-43767429D01*
X57446520Y-43745251D01*
X57459133Y-43724207D01*
X57473747Y-43704502D01*
X57490223Y-43686323D01*
X57508402Y-43669847D01*
X57528107Y-43655233D01*
X57549151Y-43642620D01*
X57571329Y-43632130D01*
X57594429Y-43623865D01*
X57618227Y-43617904D01*
X57642496Y-43614304D01*
X57667000Y-43613100D01*
X58592000Y-43613100D01*
X58616504Y-43614304D01*
X58616504Y-43614304D01*
G37*
D12*
G04 #@! TD*
G04 #@! TO.P,R2,2*
G04 #@! TO.N,LINE*
X58129500Y-44488100D03*
D11*
G04 #@! TO.N,Net-(R17-Pad1)*
G04 #@! TO.C,R2*
G36*
X55641504Y-43614304D02*
X55665773Y-43617904D01*
X55689571Y-43623865D01*
X55712671Y-43632130D01*
X55734849Y-43642620D01*
X55755893Y-43655233D01*
X55775598Y-43669847D01*
X55793777Y-43686323D01*
X55810253Y-43704502D01*
X55824867Y-43724207D01*
X55837480Y-43745251D01*
X55847970Y-43767429D01*
X55856235Y-43790529D01*
X55862196Y-43814327D01*
X55865796Y-43838596D01*
X55867000Y-43863100D01*
X55867000Y-45113100D01*
X55865796Y-45137604D01*
X55862196Y-45161873D01*
X55856235Y-45185671D01*
X55847970Y-45208771D01*
X55837480Y-45230949D01*
X55824867Y-45251993D01*
X55810253Y-45271698D01*
X55793777Y-45289877D01*
X55775598Y-45306353D01*
X55755893Y-45320967D01*
X55734849Y-45333580D01*
X55712671Y-45344070D01*
X55689571Y-45352335D01*
X55665773Y-45358296D01*
X55641504Y-45361896D01*
X55617000Y-45363100D01*
X54692000Y-45363100D01*
X54667496Y-45361896D01*
X54643227Y-45358296D01*
X54619429Y-45352335D01*
X54596329Y-45344070D01*
X54574151Y-45333580D01*
X54553107Y-45320967D01*
X54533402Y-45306353D01*
X54515223Y-45289877D01*
X54498747Y-45271698D01*
X54484133Y-45251993D01*
X54471520Y-45230949D01*
X54461030Y-45208771D01*
X54452765Y-45185671D01*
X54446804Y-45161873D01*
X54443204Y-45137604D01*
X54442000Y-45113100D01*
X54442000Y-43863100D01*
X54443204Y-43838596D01*
X54446804Y-43814327D01*
X54452765Y-43790529D01*
X54461030Y-43767429D01*
X54471520Y-43745251D01*
X54484133Y-43724207D01*
X54498747Y-43704502D01*
X54515223Y-43686323D01*
X54533402Y-43669847D01*
X54553107Y-43655233D01*
X54574151Y-43642620D01*
X54596329Y-43632130D01*
X54619429Y-43623865D01*
X54643227Y-43617904D01*
X54667496Y-43614304D01*
X54692000Y-43613100D01*
X55617000Y-43613100D01*
X55641504Y-43614304D01*
X55641504Y-43614304D01*
G37*
D12*
G04 #@! TD*
G04 #@! TO.P,R2,1*
G04 #@! TO.N,Net-(R17-Pad1)*
X55154500Y-44488100D03*
D11*
G04 #@! TO.N,Net-(R16-Pad2)*
G04 #@! TO.C,R16*
G36*
X50383704Y-32895504D02*
X50407973Y-32899104D01*
X50431771Y-32905065D01*
X50454871Y-32913330D01*
X50477049Y-32923820D01*
X50498093Y-32936433D01*
X50517798Y-32951047D01*
X50535977Y-32967523D01*
X50552453Y-32985702D01*
X50567067Y-33005407D01*
X50579680Y-33026451D01*
X50590170Y-33048629D01*
X50598435Y-33071729D01*
X50604396Y-33095527D01*
X50607996Y-33119796D01*
X50609200Y-33144300D01*
X50609200Y-34394300D01*
X50607996Y-34418804D01*
X50604396Y-34443073D01*
X50598435Y-34466871D01*
X50590170Y-34489971D01*
X50579680Y-34512149D01*
X50567067Y-34533193D01*
X50552453Y-34552898D01*
X50535977Y-34571077D01*
X50517798Y-34587553D01*
X50498093Y-34602167D01*
X50477049Y-34614780D01*
X50454871Y-34625270D01*
X50431771Y-34633535D01*
X50407973Y-34639496D01*
X50383704Y-34643096D01*
X50359200Y-34644300D01*
X49434200Y-34644300D01*
X49409696Y-34643096D01*
X49385427Y-34639496D01*
X49361629Y-34633535D01*
X49338529Y-34625270D01*
X49316351Y-34614780D01*
X49295307Y-34602167D01*
X49275602Y-34587553D01*
X49257423Y-34571077D01*
X49240947Y-34552898D01*
X49226333Y-34533193D01*
X49213720Y-34512149D01*
X49203230Y-34489971D01*
X49194965Y-34466871D01*
X49189004Y-34443073D01*
X49185404Y-34418804D01*
X49184200Y-34394300D01*
X49184200Y-33144300D01*
X49185404Y-33119796D01*
X49189004Y-33095527D01*
X49194965Y-33071729D01*
X49203230Y-33048629D01*
X49213720Y-33026451D01*
X49226333Y-33005407D01*
X49240947Y-32985702D01*
X49257423Y-32967523D01*
X49275602Y-32951047D01*
X49295307Y-32936433D01*
X49316351Y-32923820D01*
X49338529Y-32913330D01*
X49361629Y-32905065D01*
X49385427Y-32899104D01*
X49409696Y-32895504D01*
X49434200Y-32894300D01*
X50359200Y-32894300D01*
X50383704Y-32895504D01*
X50383704Y-32895504D01*
G37*
D12*
G04 #@! TD*
G04 #@! TO.P,R16,2*
G04 #@! TO.N,Net-(R16-Pad2)*
X49896700Y-33769300D03*
D11*
G04 #@! TO.N,Net-(R1-Pad1)*
G04 #@! TO.C,R16*
G36*
X53358704Y-32895504D02*
X53382973Y-32899104D01*
X53406771Y-32905065D01*
X53429871Y-32913330D01*
X53452049Y-32923820D01*
X53473093Y-32936433D01*
X53492798Y-32951047D01*
X53510977Y-32967523D01*
X53527453Y-32985702D01*
X53542067Y-33005407D01*
X53554680Y-33026451D01*
X53565170Y-33048629D01*
X53573435Y-33071729D01*
X53579396Y-33095527D01*
X53582996Y-33119796D01*
X53584200Y-33144300D01*
X53584200Y-34394300D01*
X53582996Y-34418804D01*
X53579396Y-34443073D01*
X53573435Y-34466871D01*
X53565170Y-34489971D01*
X53554680Y-34512149D01*
X53542067Y-34533193D01*
X53527453Y-34552898D01*
X53510977Y-34571077D01*
X53492798Y-34587553D01*
X53473093Y-34602167D01*
X53452049Y-34614780D01*
X53429871Y-34625270D01*
X53406771Y-34633535D01*
X53382973Y-34639496D01*
X53358704Y-34643096D01*
X53334200Y-34644300D01*
X52409200Y-34644300D01*
X52384696Y-34643096D01*
X52360427Y-34639496D01*
X52336629Y-34633535D01*
X52313529Y-34625270D01*
X52291351Y-34614780D01*
X52270307Y-34602167D01*
X52250602Y-34587553D01*
X52232423Y-34571077D01*
X52215947Y-34552898D01*
X52201333Y-34533193D01*
X52188720Y-34512149D01*
X52178230Y-34489971D01*
X52169965Y-34466871D01*
X52164004Y-34443073D01*
X52160404Y-34418804D01*
X52159200Y-34394300D01*
X52159200Y-33144300D01*
X52160404Y-33119796D01*
X52164004Y-33095527D01*
X52169965Y-33071729D01*
X52178230Y-33048629D01*
X52188720Y-33026451D01*
X52201333Y-33005407D01*
X52215947Y-32985702D01*
X52232423Y-32967523D01*
X52250602Y-32951047D01*
X52270307Y-32936433D01*
X52291351Y-32923820D01*
X52313529Y-32913330D01*
X52336629Y-32905065D01*
X52360427Y-32899104D01*
X52384696Y-32895504D01*
X52409200Y-32894300D01*
X53334200Y-32894300D01*
X53358704Y-32895504D01*
X53358704Y-32895504D01*
G37*
D12*
G04 #@! TD*
G04 #@! TO.P,R16,1*
G04 #@! TO.N,Net-(R1-Pad1)*
X52871700Y-33769300D03*
D11*
G04 #@! TO.N,LINE*
G04 #@! TO.C,R1*
G36*
X58680004Y-32895504D02*
X58704273Y-32899104D01*
X58728071Y-32905065D01*
X58751171Y-32913330D01*
X58773349Y-32923820D01*
X58794393Y-32936433D01*
X58814098Y-32951047D01*
X58832277Y-32967523D01*
X58848753Y-32985702D01*
X58863367Y-33005407D01*
X58875980Y-33026451D01*
X58886470Y-33048629D01*
X58894735Y-33071729D01*
X58900696Y-33095527D01*
X58904296Y-33119796D01*
X58905500Y-33144300D01*
X58905500Y-34394300D01*
X58904296Y-34418804D01*
X58900696Y-34443073D01*
X58894735Y-34466871D01*
X58886470Y-34489971D01*
X58875980Y-34512149D01*
X58863367Y-34533193D01*
X58848753Y-34552898D01*
X58832277Y-34571077D01*
X58814098Y-34587553D01*
X58794393Y-34602167D01*
X58773349Y-34614780D01*
X58751171Y-34625270D01*
X58728071Y-34633535D01*
X58704273Y-34639496D01*
X58680004Y-34643096D01*
X58655500Y-34644300D01*
X57730500Y-34644300D01*
X57705996Y-34643096D01*
X57681727Y-34639496D01*
X57657929Y-34633535D01*
X57634829Y-34625270D01*
X57612651Y-34614780D01*
X57591607Y-34602167D01*
X57571902Y-34587553D01*
X57553723Y-34571077D01*
X57537247Y-34552898D01*
X57522633Y-34533193D01*
X57510020Y-34512149D01*
X57499530Y-34489971D01*
X57491265Y-34466871D01*
X57485304Y-34443073D01*
X57481704Y-34418804D01*
X57480500Y-34394300D01*
X57480500Y-33144300D01*
X57481704Y-33119796D01*
X57485304Y-33095527D01*
X57491265Y-33071729D01*
X57499530Y-33048629D01*
X57510020Y-33026451D01*
X57522633Y-33005407D01*
X57537247Y-32985702D01*
X57553723Y-32967523D01*
X57571902Y-32951047D01*
X57591607Y-32936433D01*
X57612651Y-32923820D01*
X57634829Y-32913330D01*
X57657929Y-32905065D01*
X57681727Y-32899104D01*
X57705996Y-32895504D01*
X57730500Y-32894300D01*
X58655500Y-32894300D01*
X58680004Y-32895504D01*
X58680004Y-32895504D01*
G37*
D12*
G04 #@! TD*
G04 #@! TO.P,R1,2*
G04 #@! TO.N,LINE*
X58193000Y-33769300D03*
D11*
G04 #@! TO.N,Net-(R1-Pad1)*
G04 #@! TO.C,R1*
G36*
X55705004Y-32895504D02*
X55729273Y-32899104D01*
X55753071Y-32905065D01*
X55776171Y-32913330D01*
X55798349Y-32923820D01*
X55819393Y-32936433D01*
X55839098Y-32951047D01*
X55857277Y-32967523D01*
X55873753Y-32985702D01*
X55888367Y-33005407D01*
X55900980Y-33026451D01*
X55911470Y-33048629D01*
X55919735Y-33071729D01*
X55925696Y-33095527D01*
X55929296Y-33119796D01*
X55930500Y-33144300D01*
X55930500Y-34394300D01*
X55929296Y-34418804D01*
X55925696Y-34443073D01*
X55919735Y-34466871D01*
X55911470Y-34489971D01*
X55900980Y-34512149D01*
X55888367Y-34533193D01*
X55873753Y-34552898D01*
X55857277Y-34571077D01*
X55839098Y-34587553D01*
X55819393Y-34602167D01*
X55798349Y-34614780D01*
X55776171Y-34625270D01*
X55753071Y-34633535D01*
X55729273Y-34639496D01*
X55705004Y-34643096D01*
X55680500Y-34644300D01*
X54755500Y-34644300D01*
X54730996Y-34643096D01*
X54706727Y-34639496D01*
X54682929Y-34633535D01*
X54659829Y-34625270D01*
X54637651Y-34614780D01*
X54616607Y-34602167D01*
X54596902Y-34587553D01*
X54578723Y-34571077D01*
X54562247Y-34552898D01*
X54547633Y-34533193D01*
X54535020Y-34512149D01*
X54524530Y-34489971D01*
X54516265Y-34466871D01*
X54510304Y-34443073D01*
X54506704Y-34418804D01*
X54505500Y-34394300D01*
X54505500Y-33144300D01*
X54506704Y-33119796D01*
X54510304Y-33095527D01*
X54516265Y-33071729D01*
X54524530Y-33048629D01*
X54535020Y-33026451D01*
X54547633Y-33005407D01*
X54562247Y-32985702D01*
X54578723Y-32967523D01*
X54596902Y-32951047D01*
X54616607Y-32936433D01*
X54637651Y-32923820D01*
X54659829Y-32913330D01*
X54682929Y-32905065D01*
X54706727Y-32899104D01*
X54730996Y-32895504D01*
X54755500Y-32894300D01*
X55680500Y-32894300D01*
X55705004Y-32895504D01*
X55705004Y-32895504D01*
G37*
D12*
G04 #@! TD*
G04 #@! TO.P,R1,1*
G04 #@! TO.N,Net-(R1-Pad1)*
X55218000Y-33769300D03*
D11*
G04 #@! TO.N,Net-(R10-Pad2)*
G04 #@! TO.C,R10*
G36*
X50421804Y-51132704D02*
X50446073Y-51136304D01*
X50469871Y-51142265D01*
X50492971Y-51150530D01*
X50515149Y-51161020D01*
X50536193Y-51173633D01*
X50555898Y-51188247D01*
X50574077Y-51204723D01*
X50590553Y-51222902D01*
X50605167Y-51242607D01*
X50617780Y-51263651D01*
X50628270Y-51285829D01*
X50636535Y-51308929D01*
X50642496Y-51332727D01*
X50646096Y-51356996D01*
X50647300Y-51381500D01*
X50647300Y-52631500D01*
X50646096Y-52656004D01*
X50642496Y-52680273D01*
X50636535Y-52704071D01*
X50628270Y-52727171D01*
X50617780Y-52749349D01*
X50605167Y-52770393D01*
X50590553Y-52790098D01*
X50574077Y-52808277D01*
X50555898Y-52824753D01*
X50536193Y-52839367D01*
X50515149Y-52851980D01*
X50492971Y-52862470D01*
X50469871Y-52870735D01*
X50446073Y-52876696D01*
X50421804Y-52880296D01*
X50397300Y-52881500D01*
X49472300Y-52881500D01*
X49447796Y-52880296D01*
X49423527Y-52876696D01*
X49399729Y-52870735D01*
X49376629Y-52862470D01*
X49354451Y-52851980D01*
X49333407Y-52839367D01*
X49313702Y-52824753D01*
X49295523Y-52808277D01*
X49279047Y-52790098D01*
X49264433Y-52770393D01*
X49251820Y-52749349D01*
X49241330Y-52727171D01*
X49233065Y-52704071D01*
X49227104Y-52680273D01*
X49223504Y-52656004D01*
X49222300Y-52631500D01*
X49222300Y-51381500D01*
X49223504Y-51356996D01*
X49227104Y-51332727D01*
X49233065Y-51308929D01*
X49241330Y-51285829D01*
X49251820Y-51263651D01*
X49264433Y-51242607D01*
X49279047Y-51222902D01*
X49295523Y-51204723D01*
X49313702Y-51188247D01*
X49333407Y-51173633D01*
X49354451Y-51161020D01*
X49376629Y-51150530D01*
X49399729Y-51142265D01*
X49423527Y-51136304D01*
X49447796Y-51132704D01*
X49472300Y-51131500D01*
X50397300Y-51131500D01*
X50421804Y-51132704D01*
X50421804Y-51132704D01*
G37*
D12*
G04 #@! TD*
G04 #@! TO.P,R10,2*
G04 #@! TO.N,Net-(R10-Pad2)*
X49934800Y-52006500D03*
D11*
G04 #@! TO.N,NEUT*
G04 #@! TO.C,R10*
G36*
X53396804Y-51132704D02*
X53421073Y-51136304D01*
X53444871Y-51142265D01*
X53467971Y-51150530D01*
X53490149Y-51161020D01*
X53511193Y-51173633D01*
X53530898Y-51188247D01*
X53549077Y-51204723D01*
X53565553Y-51222902D01*
X53580167Y-51242607D01*
X53592780Y-51263651D01*
X53603270Y-51285829D01*
X53611535Y-51308929D01*
X53617496Y-51332727D01*
X53621096Y-51356996D01*
X53622300Y-51381500D01*
X53622300Y-52631500D01*
X53621096Y-52656004D01*
X53617496Y-52680273D01*
X53611535Y-52704071D01*
X53603270Y-52727171D01*
X53592780Y-52749349D01*
X53580167Y-52770393D01*
X53565553Y-52790098D01*
X53549077Y-52808277D01*
X53530898Y-52824753D01*
X53511193Y-52839367D01*
X53490149Y-52851980D01*
X53467971Y-52862470D01*
X53444871Y-52870735D01*
X53421073Y-52876696D01*
X53396804Y-52880296D01*
X53372300Y-52881500D01*
X52447300Y-52881500D01*
X52422796Y-52880296D01*
X52398527Y-52876696D01*
X52374729Y-52870735D01*
X52351629Y-52862470D01*
X52329451Y-52851980D01*
X52308407Y-52839367D01*
X52288702Y-52824753D01*
X52270523Y-52808277D01*
X52254047Y-52790098D01*
X52239433Y-52770393D01*
X52226820Y-52749349D01*
X52216330Y-52727171D01*
X52208065Y-52704071D01*
X52202104Y-52680273D01*
X52198504Y-52656004D01*
X52197300Y-52631500D01*
X52197300Y-51381500D01*
X52198504Y-51356996D01*
X52202104Y-51332727D01*
X52208065Y-51308929D01*
X52216330Y-51285829D01*
X52226820Y-51263651D01*
X52239433Y-51242607D01*
X52254047Y-51222902D01*
X52270523Y-51204723D01*
X52288702Y-51188247D01*
X52308407Y-51173633D01*
X52329451Y-51161020D01*
X52351629Y-51150530D01*
X52374729Y-51142265D01*
X52398527Y-51136304D01*
X52422796Y-51132704D01*
X52447300Y-51131500D01*
X53372300Y-51131500D01*
X53396804Y-51132704D01*
X53396804Y-51132704D01*
G37*
D12*
G04 #@! TD*
G04 #@! TO.P,R10,1*
G04 #@! TO.N,NEUT*
X52909800Y-52006500D03*
D11*
G04 #@! TO.N,LINE*
G04 #@! TO.C,R7*
G36*
X56994324Y-54407644D02*
X57018593Y-54411244D01*
X57042391Y-54417205D01*
X57065491Y-54425470D01*
X57087669Y-54435960D01*
X57108713Y-54448573D01*
X57128418Y-54463187D01*
X57146597Y-54479663D01*
X57163073Y-54497842D01*
X57177687Y-54517547D01*
X57190300Y-54538591D01*
X57200790Y-54560769D01*
X57209055Y-54583869D01*
X57215016Y-54607667D01*
X57218616Y-54631936D01*
X57219820Y-54656440D01*
X57219820Y-55581440D01*
X57218616Y-55605944D01*
X57215016Y-55630213D01*
X57209055Y-55654011D01*
X57200790Y-55677111D01*
X57190300Y-55699289D01*
X57177687Y-55720333D01*
X57163073Y-55740038D01*
X57146597Y-55758217D01*
X57128418Y-55774693D01*
X57108713Y-55789307D01*
X57087669Y-55801920D01*
X57065491Y-55812410D01*
X57042391Y-55820675D01*
X57018593Y-55826636D01*
X56994324Y-55830236D01*
X56969820Y-55831440D01*
X55719820Y-55831440D01*
X55695316Y-55830236D01*
X55671047Y-55826636D01*
X55647249Y-55820675D01*
X55624149Y-55812410D01*
X55601971Y-55801920D01*
X55580927Y-55789307D01*
X55561222Y-55774693D01*
X55543043Y-55758217D01*
X55526567Y-55740038D01*
X55511953Y-55720333D01*
X55499340Y-55699289D01*
X55488850Y-55677111D01*
X55480585Y-55654011D01*
X55474624Y-55630213D01*
X55471024Y-55605944D01*
X55469820Y-55581440D01*
X55469820Y-54656440D01*
X55471024Y-54631936D01*
X55474624Y-54607667D01*
X55480585Y-54583869D01*
X55488850Y-54560769D01*
X55499340Y-54538591D01*
X55511953Y-54517547D01*
X55526567Y-54497842D01*
X55543043Y-54479663D01*
X55561222Y-54463187D01*
X55580927Y-54448573D01*
X55601971Y-54435960D01*
X55624149Y-54425470D01*
X55647249Y-54417205D01*
X55671047Y-54411244D01*
X55695316Y-54407644D01*
X55719820Y-54406440D01*
X56969820Y-54406440D01*
X56994324Y-54407644D01*
X56994324Y-54407644D01*
G37*
D12*
G04 #@! TD*
G04 #@! TO.P,R7,2*
G04 #@! TO.N,LINE*
X56344820Y-55118940D03*
D11*
G04 #@! TO.N,Net-(C1-Pad2)*
G04 #@! TO.C,R7*
G36*
X56994324Y-57382644D02*
X57018593Y-57386244D01*
X57042391Y-57392205D01*
X57065491Y-57400470D01*
X57087669Y-57410960D01*
X57108713Y-57423573D01*
X57128418Y-57438187D01*
X57146597Y-57454663D01*
X57163073Y-57472842D01*
X57177687Y-57492547D01*
X57190300Y-57513591D01*
X57200790Y-57535769D01*
X57209055Y-57558869D01*
X57215016Y-57582667D01*
X57218616Y-57606936D01*
X57219820Y-57631440D01*
X57219820Y-58556440D01*
X57218616Y-58580944D01*
X57215016Y-58605213D01*
X57209055Y-58629011D01*
X57200790Y-58652111D01*
X57190300Y-58674289D01*
X57177687Y-58695333D01*
X57163073Y-58715038D01*
X57146597Y-58733217D01*
X57128418Y-58749693D01*
X57108713Y-58764307D01*
X57087669Y-58776920D01*
X57065491Y-58787410D01*
X57042391Y-58795675D01*
X57018593Y-58801636D01*
X56994324Y-58805236D01*
X56969820Y-58806440D01*
X55719820Y-58806440D01*
X55695316Y-58805236D01*
X55671047Y-58801636D01*
X55647249Y-58795675D01*
X55624149Y-58787410D01*
X55601971Y-58776920D01*
X55580927Y-58764307D01*
X55561222Y-58749693D01*
X55543043Y-58733217D01*
X55526567Y-58715038D01*
X55511953Y-58695333D01*
X55499340Y-58674289D01*
X55488850Y-58652111D01*
X55480585Y-58629011D01*
X55474624Y-58605213D01*
X55471024Y-58580944D01*
X55469820Y-58556440D01*
X55469820Y-57631440D01*
X55471024Y-57606936D01*
X55474624Y-57582667D01*
X55480585Y-57558869D01*
X55488850Y-57535769D01*
X55499340Y-57513591D01*
X55511953Y-57492547D01*
X55526567Y-57472842D01*
X55543043Y-57454663D01*
X55561222Y-57438187D01*
X55580927Y-57423573D01*
X55601971Y-57410960D01*
X55624149Y-57400470D01*
X55647249Y-57392205D01*
X55671047Y-57386244D01*
X55695316Y-57382644D01*
X55719820Y-57381440D01*
X56969820Y-57381440D01*
X56994324Y-57382644D01*
X56994324Y-57382644D01*
G37*
D12*
G04 #@! TD*
G04 #@! TO.P,R7,1*
G04 #@! TO.N,Net-(C1-Pad2)*
X56344820Y-58093940D03*
D11*
G04 #@! TO.N,Net-(R14-Pad1)*
G04 #@! TO.C,R14*
G36*
X32883205Y-45783204D02*
X32907473Y-45786804D01*
X32931272Y-45792765D01*
X32954371Y-45801030D01*
X32976550Y-45811520D01*
X32997593Y-45824132D01*
X33017299Y-45838747D01*
X33035477Y-45855223D01*
X33051953Y-45873401D01*
X33066568Y-45893107D01*
X33079180Y-45914150D01*
X33089670Y-45936329D01*
X33097935Y-45959428D01*
X33103896Y-45983227D01*
X33107496Y-46007495D01*
X33108700Y-46031999D01*
X33108700Y-46932001D01*
X33107496Y-46956505D01*
X33103896Y-46980773D01*
X33097935Y-47004572D01*
X33089670Y-47027671D01*
X33079180Y-47049850D01*
X33066568Y-47070893D01*
X33051953Y-47090599D01*
X33035477Y-47108777D01*
X33017299Y-47125253D01*
X32997593Y-47139868D01*
X32976550Y-47152480D01*
X32954371Y-47162970D01*
X32931272Y-47171235D01*
X32907473Y-47177196D01*
X32883205Y-47180796D01*
X32858701Y-47182000D01*
X32208699Y-47182000D01*
X32184195Y-47180796D01*
X32159927Y-47177196D01*
X32136128Y-47171235D01*
X32113029Y-47162970D01*
X32090850Y-47152480D01*
X32069807Y-47139868D01*
X32050101Y-47125253D01*
X32031923Y-47108777D01*
X32015447Y-47090599D01*
X32000832Y-47070893D01*
X31988220Y-47049850D01*
X31977730Y-47027671D01*
X31969465Y-47004572D01*
X31963504Y-46980773D01*
X31959904Y-46956505D01*
X31958700Y-46932001D01*
X31958700Y-46031999D01*
X31959904Y-46007495D01*
X31963504Y-45983227D01*
X31969465Y-45959428D01*
X31977730Y-45936329D01*
X31988220Y-45914150D01*
X32000832Y-45893107D01*
X32015447Y-45873401D01*
X32031923Y-45855223D01*
X32050101Y-45838747D01*
X32069807Y-45824132D01*
X32090850Y-45811520D01*
X32113029Y-45801030D01*
X32136128Y-45792765D01*
X32159927Y-45786804D01*
X32184195Y-45783204D01*
X32208699Y-45782000D01*
X32858701Y-45782000D01*
X32883205Y-45783204D01*
X32883205Y-45783204D01*
G37*
D14*
G04 #@! TD*
G04 #@! TO.P,R14,1*
G04 #@! TO.N,Net-(R14-Pad1)*
X32533700Y-46482000D03*
D11*
G04 #@! TO.N,+3V3*
G04 #@! TO.C,R14*
G36*
X30833205Y-45783204D02*
X30857473Y-45786804D01*
X30881272Y-45792765D01*
X30904371Y-45801030D01*
X30926550Y-45811520D01*
X30947593Y-45824132D01*
X30967299Y-45838747D01*
X30985477Y-45855223D01*
X31001953Y-45873401D01*
X31016568Y-45893107D01*
X31029180Y-45914150D01*
X31039670Y-45936329D01*
X31047935Y-45959428D01*
X31053896Y-45983227D01*
X31057496Y-46007495D01*
X31058700Y-46031999D01*
X31058700Y-46932001D01*
X31057496Y-46956505D01*
X31053896Y-46980773D01*
X31047935Y-47004572D01*
X31039670Y-47027671D01*
X31029180Y-47049850D01*
X31016568Y-47070893D01*
X31001953Y-47090599D01*
X30985477Y-47108777D01*
X30967299Y-47125253D01*
X30947593Y-47139868D01*
X30926550Y-47152480D01*
X30904371Y-47162970D01*
X30881272Y-47171235D01*
X30857473Y-47177196D01*
X30833205Y-47180796D01*
X30808701Y-47182000D01*
X30158699Y-47182000D01*
X30134195Y-47180796D01*
X30109927Y-47177196D01*
X30086128Y-47171235D01*
X30063029Y-47162970D01*
X30040850Y-47152480D01*
X30019807Y-47139868D01*
X30000101Y-47125253D01*
X29981923Y-47108777D01*
X29965447Y-47090599D01*
X29950832Y-47070893D01*
X29938220Y-47049850D01*
X29927730Y-47027671D01*
X29919465Y-47004572D01*
X29913504Y-46980773D01*
X29909904Y-46956505D01*
X29908700Y-46932001D01*
X29908700Y-46031999D01*
X29909904Y-46007495D01*
X29913504Y-45983227D01*
X29919465Y-45959428D01*
X29927730Y-45936329D01*
X29938220Y-45914150D01*
X29950832Y-45893107D01*
X29965447Y-45873401D01*
X29981923Y-45855223D01*
X30000101Y-45838747D01*
X30019807Y-45824132D01*
X30040850Y-45811520D01*
X30063029Y-45801030D01*
X30086128Y-45792765D01*
X30109927Y-45786804D01*
X30134195Y-45783204D01*
X30158699Y-45782000D01*
X30808701Y-45782000D01*
X30833205Y-45783204D01*
X30833205Y-45783204D01*
G37*
D14*
G04 #@! TD*
G04 #@! TO.P,R14,2*
G04 #@! TO.N,+3V3*
X30483700Y-46482000D03*
D11*
G04 #@! TO.N,Net-(R8-Pad1)*
G04 #@! TO.C,R8*
G36*
X47086665Y-65767924D02*
X47110933Y-65771524D01*
X47134732Y-65777485D01*
X47157831Y-65785750D01*
X47180010Y-65796240D01*
X47201053Y-65808852D01*
X47220759Y-65823467D01*
X47238937Y-65839943D01*
X47255413Y-65858121D01*
X47270028Y-65877827D01*
X47282640Y-65898870D01*
X47293130Y-65921049D01*
X47301395Y-65944148D01*
X47307356Y-65967947D01*
X47310956Y-65992215D01*
X47312160Y-66016719D01*
X47312160Y-66916721D01*
X47310956Y-66941225D01*
X47307356Y-66965493D01*
X47301395Y-66989292D01*
X47293130Y-67012391D01*
X47282640Y-67034570D01*
X47270028Y-67055613D01*
X47255413Y-67075319D01*
X47238937Y-67093497D01*
X47220759Y-67109973D01*
X47201053Y-67124588D01*
X47180010Y-67137200D01*
X47157831Y-67147690D01*
X47134732Y-67155955D01*
X47110933Y-67161916D01*
X47086665Y-67165516D01*
X47062161Y-67166720D01*
X46412159Y-67166720D01*
X46387655Y-67165516D01*
X46363387Y-67161916D01*
X46339588Y-67155955D01*
X46316489Y-67147690D01*
X46294310Y-67137200D01*
X46273267Y-67124588D01*
X46253561Y-67109973D01*
X46235383Y-67093497D01*
X46218907Y-67075319D01*
X46204292Y-67055613D01*
X46191680Y-67034570D01*
X46181190Y-67012391D01*
X46172925Y-66989292D01*
X46166964Y-66965493D01*
X46163364Y-66941225D01*
X46162160Y-66916721D01*
X46162160Y-66016719D01*
X46163364Y-65992215D01*
X46166964Y-65967947D01*
X46172925Y-65944148D01*
X46181190Y-65921049D01*
X46191680Y-65898870D01*
X46204292Y-65877827D01*
X46218907Y-65858121D01*
X46235383Y-65839943D01*
X46253561Y-65823467D01*
X46273267Y-65808852D01*
X46294310Y-65796240D01*
X46316489Y-65785750D01*
X46339588Y-65777485D01*
X46363387Y-65771524D01*
X46387655Y-65767924D01*
X46412159Y-65766720D01*
X47062161Y-65766720D01*
X47086665Y-65767924D01*
X47086665Y-65767924D01*
G37*
D14*
G04 #@! TD*
G04 #@! TO.P,R8,1*
G04 #@! TO.N,Net-(R8-Pad1)*
X46737160Y-66466720D03*
D11*
G04 #@! TO.N,Net-(C2-Pad1)*
G04 #@! TO.C,R8*
G36*
X49136665Y-65767924D02*
X49160933Y-65771524D01*
X49184732Y-65777485D01*
X49207831Y-65785750D01*
X49230010Y-65796240D01*
X49251053Y-65808852D01*
X49270759Y-65823467D01*
X49288937Y-65839943D01*
X49305413Y-65858121D01*
X49320028Y-65877827D01*
X49332640Y-65898870D01*
X49343130Y-65921049D01*
X49351395Y-65944148D01*
X49357356Y-65967947D01*
X49360956Y-65992215D01*
X49362160Y-66016719D01*
X49362160Y-66916721D01*
X49360956Y-66941225D01*
X49357356Y-66965493D01*
X49351395Y-66989292D01*
X49343130Y-67012391D01*
X49332640Y-67034570D01*
X49320028Y-67055613D01*
X49305413Y-67075319D01*
X49288937Y-67093497D01*
X49270759Y-67109973D01*
X49251053Y-67124588D01*
X49230010Y-67137200D01*
X49207831Y-67147690D01*
X49184732Y-67155955D01*
X49160933Y-67161916D01*
X49136665Y-67165516D01*
X49112161Y-67166720D01*
X48462159Y-67166720D01*
X48437655Y-67165516D01*
X48413387Y-67161916D01*
X48389588Y-67155955D01*
X48366489Y-67147690D01*
X48344310Y-67137200D01*
X48323267Y-67124588D01*
X48303561Y-67109973D01*
X48285383Y-67093497D01*
X48268907Y-67075319D01*
X48254292Y-67055613D01*
X48241680Y-67034570D01*
X48231190Y-67012391D01*
X48222925Y-66989292D01*
X48216964Y-66965493D01*
X48213364Y-66941225D01*
X48212160Y-66916721D01*
X48212160Y-66016719D01*
X48213364Y-65992215D01*
X48216964Y-65967947D01*
X48222925Y-65944148D01*
X48231190Y-65921049D01*
X48241680Y-65898870D01*
X48254292Y-65877827D01*
X48268907Y-65858121D01*
X48285383Y-65839943D01*
X48303561Y-65823467D01*
X48323267Y-65808852D01*
X48344310Y-65796240D01*
X48366489Y-65785750D01*
X48389588Y-65777485D01*
X48413387Y-65771524D01*
X48437655Y-65767924D01*
X48462159Y-65766720D01*
X49112161Y-65766720D01*
X49136665Y-65767924D01*
X49136665Y-65767924D01*
G37*
D14*
G04 #@! TD*
G04 #@! TO.P,R8,2*
G04 #@! TO.N,Net-(C2-Pad1)*
X48787160Y-66466720D03*
D16*
G04 #@! TO.P,F1,2*
G04 #@! TO.N,Net-(F1-Pad2)*
X65737740Y-57238900D03*
D17*
G04 #@! TO.P,F1,1*
G04 #@! TO.N,LINE*
X65737740Y-62318900D03*
G04 #@! TD*
D18*
G04 #@! TO.P,J1,5*
G04 #@! TO.N,Net-(J1-Pad5)*
X65854580Y-32661820D03*
G04 #@! TO.P,J1,4*
G04 #@! TO.N,Net-(J1-Pad4)*
X65854580Y-37661820D03*
G04 #@! TO.P,J1,3*
G04 #@! TO.N,SW_1_LINE*
X65854580Y-42661820D03*
G04 #@! TO.P,J1,2*
G04 #@! TO.N,NEUT*
X65854580Y-47661820D03*
D19*
G04 #@! TO.P,J1,1*
G04 #@! TO.N,Net-(F1-Pad2)*
X65854580Y-52661820D03*
G04 #@! TD*
D20*
G04 #@! TO.P,D1,2*
G04 #@! TO.N,Net-(D1-Pad2)*
X58713100Y-70200000D03*
G04 #@! TO.P,D1,1*
G04 #@! TO.N,Net-(C2-Pad2)*
X62013100Y-70200000D03*
G04 #@! TD*
D10*
G04 #@! TO.P,U2,6*
G04 #@! TO.N,Net-(R16-Pad2)*
X47472600Y-33401000D03*
G04 #@! TO.P,U2,3*
G04 #@! TO.N,N/C*
X39852600Y-28321000D03*
G04 #@! TO.P,U2,5*
X47472600Y-30861000D03*
G04 #@! TO.P,U2,2*
G04 #@! TO.N,GND*
X39852600Y-30861000D03*
G04 #@! TO.P,U2,4*
G04 #@! TO.N,Net-(Q1-Pad3)*
X47472600Y-28321000D03*
G04 #@! TO.P,U2,1*
G04 #@! TO.N,Net-(R3-Pad2)*
X39852600Y-33401000D03*
G04 #@! TD*
G04 #@! TO.P,U4,6*
G04 #@! TO.N,N/C*
X39847520Y-58082180D03*
G04 #@! TO.P,U4,3*
X47467520Y-63162180D03*
G04 #@! TO.P,U4,5*
G04 #@! TO.N,Net-(R5-Pad2)*
X39847520Y-60622180D03*
G04 #@! TO.P,U4,2*
G04 #@! TO.N,Net-(Q5-Pad3)*
X47467520Y-60622180D03*
G04 #@! TO.P,U4,4*
G04 #@! TO.N,GND*
X39847520Y-63162180D03*
G04 #@! TO.P,U4,1*
G04 #@! TO.N,Net-(R8-Pad1)*
X47467520Y-58082180D03*
G04 #@! TD*
D11*
G04 #@! TO.N,Net-(R4-Pad2)*
G04 #@! TO.C,R4*
G36*
X37624545Y-43570024D02*
X37648813Y-43573624D01*
X37672612Y-43579585D01*
X37695711Y-43587850D01*
X37717890Y-43598340D01*
X37738933Y-43610952D01*
X37758639Y-43625567D01*
X37776817Y-43642043D01*
X37793293Y-43660221D01*
X37807908Y-43679927D01*
X37820520Y-43700970D01*
X37831010Y-43723149D01*
X37839275Y-43746248D01*
X37845236Y-43770047D01*
X37848836Y-43794315D01*
X37850040Y-43818819D01*
X37850040Y-44468821D01*
X37848836Y-44493325D01*
X37845236Y-44517593D01*
X37839275Y-44541392D01*
X37831010Y-44564491D01*
X37820520Y-44586670D01*
X37807908Y-44607713D01*
X37793293Y-44627419D01*
X37776817Y-44645597D01*
X37758639Y-44662073D01*
X37738933Y-44676688D01*
X37717890Y-44689300D01*
X37695711Y-44699790D01*
X37672612Y-44708055D01*
X37648813Y-44714016D01*
X37624545Y-44717616D01*
X37600041Y-44718820D01*
X36700039Y-44718820D01*
X36675535Y-44717616D01*
X36651267Y-44714016D01*
X36627468Y-44708055D01*
X36604369Y-44699790D01*
X36582190Y-44689300D01*
X36561147Y-44676688D01*
X36541441Y-44662073D01*
X36523263Y-44645597D01*
X36506787Y-44627419D01*
X36492172Y-44607713D01*
X36479560Y-44586670D01*
X36469070Y-44564491D01*
X36460805Y-44541392D01*
X36454844Y-44517593D01*
X36451244Y-44493325D01*
X36450040Y-44468821D01*
X36450040Y-43818819D01*
X36451244Y-43794315D01*
X36454844Y-43770047D01*
X36460805Y-43746248D01*
X36469070Y-43723149D01*
X36479560Y-43700970D01*
X36492172Y-43679927D01*
X36506787Y-43660221D01*
X36523263Y-43642043D01*
X36541441Y-43625567D01*
X36561147Y-43610952D01*
X36582190Y-43598340D01*
X36604369Y-43587850D01*
X36627468Y-43579585D01*
X36651267Y-43573624D01*
X36675535Y-43570024D01*
X36700039Y-43568820D01*
X37600041Y-43568820D01*
X37624545Y-43570024D01*
X37624545Y-43570024D01*
G37*
D14*
G04 #@! TD*
G04 #@! TO.P,R4,2*
G04 #@! TO.N,Net-(R4-Pad2)*
X37150040Y-44143820D03*
D11*
G04 #@! TO.N,Net-(R4-Pad1)*
G04 #@! TO.C,R4*
G36*
X37624545Y-45620024D02*
X37648813Y-45623624D01*
X37672612Y-45629585D01*
X37695711Y-45637850D01*
X37717890Y-45648340D01*
X37738933Y-45660952D01*
X37758639Y-45675567D01*
X37776817Y-45692043D01*
X37793293Y-45710221D01*
X37807908Y-45729927D01*
X37820520Y-45750970D01*
X37831010Y-45773149D01*
X37839275Y-45796248D01*
X37845236Y-45820047D01*
X37848836Y-45844315D01*
X37850040Y-45868819D01*
X37850040Y-46518821D01*
X37848836Y-46543325D01*
X37845236Y-46567593D01*
X37839275Y-46591392D01*
X37831010Y-46614491D01*
X37820520Y-46636670D01*
X37807908Y-46657713D01*
X37793293Y-46677419D01*
X37776817Y-46695597D01*
X37758639Y-46712073D01*
X37738933Y-46726688D01*
X37717890Y-46739300D01*
X37695711Y-46749790D01*
X37672612Y-46758055D01*
X37648813Y-46764016D01*
X37624545Y-46767616D01*
X37600041Y-46768820D01*
X36700039Y-46768820D01*
X36675535Y-46767616D01*
X36651267Y-46764016D01*
X36627468Y-46758055D01*
X36604369Y-46749790D01*
X36582190Y-46739300D01*
X36561147Y-46726688D01*
X36541441Y-46712073D01*
X36523263Y-46695597D01*
X36506787Y-46677419D01*
X36492172Y-46657713D01*
X36479560Y-46636670D01*
X36469070Y-46614491D01*
X36460805Y-46591392D01*
X36454844Y-46567593D01*
X36451244Y-46543325D01*
X36450040Y-46518821D01*
X36450040Y-45868819D01*
X36451244Y-45844315D01*
X36454844Y-45820047D01*
X36460805Y-45796248D01*
X36469070Y-45773149D01*
X36479560Y-45750970D01*
X36492172Y-45729927D01*
X36506787Y-45710221D01*
X36523263Y-45692043D01*
X36541441Y-45675567D01*
X36561147Y-45660952D01*
X36582190Y-45648340D01*
X36604369Y-45637850D01*
X36627468Y-45629585D01*
X36651267Y-45623624D01*
X36675535Y-45620024D01*
X36700039Y-45618820D01*
X37600041Y-45618820D01*
X37624545Y-45620024D01*
X37624545Y-45620024D01*
G37*
D14*
G04 #@! TD*
G04 #@! TO.P,R4,1*
G04 #@! TO.N,Net-(R4-Pad1)*
X37150040Y-46193820D03*
D21*
G04 #@! TO.P,J2,2*
G04 #@! TO.N,Net-(J2-Pad2)*
X34038540Y-30467300D03*
D22*
G04 #@! TO.P,J2,1*
G04 #@! TO.N,Net-(J2-Pad1)*
X36578540Y-30467300D03*
G04 #@! TD*
D11*
G04 #@! TO.N,Net-(C1-Pad2)*
G04 #@! TO.C,C1*
G36*
X56498144Y-59375004D02*
X56522413Y-59378604D01*
X56546211Y-59384565D01*
X56569311Y-59392830D01*
X56591489Y-59403320D01*
X56612533Y-59415933D01*
X56632238Y-59430547D01*
X56650417Y-59447023D01*
X56666893Y-59465202D01*
X56681507Y-59484907D01*
X56694120Y-59505951D01*
X56704610Y-59528129D01*
X56712875Y-59551229D01*
X56718836Y-59575027D01*
X56722436Y-59599296D01*
X56723640Y-59623800D01*
X56723640Y-60873800D01*
X56722436Y-60898304D01*
X56718836Y-60922573D01*
X56712875Y-60946371D01*
X56704610Y-60969471D01*
X56694120Y-60991649D01*
X56681507Y-61012693D01*
X56666893Y-61032398D01*
X56650417Y-61050577D01*
X56632238Y-61067053D01*
X56612533Y-61081667D01*
X56591489Y-61094280D01*
X56569311Y-61104770D01*
X56546211Y-61113035D01*
X56522413Y-61118996D01*
X56498144Y-61122596D01*
X56473640Y-61123800D01*
X55548640Y-61123800D01*
X55524136Y-61122596D01*
X55499867Y-61118996D01*
X55476069Y-61113035D01*
X55452969Y-61104770D01*
X55430791Y-61094280D01*
X55409747Y-61081667D01*
X55390042Y-61067053D01*
X55371863Y-61050577D01*
X55355387Y-61032398D01*
X55340773Y-61012693D01*
X55328160Y-60991649D01*
X55317670Y-60969471D01*
X55309405Y-60946371D01*
X55303444Y-60922573D01*
X55299844Y-60898304D01*
X55298640Y-60873800D01*
X55298640Y-59623800D01*
X55299844Y-59599296D01*
X55303444Y-59575027D01*
X55309405Y-59551229D01*
X55317670Y-59528129D01*
X55328160Y-59505951D01*
X55340773Y-59484907D01*
X55355387Y-59465202D01*
X55371863Y-59447023D01*
X55390042Y-59430547D01*
X55409747Y-59415933D01*
X55430791Y-59403320D01*
X55452969Y-59392830D01*
X55476069Y-59384565D01*
X55499867Y-59378604D01*
X55524136Y-59375004D01*
X55548640Y-59373800D01*
X56473640Y-59373800D01*
X56498144Y-59375004D01*
X56498144Y-59375004D01*
G37*
D12*
G04 #@! TD*
G04 #@! TO.P,C1,2*
G04 #@! TO.N,Net-(C1-Pad2)*
X56011140Y-60248800D03*
D11*
G04 #@! TO.N,Net-(C1-Pad1)*
G04 #@! TO.C,C1*
G36*
X53523144Y-59375004D02*
X53547413Y-59378604D01*
X53571211Y-59384565D01*
X53594311Y-59392830D01*
X53616489Y-59403320D01*
X53637533Y-59415933D01*
X53657238Y-59430547D01*
X53675417Y-59447023D01*
X53691893Y-59465202D01*
X53706507Y-59484907D01*
X53719120Y-59505951D01*
X53729610Y-59528129D01*
X53737875Y-59551229D01*
X53743836Y-59575027D01*
X53747436Y-59599296D01*
X53748640Y-59623800D01*
X53748640Y-60873800D01*
X53747436Y-60898304D01*
X53743836Y-60922573D01*
X53737875Y-60946371D01*
X53729610Y-60969471D01*
X53719120Y-60991649D01*
X53706507Y-61012693D01*
X53691893Y-61032398D01*
X53675417Y-61050577D01*
X53657238Y-61067053D01*
X53637533Y-61081667D01*
X53616489Y-61094280D01*
X53594311Y-61104770D01*
X53571211Y-61113035D01*
X53547413Y-61118996D01*
X53523144Y-61122596D01*
X53498640Y-61123800D01*
X52573640Y-61123800D01*
X52549136Y-61122596D01*
X52524867Y-61118996D01*
X52501069Y-61113035D01*
X52477969Y-61104770D01*
X52455791Y-61094280D01*
X52434747Y-61081667D01*
X52415042Y-61067053D01*
X52396863Y-61050577D01*
X52380387Y-61032398D01*
X52365773Y-61012693D01*
X52353160Y-60991649D01*
X52342670Y-60969471D01*
X52334405Y-60946371D01*
X52328444Y-60922573D01*
X52324844Y-60898304D01*
X52323640Y-60873800D01*
X52323640Y-59623800D01*
X52324844Y-59599296D01*
X52328444Y-59575027D01*
X52334405Y-59551229D01*
X52342670Y-59528129D01*
X52353160Y-59505951D01*
X52365773Y-59484907D01*
X52380387Y-59465202D01*
X52396863Y-59447023D01*
X52415042Y-59430547D01*
X52434747Y-59415933D01*
X52455791Y-59403320D01*
X52477969Y-59392830D01*
X52501069Y-59384565D01*
X52524867Y-59378604D01*
X52549136Y-59375004D01*
X52573640Y-59373800D01*
X53498640Y-59373800D01*
X53523144Y-59375004D01*
X53523144Y-59375004D01*
G37*
D12*
G04 #@! TD*
G04 #@! TO.P,C1,1*
G04 #@! TO.N,Net-(C1-Pad1)*
X53036140Y-60248800D03*
D23*
G04 #@! TO.P,C2,2*
G04 #@! TO.N,Net-(C2-Pad2)*
X65641220Y-68781681D03*
D24*
G04 #@! TO.P,C2,1*
G04 #@! TO.N,Net-(C2-Pad1)*
X65641220Y-66781680D03*
G04 #@! TD*
D25*
G04 #@! TO.P,U1,1*
G04 #@! TO.N,LINE*
X60661300Y-62370340D03*
G04 #@! TO.P,U1,2*
G04 #@! TO.N,NEUT*
X60661300Y-57370340D03*
G04 #@! TO.P,U1,3*
G04 #@! TO.N,GND*
X31261300Y-67570340D03*
G04 #@! TO.P,U1,4*
G04 #@! TO.N,+3V3*
X31261300Y-52170340D03*
G04 #@! TD*
D11*
G04 #@! TO.N,+3V3*
G04 #@! TO.C,R5*
G36*
X30845905Y-48551804D02*
X30870173Y-48555404D01*
X30893972Y-48561365D01*
X30917071Y-48569630D01*
X30939250Y-48580120D01*
X30960293Y-48592732D01*
X30979999Y-48607347D01*
X30998177Y-48623823D01*
X31014653Y-48642001D01*
X31029268Y-48661707D01*
X31041880Y-48682750D01*
X31052370Y-48704929D01*
X31060635Y-48728028D01*
X31066596Y-48751827D01*
X31070196Y-48776095D01*
X31071400Y-48800599D01*
X31071400Y-49700601D01*
X31070196Y-49725105D01*
X31066596Y-49749373D01*
X31060635Y-49773172D01*
X31052370Y-49796271D01*
X31041880Y-49818450D01*
X31029268Y-49839493D01*
X31014653Y-49859199D01*
X30998177Y-49877377D01*
X30979999Y-49893853D01*
X30960293Y-49908468D01*
X30939250Y-49921080D01*
X30917071Y-49931570D01*
X30893972Y-49939835D01*
X30870173Y-49945796D01*
X30845905Y-49949396D01*
X30821401Y-49950600D01*
X30171399Y-49950600D01*
X30146895Y-49949396D01*
X30122627Y-49945796D01*
X30098828Y-49939835D01*
X30075729Y-49931570D01*
X30053550Y-49921080D01*
X30032507Y-49908468D01*
X30012801Y-49893853D01*
X29994623Y-49877377D01*
X29978147Y-49859199D01*
X29963532Y-49839493D01*
X29950920Y-49818450D01*
X29940430Y-49796271D01*
X29932165Y-49773172D01*
X29926204Y-49749373D01*
X29922604Y-49725105D01*
X29921400Y-49700601D01*
X29921400Y-48800599D01*
X29922604Y-48776095D01*
X29926204Y-48751827D01*
X29932165Y-48728028D01*
X29940430Y-48704929D01*
X29950920Y-48682750D01*
X29963532Y-48661707D01*
X29978147Y-48642001D01*
X29994623Y-48623823D01*
X30012801Y-48607347D01*
X30032507Y-48592732D01*
X30053550Y-48580120D01*
X30075729Y-48569630D01*
X30098828Y-48561365D01*
X30122627Y-48555404D01*
X30146895Y-48551804D01*
X30171399Y-48550600D01*
X30821401Y-48550600D01*
X30845905Y-48551804D01*
X30845905Y-48551804D01*
G37*
D14*
G04 #@! TD*
G04 #@! TO.P,R5,1*
G04 #@! TO.N,+3V3*
X30496400Y-49250600D03*
D11*
G04 #@! TO.N,Net-(R5-Pad2)*
G04 #@! TO.C,R5*
G36*
X32895905Y-48551804D02*
X32920173Y-48555404D01*
X32943972Y-48561365D01*
X32967071Y-48569630D01*
X32989250Y-48580120D01*
X33010293Y-48592732D01*
X33029999Y-48607347D01*
X33048177Y-48623823D01*
X33064653Y-48642001D01*
X33079268Y-48661707D01*
X33091880Y-48682750D01*
X33102370Y-48704929D01*
X33110635Y-48728028D01*
X33116596Y-48751827D01*
X33120196Y-48776095D01*
X33121400Y-48800599D01*
X33121400Y-49700601D01*
X33120196Y-49725105D01*
X33116596Y-49749373D01*
X33110635Y-49773172D01*
X33102370Y-49796271D01*
X33091880Y-49818450D01*
X33079268Y-49839493D01*
X33064653Y-49859199D01*
X33048177Y-49877377D01*
X33029999Y-49893853D01*
X33010293Y-49908468D01*
X32989250Y-49921080D01*
X32967071Y-49931570D01*
X32943972Y-49939835D01*
X32920173Y-49945796D01*
X32895905Y-49949396D01*
X32871401Y-49950600D01*
X32221399Y-49950600D01*
X32196895Y-49949396D01*
X32172627Y-49945796D01*
X32148828Y-49939835D01*
X32125729Y-49931570D01*
X32103550Y-49921080D01*
X32082507Y-49908468D01*
X32062801Y-49893853D01*
X32044623Y-49877377D01*
X32028147Y-49859199D01*
X32013532Y-49839493D01*
X32000920Y-49818450D01*
X31990430Y-49796271D01*
X31982165Y-49773172D01*
X31976204Y-49749373D01*
X31972604Y-49725105D01*
X31971400Y-49700601D01*
X31971400Y-48800599D01*
X31972604Y-48776095D01*
X31976204Y-48751827D01*
X31982165Y-48728028D01*
X31990430Y-48704929D01*
X32000920Y-48682750D01*
X32013532Y-48661707D01*
X32028147Y-48642001D01*
X32044623Y-48623823D01*
X32062801Y-48607347D01*
X32082507Y-48592732D01*
X32103550Y-48580120D01*
X32125729Y-48569630D01*
X32148828Y-48561365D01*
X32172627Y-48555404D01*
X32196895Y-48551804D01*
X32221399Y-48550600D01*
X32871401Y-48550600D01*
X32895905Y-48551804D01*
X32895905Y-48551804D01*
G37*
D14*
G04 #@! TD*
G04 #@! TO.P,R5,2*
G04 #@! TO.N,Net-(R5-Pad2)*
X32546400Y-49250600D03*
D21*
G04 #@! TO.P,J3,5*
G04 #@! TO.N,Net-(J3-Pad5)*
X31254700Y-33197800D03*
G04 #@! TO.P,J3,4*
G04 #@! TO.N,Net-(J3-Pad4)*
X31254700Y-35737800D03*
G04 #@! TO.P,J3,3*
G04 #@! TO.N,GND*
X31254700Y-38277800D03*
G04 #@! TO.P,J3,2*
G04 #@! TO.N,N/C*
X31254700Y-40817800D03*
D22*
G04 #@! TO.P,J3,1*
G04 #@! TO.N,+3V3*
X31254700Y-43357800D03*
G04 #@! TD*
D26*
G04 #@! TO.P,Q1,1*
G04 #@! TO.N,Net-(J1-Pad5)*
X58836560Y-28178760D03*
D27*
G04 #@! TO.P,Q1,2*
G04 #@! TO.N,LINE*
X55105300Y-30124400D03*
G04 #@! TO.P,Q1,3*
G04 #@! TO.N,Net-(Q1-Pad3)*
X51706780Y-28196540D03*
G04 #@! TD*
G04 #@! TO.P,Q2,3*
G04 #@! TO.N,Net-(Q2-Pad3)*
X51757580Y-38846760D03*
G04 #@! TO.P,Q2,2*
G04 #@! TO.N,LINE*
X55123080Y-40878760D03*
D26*
G04 #@! TO.P,Q2,1*
G04 #@! TO.N,Net-(J1-Pad4)*
X58864500Y-38834060D03*
G04 #@! TD*
D11*
G04 #@! TO.N,Net-(D1-Pad2)*
G04 #@! TO.C,R9*
G36*
X53957365Y-69701204D02*
X53981633Y-69704804D01*
X54005432Y-69710765D01*
X54028531Y-69719030D01*
X54050710Y-69729520D01*
X54071753Y-69742132D01*
X54091459Y-69756747D01*
X54109637Y-69773223D01*
X54126113Y-69791401D01*
X54140728Y-69811107D01*
X54153340Y-69832150D01*
X54163830Y-69854329D01*
X54172095Y-69877428D01*
X54178056Y-69901227D01*
X54181656Y-69925495D01*
X54182860Y-69949999D01*
X54182860Y-70850001D01*
X54181656Y-70874505D01*
X54178056Y-70898773D01*
X54172095Y-70922572D01*
X54163830Y-70945671D01*
X54153340Y-70967850D01*
X54140728Y-70988893D01*
X54126113Y-71008599D01*
X54109637Y-71026777D01*
X54091459Y-71043253D01*
X54071753Y-71057868D01*
X54050710Y-71070480D01*
X54028531Y-71080970D01*
X54005432Y-71089235D01*
X53981633Y-71095196D01*
X53957365Y-71098796D01*
X53932861Y-71100000D01*
X53282859Y-71100000D01*
X53258355Y-71098796D01*
X53234087Y-71095196D01*
X53210288Y-71089235D01*
X53187189Y-71080970D01*
X53165010Y-71070480D01*
X53143967Y-71057868D01*
X53124261Y-71043253D01*
X53106083Y-71026777D01*
X53089607Y-71008599D01*
X53074992Y-70988893D01*
X53062380Y-70967850D01*
X53051890Y-70945671D01*
X53043625Y-70922572D01*
X53037664Y-70898773D01*
X53034064Y-70874505D01*
X53032860Y-70850001D01*
X53032860Y-69949999D01*
X53034064Y-69925495D01*
X53037664Y-69901227D01*
X53043625Y-69877428D01*
X53051890Y-69854329D01*
X53062380Y-69832150D01*
X53074992Y-69811107D01*
X53089607Y-69791401D01*
X53106083Y-69773223D01*
X53124261Y-69756747D01*
X53143967Y-69742132D01*
X53165010Y-69729520D01*
X53187189Y-69719030D01*
X53210288Y-69710765D01*
X53234087Y-69704804D01*
X53258355Y-69701204D01*
X53282859Y-69700000D01*
X53932861Y-69700000D01*
X53957365Y-69701204D01*
X53957365Y-69701204D01*
G37*
D14*
G04 #@! TD*
G04 #@! TO.P,R9,2*
G04 #@! TO.N,Net-(D1-Pad2)*
X53607860Y-70400000D03*
D11*
G04 #@! TO.N,Net-(C2-Pad1)*
G04 #@! TO.C,R9*
G36*
X56007365Y-69701204D02*
X56031633Y-69704804D01*
X56055432Y-69710765D01*
X56078531Y-69719030D01*
X56100710Y-69729520D01*
X56121753Y-69742132D01*
X56141459Y-69756747D01*
X56159637Y-69773223D01*
X56176113Y-69791401D01*
X56190728Y-69811107D01*
X56203340Y-69832150D01*
X56213830Y-69854329D01*
X56222095Y-69877428D01*
X56228056Y-69901227D01*
X56231656Y-69925495D01*
X56232860Y-69949999D01*
X56232860Y-70850001D01*
X56231656Y-70874505D01*
X56228056Y-70898773D01*
X56222095Y-70922572D01*
X56213830Y-70945671D01*
X56203340Y-70967850D01*
X56190728Y-70988893D01*
X56176113Y-71008599D01*
X56159637Y-71026777D01*
X56141459Y-71043253D01*
X56121753Y-71057868D01*
X56100710Y-71070480D01*
X56078531Y-71080970D01*
X56055432Y-71089235D01*
X56031633Y-71095196D01*
X56007365Y-71098796D01*
X55982861Y-71100000D01*
X55332859Y-71100000D01*
X55308355Y-71098796D01*
X55284087Y-71095196D01*
X55260288Y-71089235D01*
X55237189Y-71080970D01*
X55215010Y-71070480D01*
X55193967Y-71057868D01*
X55174261Y-71043253D01*
X55156083Y-71026777D01*
X55139607Y-71008599D01*
X55124992Y-70988893D01*
X55112380Y-70967850D01*
X55101890Y-70945671D01*
X55093625Y-70922572D01*
X55087664Y-70898773D01*
X55084064Y-70874505D01*
X55082860Y-70850001D01*
X55082860Y-69949999D01*
X55084064Y-69925495D01*
X55087664Y-69901227D01*
X55093625Y-69877428D01*
X55101890Y-69854329D01*
X55112380Y-69832150D01*
X55124992Y-69811107D01*
X55139607Y-69791401D01*
X55156083Y-69773223D01*
X55174261Y-69756747D01*
X55193967Y-69742132D01*
X55215010Y-69729520D01*
X55237189Y-69719030D01*
X55260288Y-69710765D01*
X55284087Y-69704804D01*
X55308355Y-69701204D01*
X55332859Y-69700000D01*
X55982861Y-69700000D01*
X56007365Y-69701204D01*
X56007365Y-69701204D01*
G37*
D14*
G04 #@! TD*
G04 #@! TO.P,R9,1*
G04 #@! TO.N,Net-(C2-Pad1)*
X55657860Y-70400000D03*
D28*
G04 #@! TO.P,D2,1*
G04 #@! TO.N,Net-(C1-Pad1)*
X53367940Y-62251260D03*
G04 #@! TO.P,D2,2*
G04 #@! TO.N,Net-(C1-Pad2)*
X55907940Y-62251260D03*
G04 #@! TO.P,D2,3*
G04 #@! TO.N,Net-(C2-Pad1)*
X55907940Y-68401260D03*
G04 #@! TO.P,D2,4*
G04 #@! TO.N,Net-(D1-Pad2)*
X53367940Y-68401260D03*
G04 #@! TD*
D29*
G04 #@! TO.P,U6,1*
G04 #@! TO.N,+3V3*
X29743400Y-57510700D03*
G04 #@! TO.P,U6,2*
G04 #@! TO.N,Net-(R5-Pad2)*
X31013400Y-57510700D03*
G04 #@! TO.P,U6,3*
G04 #@! TO.N,Net-(J2-Pad1)*
X32283400Y-57510700D03*
G04 #@! TO.P,U6,4*
G04 #@! TO.N,Net-(R3-Pad1)*
X33553400Y-57510700D03*
G04 #@! TO.P,U6,5*
G04 #@! TO.N,Net-(R4-Pad1)*
X34823400Y-57510700D03*
G04 #@! TO.P,U6,6*
G04 #@! TO.N,Net-(J3-Pad4)*
X36093400Y-57510700D03*
G04 #@! TO.P,U6,7*
G04 #@! TO.N,Net-(J3-Pad5)*
X37363400Y-57510700D03*
G04 #@! TO.P,U6,8*
G04 #@! TO.N,Net-(R14-Pad1)*
X37363400Y-62910700D03*
G04 #@! TO.P,U6,9*
G04 #@! TO.N,N/C*
X36093400Y-62910700D03*
G04 #@! TO.P,U6,10*
G04 #@! TO.N,Net-(J5-Pad4)*
X34823400Y-62910700D03*
G04 #@! TO.P,U6,11*
G04 #@! TO.N,Net-(J5-Pad3)*
X33553400Y-62910700D03*
G04 #@! TO.P,U6,12*
G04 #@! TO.N,Net-(J5-Pad2)*
X32283400Y-62910700D03*
G04 #@! TO.P,U6,13*
G04 #@! TO.N,Net-(J5-Pad1)*
X31013400Y-62910700D03*
G04 #@! TO.P,U6,14*
G04 #@! TO.N,GND*
X29743400Y-62910700D03*
G04 #@! TD*
D22*
G04 #@! TO.P,J4,1*
G04 #@! TO.N,N/C*
X71437500Y-56769000D03*
D21*
G04 #@! TO.P,J4,2*
X71437500Y-59309000D03*
G04 #@! TO.P,J4,3*
X71437500Y-61849000D03*
G04 #@! TO.P,J4,4*
X71437500Y-64389000D03*
G04 #@! TO.P,J4,5*
X71437500Y-66929000D03*
G04 #@! TD*
D10*
G04 #@! TO.P,U7,1*
G04 #@! TO.N,Net-(C8-Pad2)*
X47459900Y-49377600D03*
G04 #@! TO.P,U7,4*
G04 #@! TO.N,GND*
X39839900Y-54457600D03*
G04 #@! TO.P,U7,2*
G04 #@! TO.N,Net-(R10-Pad2)*
X47459900Y-51917600D03*
G04 #@! TO.P,U7,5*
G04 #@! TO.N,N/C*
X39839900Y-51917600D03*
G04 #@! TO.P,U7,3*
X47459900Y-54457600D03*
G04 #@! TO.P,U7,6*
G04 #@! TO.N,Net-(R14-Pad1)*
X39839900Y-49377600D03*
G04 #@! TD*
D30*
G04 #@! TO.N,GND*
X38463220Y-54208680D03*
X42082720Y-65204340D03*
G04 #@! TO.N,LINE*
X56266080Y-53436520D03*
G04 #@! TO.N,Net-(C2-Pad2)*
X51107340Y-67755160D03*
G04 #@! TO.N,Net-(D1-Pad2)*
X52009040Y-70582220D03*
X58707020Y-68714620D03*
G04 #@! TO.N,Net-(Q5-Pad3)*
X47195740Y-69614680D03*
X49237900Y-60545980D03*
G04 #@! TO.N,Net-(J3-Pad5)*
X37401500Y-58978800D03*
G04 #@! TO.N,Net-(J3-Pad4)*
X36131500Y-58966100D03*
G04 #@! TO.N,Net-(J5-Pad4)*
X39203400Y-65151000D03*
G04 #@! TO.N,Net-(R14-Pad1)*
X37426900Y-61468000D03*
X32900620Y-45095160D03*
X39824660Y-48074580D03*
G04 #@! TD*
D31*
G04 #@! TO.N,GND*
X39095680Y-54208680D02*
X39839900Y-54952900D01*
X38463220Y-54208680D02*
X39095680Y-54208680D01*
X39886400Y-41465500D02*
X39937200Y-41516300D01*
X39776400Y-41465500D02*
X39886400Y-41465500D01*
X39590980Y-54208680D02*
X39839900Y-54457600D01*
X38463220Y-54208680D02*
X39590980Y-54208680D01*
G04 #@! TO.N,Net-(R1-Pad1)*
X55218000Y-33769300D02*
X52871700Y-33769300D01*
G04 #@! TO.N,+3V3*
X29806900Y-54333400D02*
X31413700Y-52726600D01*
X29806900Y-57498000D02*
X29806900Y-54333400D01*
X30471000Y-49225200D02*
X30496400Y-49250600D01*
X30471000Y-46685200D02*
X30471000Y-49225200D01*
X30496400Y-51809300D02*
X31413700Y-52726600D01*
X30496400Y-49250600D02*
X30496400Y-51809300D01*
X30471000Y-44141500D02*
X31254700Y-43357800D01*
X30471000Y-46685200D02*
X30471000Y-44141500D01*
G04 #@! TO.N,LINE*
X58193000Y-31453200D02*
X58193000Y-31711900D01*
X58193000Y-31711900D02*
X58193000Y-33769300D01*
X58129500Y-42133900D02*
X58129500Y-44488100D01*
X55346600Y-40703500D02*
X55389780Y-40703500D01*
X56365140Y-41678860D02*
X57674460Y-41678860D01*
X55389780Y-40703500D02*
X56365140Y-41678860D01*
X57674460Y-41678860D02*
X58129500Y-42133900D01*
X55384700Y-29997400D02*
X55384700Y-30015180D01*
X56850640Y-54900500D02*
X56134000Y-54900500D01*
X56134000Y-54900500D02*
X56502300Y-54900500D01*
X56649620Y-54755720D02*
X56266080Y-53436520D01*
X55384700Y-29997400D02*
X55394860Y-29997400D01*
X56125160Y-30727700D02*
X57467500Y-30727700D01*
X55394860Y-29997400D02*
X56125160Y-30727700D01*
X57467500Y-30727700D02*
X58193000Y-31453200D01*
X56266080Y-53436520D02*
X56266080Y-53436520D01*
G04 #@! TO.N,NEUT*
X65849500Y-46816000D02*
X65210700Y-46816000D01*
X65210700Y-46816000D02*
X62344300Y-49682400D01*
X60813700Y-51213000D02*
X61871860Y-50154840D01*
X60813700Y-57926600D02*
X60813700Y-51213000D01*
X61871860Y-50154840D02*
X62344300Y-49682400D01*
X53681147Y-51235153D02*
X60791547Y-51235153D01*
X60791547Y-51235153D02*
X61264800Y-50761900D01*
X52909800Y-52006500D02*
X53681147Y-51235153D01*
X61264800Y-50761900D02*
X61871860Y-50154840D01*
X52684680Y-52231620D02*
X52909800Y-52006500D01*
X52684680Y-55131640D02*
X52684680Y-52231620D01*
G04 #@! TO.N,Net-(Q1-Pad3)*
X51749960Y-28321000D02*
X51986180Y-28084780D01*
X47472600Y-28321000D02*
X51749960Y-28321000D01*
G04 #@! TO.N,Net-(Q2-Pad3)*
X47650400Y-38671500D02*
X47396400Y-38925500D01*
X51981100Y-38671500D02*
X47650400Y-38671500D01*
G04 #@! TO.N,Net-(R3-Pad2)*
X37362020Y-33401000D02*
X37119560Y-33643460D01*
X39852600Y-33401000D02*
X37362020Y-33401000D01*
G04 #@! TO.N,Net-(R4-Pad2)*
X40699800Y-44656900D02*
X40716200Y-44640500D01*
X40653860Y-44578160D02*
X40716200Y-44640500D01*
X37593160Y-44005500D02*
X37114480Y-44484180D01*
X39776400Y-44005500D02*
X37593160Y-44005500D01*
G04 #@! TO.N,Net-(C1-Pad1)*
X52989480Y-59534120D02*
X53340940Y-59885580D01*
X52989480Y-57743420D02*
X52989480Y-59534120D01*
X53036140Y-62216640D02*
X53329840Y-62510340D01*
X53036140Y-60248800D02*
X53036140Y-62216640D01*
G04 #@! TO.N,Net-(C1-Pad2)*
X56011140Y-62369040D02*
X55869840Y-62510340D01*
X56011140Y-60248800D02*
X56011140Y-62369040D01*
X56344820Y-59915120D02*
X56011140Y-60248800D01*
X56344820Y-58093940D02*
X56344820Y-59915120D01*
G04 #@! TO.N,Net-(C2-Pad1)*
X55869840Y-70318740D02*
X55657860Y-70530720D01*
X55869840Y-68660340D02*
X55869840Y-70318740D01*
X55869840Y-68660340D02*
X55869840Y-67760340D01*
X55869840Y-67760340D02*
X56848500Y-66781680D01*
X48787160Y-66466720D02*
X56533540Y-66466720D01*
X65641220Y-66781680D02*
X65412620Y-66781680D01*
X65097660Y-66466720D02*
X64326260Y-66466720D01*
X65412620Y-66781680D02*
X65097660Y-66466720D01*
X56875680Y-66781680D02*
X57190640Y-66466720D01*
X56848500Y-66781680D02*
X56875680Y-66781680D01*
X56533540Y-66466720D02*
X57190640Y-66466720D01*
X57190640Y-66466720D02*
X64326260Y-66466720D01*
G04 #@! TO.N,Net-(C2-Pad2)*
X64062361Y-70360540D02*
X65641220Y-68781681D01*
X62013100Y-70360540D02*
X64062361Y-70360540D01*
X50585880Y-68276620D02*
X51107340Y-67755160D01*
X50585880Y-68682220D02*
X50585880Y-68276620D01*
G04 #@! TO.N,Net-(D1-Pad2)*
X53634640Y-70079980D02*
X53976160Y-70421500D01*
X53634640Y-68297120D02*
X53634640Y-70079980D01*
X50585880Y-70582220D02*
X52009040Y-70582220D01*
X58713100Y-69360540D02*
X58707020Y-69354460D01*
X58713100Y-70360540D02*
X58713100Y-69360540D01*
X58707020Y-69354460D02*
X58707020Y-68714620D01*
X58707020Y-68714620D02*
X58707020Y-68714620D01*
X53425640Y-70582220D02*
X53607860Y-70400000D01*
X52009040Y-70582220D02*
X53425640Y-70582220D01*
G04 #@! TO.N,Net-(Q5-Pad3)*
X47543720Y-60545980D02*
X47467520Y-60622180D01*
X49237900Y-60545980D02*
X47543720Y-60545980D01*
X48570640Y-69616980D02*
X48585880Y-69632220D01*
X47195740Y-69616980D02*
X48570640Y-69616980D01*
G04 #@! TO.N,Net-(R8-Pad1)*
X45506640Y-58082180D02*
X47467520Y-58082180D01*
X45257720Y-64987280D02*
X45451920Y-65181480D01*
X45257720Y-58331100D02*
X45257720Y-64987280D01*
X46737160Y-66466720D02*
X45451920Y-65181480D01*
X45257720Y-58331100D02*
X45506640Y-58082180D01*
G04 #@! TO.N,Net-(R3-Pad1)*
X35501580Y-53858160D02*
X35501580Y-37311440D01*
X33616900Y-57498000D02*
X33616900Y-55742840D01*
X35501580Y-37311440D02*
X37119560Y-35693460D01*
X33616900Y-55742840D02*
X35501580Y-53858160D01*
G04 #@! TO.N,Net-(R4-Pad1)*
X34886900Y-55620920D02*
X35181540Y-55326280D01*
X34886900Y-55620920D02*
X34932620Y-55575200D01*
X34886900Y-57498000D02*
X34886900Y-55620920D01*
X35181540Y-55326280D02*
X35135820Y-55372000D01*
X35135820Y-55372000D02*
X34932620Y-55575200D01*
X36619180Y-53888640D02*
X35135820Y-55372000D01*
X36619180Y-47399680D02*
X36619180Y-48011080D01*
X37150040Y-46868820D02*
X36619180Y-47399680D01*
X37150040Y-46193820D02*
X37150040Y-46868820D01*
X36619180Y-48011080D02*
X36619180Y-53888640D01*
G04 #@! TO.N,Net-(R5-Pad2)*
X31076900Y-56047640D02*
X31076900Y-57498000D01*
X33500060Y-53624480D02*
X31076900Y-56047640D01*
X32546400Y-49250600D02*
X33500060Y-50204260D01*
X33500060Y-50204260D02*
X33500060Y-53624480D01*
X31076900Y-59067700D02*
X31838900Y-59829700D01*
X31076900Y-57498000D02*
X31076900Y-59067700D01*
X31838900Y-59829700D02*
X31838900Y-59857640D01*
X32197040Y-60187840D02*
X31076900Y-59067700D01*
X37797280Y-60187840D02*
X34808160Y-60187840D01*
X38478000Y-60868560D02*
X37797280Y-60187840D01*
X39878000Y-60868560D02*
X38478000Y-60868560D01*
X34808160Y-60187840D02*
X32197040Y-60187840D01*
G04 #@! TO.N,Net-(J2-Pad1)*
X32346900Y-55874920D02*
X32346900Y-57498000D01*
X34419540Y-33286700D02*
X34419540Y-53802280D01*
X34419540Y-53802280D02*
X32346900Y-55874920D01*
X36578540Y-31127700D02*
X34419540Y-33286700D01*
X36578540Y-30467300D02*
X36578540Y-31127700D01*
G04 #@! TO.N,Net-(J3-Pad5)*
X37426900Y-58953400D02*
X37401500Y-58978800D01*
X37426900Y-57498000D02*
X37426900Y-58953400D01*
G04 #@! TO.N,Net-(J3-Pad4)*
X36156900Y-58940700D02*
X36131500Y-58966100D01*
X36156900Y-57498000D02*
X36156900Y-58940700D01*
G04 #@! TO.N,Net-(J5-Pad4)*
X39203400Y-65151000D02*
X39203400Y-65151000D01*
X39203400Y-65151000D02*
X39203400Y-65151000D01*
X34886900Y-64048000D02*
X34886900Y-62898000D01*
X35689901Y-64851001D02*
X34886900Y-64048000D01*
X42316400Y-68264000D02*
X41834840Y-67782440D01*
X41834840Y-67782440D02*
X39203400Y-65151000D01*
X42316400Y-69019000D02*
X42316400Y-68264000D01*
X39203400Y-65151000D02*
X38903401Y-64851001D01*
X38903401Y-64851001D02*
X35689901Y-64851001D01*
G04 #@! TO.N,Net-(J5-Pad3)*
X33616900Y-64048000D02*
X33616900Y-62898000D01*
X35212020Y-65643120D02*
X33616900Y-64048000D01*
X37343080Y-65643120D02*
X35212020Y-65643120D01*
X39776400Y-68076440D02*
X37343080Y-65643120D01*
X39776400Y-69019000D02*
X39776400Y-68076440D01*
G04 #@! TO.N,Net-(J5-Pad2)*
X37236400Y-67364000D02*
X37236400Y-69019000D01*
X36415320Y-66542920D02*
X37236400Y-67364000D01*
X34765620Y-66542920D02*
X36415320Y-66542920D01*
X32283400Y-64060700D02*
X34765620Y-66542920D01*
X32283400Y-62910700D02*
X32283400Y-64060700D01*
G04 #@! TO.N,Net-(J5-Pad1)*
X34696400Y-68264000D02*
X34696400Y-69019000D01*
X34696400Y-67743700D02*
X34696400Y-68264000D01*
X31013400Y-64060700D02*
X34696400Y-67743700D01*
X31013400Y-62910700D02*
X31013400Y-64060700D01*
G04 #@! TO.N,Net-(C8-Pad2)*
X48247300Y-48590200D02*
X47459900Y-49377600D01*
X49884000Y-48590200D02*
X48247300Y-48590200D01*
G04 #@! TO.N,Net-(R10-Pad2)*
X49845900Y-51917600D02*
X49934800Y-52006500D01*
X47459900Y-51917600D02*
X49845900Y-51917600D01*
G04 #@! TO.N,Net-(R14-Pad1)*
X37426900Y-62898000D02*
X37426900Y-61468000D01*
X37426900Y-61748000D02*
X37426900Y-61468000D01*
X37426900Y-61468000D02*
X37426900Y-61748000D01*
X37426900Y-61468000D02*
X37426900Y-61468000D01*
X32533700Y-45462080D02*
X32900620Y-45095160D01*
X32533700Y-46482000D02*
X32533700Y-45462080D01*
X39824660Y-49857660D02*
X39839900Y-49872900D01*
X39824660Y-48074580D02*
X39824660Y-49857660D01*
G04 #@! TO.N,SW_1_LINE*
X52820900Y-48361600D02*
X59334400Y-48361600D01*
X59334400Y-48331100D02*
X65849500Y-41816000D01*
X59334400Y-48361600D02*
X59334400Y-48331100D01*
G04 #@! TO.N,Net-(R17-Pad1)*
X52859000Y-44488100D02*
X55154500Y-44488100D01*
G04 #@! TO.N,Net-(R16-Pad2)*
X47840900Y-33769300D02*
X47472600Y-33401000D01*
X49896700Y-33769300D02*
X47840900Y-33769300D01*
G04 #@! TO.N,Net-(R17-Pad2)*
X49401400Y-44005500D02*
X49884000Y-44488100D01*
X47396400Y-44005500D02*
X49401400Y-44005500D01*
G04 #@! TD*
D32*
G04 #@! TO.N,GND*
G36*
X30241901Y-58985462D02*
X30225543Y-59067700D01*
X30290348Y-59393500D01*
X30364115Y-59503899D01*
X30474900Y-59669701D01*
X30544618Y-59716285D01*
X31134052Y-60305719D01*
X31236899Y-60459641D01*
X31390819Y-60562487D01*
X31548455Y-60720122D01*
X31595039Y-60789841D01*
X31871239Y-60974392D01*
X32114803Y-61022840D01*
X32114806Y-61022840D01*
X32197039Y-61039197D01*
X32279272Y-61022840D01*
X36599254Y-61022840D01*
X36491900Y-61282017D01*
X36491900Y-61532853D01*
X36393400Y-61513260D01*
X35793400Y-61513260D01*
X35545635Y-61562543D01*
X35458400Y-61620832D01*
X35371165Y-61562543D01*
X35123400Y-61513260D01*
X34523400Y-61513260D01*
X34275635Y-61562543D01*
X34188400Y-61620832D01*
X34101165Y-61562543D01*
X33853400Y-61513260D01*
X33253400Y-61513260D01*
X33005635Y-61562543D01*
X32918400Y-61620832D01*
X32831165Y-61562543D01*
X32583400Y-61513260D01*
X31983400Y-61513260D01*
X31735635Y-61562543D01*
X31648400Y-61620832D01*
X31561165Y-61562543D01*
X31313400Y-61513260D01*
X30713400Y-61513260D01*
X30465635Y-61562543D01*
X30386428Y-61615468D01*
X30169710Y-61525700D01*
X30029150Y-61525700D01*
X29870400Y-61684450D01*
X29870400Y-62783700D01*
X29890400Y-62783700D01*
X29890400Y-63037700D01*
X29870400Y-63037700D01*
X29870400Y-64136950D01*
X30029150Y-64295700D01*
X30169710Y-64295700D01*
X30205812Y-64280746D01*
X30226848Y-64386500D01*
X30226849Y-64386501D01*
X30411400Y-64662701D01*
X30481118Y-64709285D01*
X31625321Y-65853488D01*
X31549707Y-65825017D01*
X30859847Y-65847504D01*
X30326941Y-66068241D01*
X30216037Y-66345472D01*
X31261300Y-67390735D01*
X31275443Y-67376593D01*
X31455048Y-67556198D01*
X31440905Y-67570340D01*
X32486168Y-68615603D01*
X32763399Y-68504699D01*
X33006623Y-67858747D01*
X32985599Y-67213767D01*
X33861400Y-68089568D01*
X33861400Y-68266398D01*
X33814015Y-68275823D01*
X33603971Y-68416171D01*
X33463623Y-68626215D01*
X33414340Y-68873980D01*
X33414340Y-70920540D01*
X30745947Y-70920540D01*
X29272300Y-69446894D01*
X29272300Y-68795208D01*
X30216037Y-68795208D01*
X30326941Y-69072439D01*
X30972893Y-69315663D01*
X31662753Y-69293176D01*
X32195659Y-69072439D01*
X32306563Y-68795208D01*
X31261300Y-67749945D01*
X30216037Y-68795208D01*
X29272300Y-68795208D01*
X29272300Y-67281933D01*
X29515977Y-67281933D01*
X29538464Y-67971793D01*
X29759201Y-68504699D01*
X30036432Y-68615603D01*
X31081695Y-67570340D01*
X30036432Y-66525077D01*
X29759201Y-66635981D01*
X29515977Y-67281933D01*
X29272300Y-67281933D01*
X29272300Y-64277147D01*
X29317090Y-64295700D01*
X29457650Y-64295700D01*
X29616400Y-64136950D01*
X29616400Y-63037700D01*
X29596400Y-63037700D01*
X29596400Y-62783700D01*
X29616400Y-62783700D01*
X29616400Y-61684450D01*
X29457650Y-61525700D01*
X29317090Y-61525700D01*
X29272300Y-61544253D01*
X29272300Y-58874106D01*
X29443400Y-58908140D01*
X30043400Y-58908140D01*
X30241901Y-58868656D01*
X30241901Y-58985462D01*
X30241901Y-58985462D01*
G37*
X30241901Y-58985462D02*
X30225543Y-59067700D01*
X30290348Y-59393500D01*
X30364115Y-59503899D01*
X30474900Y-59669701D01*
X30544618Y-59716285D01*
X31134052Y-60305719D01*
X31236899Y-60459641D01*
X31390819Y-60562487D01*
X31548455Y-60720122D01*
X31595039Y-60789841D01*
X31871239Y-60974392D01*
X32114803Y-61022840D01*
X32114806Y-61022840D01*
X32197039Y-61039197D01*
X32279272Y-61022840D01*
X36599254Y-61022840D01*
X36491900Y-61282017D01*
X36491900Y-61532853D01*
X36393400Y-61513260D01*
X35793400Y-61513260D01*
X35545635Y-61562543D01*
X35458400Y-61620832D01*
X35371165Y-61562543D01*
X35123400Y-61513260D01*
X34523400Y-61513260D01*
X34275635Y-61562543D01*
X34188400Y-61620832D01*
X34101165Y-61562543D01*
X33853400Y-61513260D01*
X33253400Y-61513260D01*
X33005635Y-61562543D01*
X32918400Y-61620832D01*
X32831165Y-61562543D01*
X32583400Y-61513260D01*
X31983400Y-61513260D01*
X31735635Y-61562543D01*
X31648400Y-61620832D01*
X31561165Y-61562543D01*
X31313400Y-61513260D01*
X30713400Y-61513260D01*
X30465635Y-61562543D01*
X30386428Y-61615468D01*
X30169710Y-61525700D01*
X30029150Y-61525700D01*
X29870400Y-61684450D01*
X29870400Y-62783700D01*
X29890400Y-62783700D01*
X29890400Y-63037700D01*
X29870400Y-63037700D01*
X29870400Y-64136950D01*
X30029150Y-64295700D01*
X30169710Y-64295700D01*
X30205812Y-64280746D01*
X30226848Y-64386500D01*
X30226849Y-64386501D01*
X30411400Y-64662701D01*
X30481118Y-64709285D01*
X31625321Y-65853488D01*
X31549707Y-65825017D01*
X30859847Y-65847504D01*
X30326941Y-66068241D01*
X30216037Y-66345472D01*
X31261300Y-67390735D01*
X31275443Y-67376593D01*
X31455048Y-67556198D01*
X31440905Y-67570340D01*
X32486168Y-68615603D01*
X32763399Y-68504699D01*
X33006623Y-67858747D01*
X32985599Y-67213767D01*
X33861400Y-68089568D01*
X33861400Y-68266398D01*
X33814015Y-68275823D01*
X33603971Y-68416171D01*
X33463623Y-68626215D01*
X33414340Y-68873980D01*
X33414340Y-70920540D01*
X30745947Y-70920540D01*
X29272300Y-69446894D01*
X29272300Y-68795208D01*
X30216037Y-68795208D01*
X30326941Y-69072439D01*
X30972893Y-69315663D01*
X31662753Y-69293176D01*
X32195659Y-69072439D01*
X32306563Y-68795208D01*
X31261300Y-67749945D01*
X30216037Y-68795208D01*
X29272300Y-68795208D01*
X29272300Y-67281933D01*
X29515977Y-67281933D01*
X29538464Y-67971793D01*
X29759201Y-68504699D01*
X30036432Y-68615603D01*
X31081695Y-67570340D01*
X30036432Y-66525077D01*
X29759201Y-66635981D01*
X29515977Y-67281933D01*
X29272300Y-67281933D01*
X29272300Y-64277147D01*
X29317090Y-64295700D01*
X29457650Y-64295700D01*
X29616400Y-64136950D01*
X29616400Y-63037700D01*
X29596400Y-63037700D01*
X29596400Y-62783700D01*
X29616400Y-62783700D01*
X29616400Y-61684450D01*
X29457650Y-61525700D01*
X29317090Y-61525700D01*
X29272300Y-61544253D01*
X29272300Y-58874106D01*
X29443400Y-58908140D01*
X30043400Y-58908140D01*
X30241901Y-58868656D01*
X30241901Y-58985462D01*
G36*
X38254443Y-27183235D02*
X38205160Y-27431000D01*
X38205160Y-29211000D01*
X38254443Y-29458765D01*
X38339505Y-29586069D01*
X38314273Y-29611301D01*
X38217600Y-29844690D01*
X38217600Y-30575250D01*
X38376350Y-30734000D01*
X39725600Y-30734000D01*
X39725600Y-30714000D01*
X39979600Y-30714000D01*
X39979600Y-30734000D01*
X41328850Y-30734000D01*
X41487600Y-30575250D01*
X41487600Y-29844690D01*
X41390927Y-29611301D01*
X41365695Y-29586069D01*
X41450757Y-29458765D01*
X41500040Y-29211000D01*
X41500040Y-27431000D01*
X41450757Y-27183235D01*
X41329409Y-27001626D01*
X42066704Y-27006924D01*
X42067482Y-27062136D01*
X42068279Y-27417937D01*
X42038271Y-27539271D01*
X42028595Y-27553753D01*
X41987400Y-27760855D01*
X41987401Y-34375166D01*
X42028596Y-34582268D01*
X42037808Y-34596055D01*
X42057566Y-34681604D01*
X42084691Y-34741805D01*
X42091451Y-37758363D01*
X42087573Y-37766626D01*
X42043760Y-37943778D01*
X42031135Y-37962673D01*
X41989940Y-38169775D01*
X41989941Y-44784086D01*
X42031136Y-44991188D01*
X42040348Y-45004975D01*
X42060106Y-45090524D01*
X42106410Y-45193291D01*
X42108122Y-45197992D01*
X42115478Y-48480522D01*
X42094197Y-48566567D01*
X42092095Y-48569713D01*
X42086654Y-48597067D01*
X42073972Y-48648345D01*
X42073222Y-48664592D01*
X42050900Y-48776815D01*
X42050901Y-63066781D01*
X42048360Y-63079555D01*
X42048361Y-65937051D01*
X42034451Y-66006980D01*
X42059470Y-66132756D01*
X42089556Y-66284008D01*
X42155594Y-66382841D01*
X42156806Y-66923538D01*
X40096056Y-64862789D01*
X39996055Y-64621365D01*
X39974522Y-64599832D01*
X39974522Y-64528432D01*
X40133270Y-64687180D01*
X40973829Y-64687180D01*
X41207218Y-64590507D01*
X41385847Y-64411879D01*
X41482520Y-64178490D01*
X41482520Y-63447930D01*
X41323770Y-63289180D01*
X39974520Y-63289180D01*
X39974520Y-63309180D01*
X39720520Y-63309180D01*
X39720520Y-63289180D01*
X39700520Y-63289180D01*
X39700520Y-63035180D01*
X39720520Y-63035180D01*
X39720520Y-63015180D01*
X39974520Y-63015180D01*
X39974520Y-63035180D01*
X41323770Y-63035180D01*
X41482520Y-62876430D01*
X41482520Y-62145870D01*
X41385847Y-61912481D01*
X41360615Y-61887249D01*
X41445677Y-61759945D01*
X41494960Y-61512180D01*
X41494960Y-59732180D01*
X41445677Y-59484415D01*
X41357320Y-59352180D01*
X41445677Y-59219945D01*
X41494960Y-58972180D01*
X41494960Y-57192180D01*
X41445677Y-56944415D01*
X41305329Y-56734371D01*
X41095285Y-56594023D01*
X40847520Y-56544740D01*
X38847520Y-56544740D01*
X38599755Y-56594023D01*
X38389711Y-56734371D01*
X38310840Y-56852409D01*
X38310840Y-56760700D01*
X38261557Y-56512935D01*
X38121209Y-56302891D01*
X37911165Y-56162543D01*
X37663400Y-56113260D01*
X37063400Y-56113260D01*
X36815635Y-56162543D01*
X36728400Y-56220832D01*
X36641165Y-56162543D01*
X36393400Y-56113260D01*
X35793400Y-56113260D01*
X35721900Y-56127482D01*
X35721900Y-55966787D01*
X36945337Y-54743350D01*
X38204900Y-54743350D01*
X38204900Y-55473910D01*
X38301573Y-55707299D01*
X38480202Y-55885927D01*
X38713591Y-55982600D01*
X39554150Y-55982600D01*
X39712900Y-55823850D01*
X39712900Y-54584600D01*
X39966900Y-54584600D01*
X39966900Y-55823850D01*
X40125650Y-55982600D01*
X40966209Y-55982600D01*
X41199598Y-55885927D01*
X41378227Y-55707299D01*
X41474900Y-55473910D01*
X41474900Y-54743350D01*
X41316150Y-54584600D01*
X39966900Y-54584600D01*
X39712900Y-54584600D01*
X38363650Y-54584600D01*
X38204900Y-54743350D01*
X36945337Y-54743350D01*
X37151462Y-54537225D01*
X37221181Y-54490641D01*
X37405732Y-54214441D01*
X37454180Y-53970877D01*
X37470538Y-53888640D01*
X37454180Y-53806403D01*
X37454180Y-48487600D01*
X38192460Y-48487600D01*
X38192460Y-50267600D01*
X38241743Y-50515365D01*
X38330100Y-50647600D01*
X38241743Y-50779835D01*
X38192460Y-51027600D01*
X38192460Y-52807600D01*
X38241743Y-53055365D01*
X38326805Y-53182669D01*
X38301573Y-53207901D01*
X38204900Y-53441290D01*
X38204900Y-54171850D01*
X38363650Y-54330600D01*
X39712900Y-54330600D01*
X39712900Y-54310600D01*
X39966900Y-54310600D01*
X39966900Y-54330600D01*
X41316150Y-54330600D01*
X41474900Y-54171850D01*
X41474900Y-53441290D01*
X41378227Y-53207901D01*
X41352995Y-53182669D01*
X41438057Y-53055365D01*
X41487340Y-52807600D01*
X41487340Y-51027600D01*
X41438057Y-50779835D01*
X41349700Y-50647600D01*
X41438057Y-50515365D01*
X41487340Y-50267600D01*
X41487340Y-48487600D01*
X41438057Y-48239835D01*
X41297709Y-48029791D01*
X41087665Y-47889443D01*
X40839900Y-47840160D01*
X40739597Y-47840160D01*
X40617315Y-47544945D01*
X40354295Y-47281925D01*
X40010643Y-47139580D01*
X39638677Y-47139580D01*
X39295025Y-47281925D01*
X39032005Y-47544945D01*
X38909723Y-47840160D01*
X38839900Y-47840160D01*
X38592135Y-47889443D01*
X38382091Y-48029791D01*
X38241743Y-48239835D01*
X38192460Y-48487600D01*
X37454180Y-48487600D01*
X37454180Y-47745547D01*
X37682322Y-47517406D01*
X37752041Y-47470821D01*
X37817384Y-47373028D01*
X37943476Y-47347947D01*
X38234626Y-47153406D01*
X38429167Y-46862256D01*
X38497480Y-46518821D01*
X38497480Y-45868819D01*
X38429167Y-45525384D01*
X38234626Y-45234234D01*
X38136727Y-45168820D01*
X38177859Y-45141336D01*
X38178243Y-45143265D01*
X38318591Y-45353309D01*
X38528635Y-45493657D01*
X38776400Y-45542940D01*
X40776400Y-45542940D01*
X41024165Y-45493657D01*
X41234209Y-45353309D01*
X41300224Y-45254511D01*
X41318200Y-45242500D01*
X41369535Y-45165673D01*
X41502752Y-44966300D01*
X41567557Y-44640501D01*
X41559365Y-44599313D01*
X41502752Y-44314700D01*
X41423840Y-44196600D01*
X41423840Y-43115500D01*
X41374557Y-42867735D01*
X41289495Y-42740431D01*
X41314727Y-42715199D01*
X41411400Y-42481810D01*
X41411400Y-41751250D01*
X41252650Y-41592500D01*
X39903400Y-41592500D01*
X39903400Y-41612500D01*
X39649400Y-41612500D01*
X39649400Y-41592500D01*
X38300150Y-41592500D01*
X38141400Y-41751250D01*
X38141400Y-42481810D01*
X38238073Y-42715199D01*
X38263305Y-42740431D01*
X38178243Y-42867735D01*
X38129288Y-43113849D01*
X37943476Y-42989693D01*
X37600041Y-42921380D01*
X36700039Y-42921380D01*
X36356604Y-42989693D01*
X36336580Y-43003073D01*
X36336580Y-38035500D01*
X38128960Y-38035500D01*
X38128960Y-39815500D01*
X38178243Y-40063265D01*
X38263305Y-40190569D01*
X38238073Y-40215801D01*
X38141400Y-40449190D01*
X38141400Y-41179750D01*
X38300150Y-41338500D01*
X39649400Y-41338500D01*
X39649400Y-41318500D01*
X39903400Y-41318500D01*
X39903400Y-41338500D01*
X41252650Y-41338500D01*
X41411400Y-41179750D01*
X41411400Y-40449190D01*
X41314727Y-40215801D01*
X41289495Y-40190569D01*
X41374557Y-40063265D01*
X41423840Y-39815500D01*
X41423840Y-38035500D01*
X41374557Y-37787735D01*
X41234209Y-37577691D01*
X41024165Y-37437343D01*
X40776400Y-37388060D01*
X38776400Y-37388060D01*
X38528635Y-37437343D01*
X38318591Y-37577691D01*
X38178243Y-37787735D01*
X38128960Y-38035500D01*
X36336580Y-38035500D01*
X36336580Y-37657307D01*
X37077988Y-36915900D01*
X37569561Y-36915900D01*
X37912996Y-36847587D01*
X38204146Y-36653046D01*
X38398687Y-36361896D01*
X38467000Y-36018461D01*
X38467000Y-35368459D01*
X38398687Y-35025024D01*
X38204146Y-34733874D01*
X38106247Y-34668460D01*
X38204146Y-34603046D01*
X38252758Y-34530293D01*
X38254443Y-34538765D01*
X38394791Y-34748809D01*
X38604835Y-34889157D01*
X38852600Y-34938440D01*
X40852600Y-34938440D01*
X41100365Y-34889157D01*
X41310409Y-34748809D01*
X41450757Y-34538765D01*
X41500040Y-34291000D01*
X41500040Y-32511000D01*
X41450757Y-32263235D01*
X41365695Y-32135931D01*
X41390927Y-32110699D01*
X41487600Y-31877310D01*
X41487600Y-31146750D01*
X41328850Y-30988000D01*
X39979600Y-30988000D01*
X39979600Y-31008000D01*
X39725600Y-31008000D01*
X39725600Y-30988000D01*
X38376350Y-30988000D01*
X38217600Y-31146750D01*
X38217600Y-31877310D01*
X38314273Y-32110699D01*
X38339505Y-32135931D01*
X38254443Y-32263235D01*
X38205160Y-32511000D01*
X38205160Y-32566000D01*
X38027736Y-32566000D01*
X37912996Y-32489333D01*
X37569561Y-32421020D01*
X36669559Y-32421020D01*
X36415566Y-32471542D01*
X36922368Y-31964740D01*
X37428540Y-31964740D01*
X37676305Y-31915457D01*
X37886349Y-31775109D01*
X38026697Y-31565065D01*
X38075980Y-31317300D01*
X38075980Y-29617300D01*
X38026697Y-29369535D01*
X37886349Y-29159491D01*
X37676305Y-29019143D01*
X37428540Y-28969860D01*
X35728540Y-28969860D01*
X35480775Y-29019143D01*
X35270731Y-29159491D01*
X35130383Y-29369535D01*
X35121356Y-29414919D01*
X35109165Y-29396675D01*
X34617958Y-29068461D01*
X34184796Y-28982300D01*
X33892284Y-28982300D01*
X33459122Y-29068461D01*
X32967915Y-29396675D01*
X32639701Y-29887882D01*
X32524448Y-30467300D01*
X32639701Y-31046718D01*
X32967915Y-31537925D01*
X33459122Y-31866139D01*
X33892284Y-31952300D01*
X34184796Y-31952300D01*
X34617958Y-31866139D01*
X34742349Y-31783024D01*
X33887260Y-32638113D01*
X33817539Y-32684699D01*
X33632988Y-32960900D01*
X33584540Y-33204464D01*
X33584540Y-33204467D01*
X33568183Y-33286700D01*
X33584540Y-33368933D01*
X33584541Y-44456791D01*
X33430255Y-44302505D01*
X33086603Y-44160160D01*
X32752140Y-44160160D01*
X32752140Y-42507800D01*
X32702857Y-42260035D01*
X32562509Y-42049991D01*
X32352465Y-41909643D01*
X32307081Y-41900616D01*
X32325325Y-41888425D01*
X32653539Y-41397218D01*
X32768792Y-40817800D01*
X32653539Y-40238382D01*
X32325325Y-39747175D01*
X32006222Y-39533957D01*
X32136058Y-39472983D01*
X32526345Y-39044724D01*
X32696176Y-38634690D01*
X32574855Y-38404800D01*
X31381700Y-38404800D01*
X31381700Y-38424800D01*
X31127700Y-38424800D01*
X31127700Y-38404800D01*
X29934545Y-38404800D01*
X29813224Y-38634690D01*
X29983055Y-39044724D01*
X30373342Y-39472983D01*
X30503178Y-39533957D01*
X30184075Y-39747175D01*
X29855861Y-40238382D01*
X29740608Y-40817800D01*
X29855861Y-41397218D01*
X30184075Y-41888425D01*
X30202319Y-41900616D01*
X30156935Y-41909643D01*
X29946891Y-42049991D01*
X29806543Y-42260035D01*
X29757260Y-42507800D01*
X29757260Y-43706730D01*
X29684448Y-43815700D01*
X29619643Y-44141500D01*
X29636001Y-44223738D01*
X29636001Y-45322654D01*
X29524114Y-45397414D01*
X29329573Y-45688564D01*
X29272300Y-45976497D01*
X29272300Y-33197800D01*
X29740608Y-33197800D01*
X29855861Y-33777218D01*
X30184075Y-34268425D01*
X30482461Y-34467800D01*
X30184075Y-34667175D01*
X29855861Y-35158382D01*
X29740608Y-35737800D01*
X29855861Y-36317218D01*
X30184075Y-36808425D01*
X30503178Y-37021643D01*
X30373342Y-37082617D01*
X29983055Y-37510876D01*
X29813224Y-37920910D01*
X29934545Y-38150800D01*
X31127700Y-38150800D01*
X31127700Y-38130800D01*
X31381700Y-38130800D01*
X31381700Y-38150800D01*
X32574855Y-38150800D01*
X32696176Y-37920910D01*
X32526345Y-37510876D01*
X32136058Y-37082617D01*
X32006222Y-37021643D01*
X32325325Y-36808425D01*
X32653539Y-36317218D01*
X32768792Y-35737800D01*
X32653539Y-35158382D01*
X32325325Y-34667175D01*
X32026939Y-34467800D01*
X32325325Y-34268425D01*
X32653539Y-33777218D01*
X32768792Y-33197800D01*
X32653539Y-32618382D01*
X32325325Y-32127175D01*
X31834118Y-31798961D01*
X31400956Y-31712800D01*
X31108444Y-31712800D01*
X30675282Y-31798961D01*
X30184075Y-32127175D01*
X29855861Y-32618382D01*
X29740608Y-33197800D01*
X29272300Y-33197800D01*
X29272300Y-31396390D01*
X29682235Y-30986455D01*
X33707949Y-26999000D01*
X38377546Y-26999000D01*
X38254443Y-27183235D01*
X38254443Y-27183235D01*
G37*
X38254443Y-27183235D02*
X38205160Y-27431000D01*
X38205160Y-29211000D01*
X38254443Y-29458765D01*
X38339505Y-29586069D01*
X38314273Y-29611301D01*
X38217600Y-29844690D01*
X38217600Y-30575250D01*
X38376350Y-30734000D01*
X39725600Y-30734000D01*
X39725600Y-30714000D01*
X39979600Y-30714000D01*
X39979600Y-30734000D01*
X41328850Y-30734000D01*
X41487600Y-30575250D01*
X41487600Y-29844690D01*
X41390927Y-29611301D01*
X41365695Y-29586069D01*
X41450757Y-29458765D01*
X41500040Y-29211000D01*
X41500040Y-27431000D01*
X41450757Y-27183235D01*
X41329409Y-27001626D01*
X42066704Y-27006924D01*
X42067482Y-27062136D01*
X42068279Y-27417937D01*
X42038271Y-27539271D01*
X42028595Y-27553753D01*
X41987400Y-27760855D01*
X41987401Y-34375166D01*
X42028596Y-34582268D01*
X42037808Y-34596055D01*
X42057566Y-34681604D01*
X42084691Y-34741805D01*
X42091451Y-37758363D01*
X42087573Y-37766626D01*
X42043760Y-37943778D01*
X42031135Y-37962673D01*
X41989940Y-38169775D01*
X41989941Y-44784086D01*
X42031136Y-44991188D01*
X42040348Y-45004975D01*
X42060106Y-45090524D01*
X42106410Y-45193291D01*
X42108122Y-45197992D01*
X42115478Y-48480522D01*
X42094197Y-48566567D01*
X42092095Y-48569713D01*
X42086654Y-48597067D01*
X42073972Y-48648345D01*
X42073222Y-48664592D01*
X42050900Y-48776815D01*
X42050901Y-63066781D01*
X42048360Y-63079555D01*
X42048361Y-65937051D01*
X42034451Y-66006980D01*
X42059470Y-66132756D01*
X42089556Y-66284008D01*
X42155594Y-66382841D01*
X42156806Y-66923538D01*
X40096056Y-64862789D01*
X39996055Y-64621365D01*
X39974522Y-64599832D01*
X39974522Y-64528432D01*
X40133270Y-64687180D01*
X40973829Y-64687180D01*
X41207218Y-64590507D01*
X41385847Y-64411879D01*
X41482520Y-64178490D01*
X41482520Y-63447930D01*
X41323770Y-63289180D01*
X39974520Y-63289180D01*
X39974520Y-63309180D01*
X39720520Y-63309180D01*
X39720520Y-63289180D01*
X39700520Y-63289180D01*
X39700520Y-63035180D01*
X39720520Y-63035180D01*
X39720520Y-63015180D01*
X39974520Y-63015180D01*
X39974520Y-63035180D01*
X41323770Y-63035180D01*
X41482520Y-62876430D01*
X41482520Y-62145870D01*
X41385847Y-61912481D01*
X41360615Y-61887249D01*
X41445677Y-61759945D01*
X41494960Y-61512180D01*
X41494960Y-59732180D01*
X41445677Y-59484415D01*
X41357320Y-59352180D01*
X41445677Y-59219945D01*
X41494960Y-58972180D01*
X41494960Y-57192180D01*
X41445677Y-56944415D01*
X41305329Y-56734371D01*
X41095285Y-56594023D01*
X40847520Y-56544740D01*
X38847520Y-56544740D01*
X38599755Y-56594023D01*
X38389711Y-56734371D01*
X38310840Y-56852409D01*
X38310840Y-56760700D01*
X38261557Y-56512935D01*
X38121209Y-56302891D01*
X37911165Y-56162543D01*
X37663400Y-56113260D01*
X37063400Y-56113260D01*
X36815635Y-56162543D01*
X36728400Y-56220832D01*
X36641165Y-56162543D01*
X36393400Y-56113260D01*
X35793400Y-56113260D01*
X35721900Y-56127482D01*
X35721900Y-55966787D01*
X36945337Y-54743350D01*
X38204900Y-54743350D01*
X38204900Y-55473910D01*
X38301573Y-55707299D01*
X38480202Y-55885927D01*
X38713591Y-55982600D01*
X39554150Y-55982600D01*
X39712900Y-55823850D01*
X39712900Y-54584600D01*
X39966900Y-54584600D01*
X39966900Y-55823850D01*
X40125650Y-55982600D01*
X40966209Y-55982600D01*
X41199598Y-55885927D01*
X41378227Y-55707299D01*
X41474900Y-55473910D01*
X41474900Y-54743350D01*
X41316150Y-54584600D01*
X39966900Y-54584600D01*
X39712900Y-54584600D01*
X38363650Y-54584600D01*
X38204900Y-54743350D01*
X36945337Y-54743350D01*
X37151462Y-54537225D01*
X37221181Y-54490641D01*
X37405732Y-54214441D01*
X37454180Y-53970877D01*
X37470538Y-53888640D01*
X37454180Y-53806403D01*
X37454180Y-48487600D01*
X38192460Y-48487600D01*
X38192460Y-50267600D01*
X38241743Y-50515365D01*
X38330100Y-50647600D01*
X38241743Y-50779835D01*
X38192460Y-51027600D01*
X38192460Y-52807600D01*
X38241743Y-53055365D01*
X38326805Y-53182669D01*
X38301573Y-53207901D01*
X38204900Y-53441290D01*
X38204900Y-54171850D01*
X38363650Y-54330600D01*
X39712900Y-54330600D01*
X39712900Y-54310600D01*
X39966900Y-54310600D01*
X39966900Y-54330600D01*
X41316150Y-54330600D01*
X41474900Y-54171850D01*
X41474900Y-53441290D01*
X41378227Y-53207901D01*
X41352995Y-53182669D01*
X41438057Y-53055365D01*
X41487340Y-52807600D01*
X41487340Y-51027600D01*
X41438057Y-50779835D01*
X41349700Y-50647600D01*
X41438057Y-50515365D01*
X41487340Y-50267600D01*
X41487340Y-48487600D01*
X41438057Y-48239835D01*
X41297709Y-48029791D01*
X41087665Y-47889443D01*
X40839900Y-47840160D01*
X40739597Y-47840160D01*
X40617315Y-47544945D01*
X40354295Y-47281925D01*
X40010643Y-47139580D01*
X39638677Y-47139580D01*
X39295025Y-47281925D01*
X39032005Y-47544945D01*
X38909723Y-47840160D01*
X38839900Y-47840160D01*
X38592135Y-47889443D01*
X38382091Y-48029791D01*
X38241743Y-48239835D01*
X38192460Y-48487600D01*
X37454180Y-48487600D01*
X37454180Y-47745547D01*
X37682322Y-47517406D01*
X37752041Y-47470821D01*
X37817384Y-47373028D01*
X37943476Y-47347947D01*
X38234626Y-47153406D01*
X38429167Y-46862256D01*
X38497480Y-46518821D01*
X38497480Y-45868819D01*
X38429167Y-45525384D01*
X38234626Y-45234234D01*
X38136727Y-45168820D01*
X38177859Y-45141336D01*
X38178243Y-45143265D01*
X38318591Y-45353309D01*
X38528635Y-45493657D01*
X38776400Y-45542940D01*
X40776400Y-45542940D01*
X41024165Y-45493657D01*
X41234209Y-45353309D01*
X41300224Y-45254511D01*
X41318200Y-45242500D01*
X41369535Y-45165673D01*
X41502752Y-44966300D01*
X41567557Y-44640501D01*
X41559365Y-44599313D01*
X41502752Y-44314700D01*
X41423840Y-44196600D01*
X41423840Y-43115500D01*
X41374557Y-42867735D01*
X41289495Y-42740431D01*
X41314727Y-42715199D01*
X41411400Y-42481810D01*
X41411400Y-41751250D01*
X41252650Y-41592500D01*
X39903400Y-41592500D01*
X39903400Y-41612500D01*
X39649400Y-41612500D01*
X39649400Y-41592500D01*
X38300150Y-41592500D01*
X38141400Y-41751250D01*
X38141400Y-42481810D01*
X38238073Y-42715199D01*
X38263305Y-42740431D01*
X38178243Y-42867735D01*
X38129288Y-43113849D01*
X37943476Y-42989693D01*
X37600041Y-42921380D01*
X36700039Y-42921380D01*
X36356604Y-42989693D01*
X36336580Y-43003073D01*
X36336580Y-38035500D01*
X38128960Y-38035500D01*
X38128960Y-39815500D01*
X38178243Y-40063265D01*
X38263305Y-40190569D01*
X38238073Y-40215801D01*
X38141400Y-40449190D01*
X38141400Y-41179750D01*
X38300150Y-41338500D01*
X39649400Y-41338500D01*
X39649400Y-41318500D01*
X39903400Y-41318500D01*
X39903400Y-41338500D01*
X41252650Y-41338500D01*
X41411400Y-41179750D01*
X41411400Y-40449190D01*
X41314727Y-40215801D01*
X41289495Y-40190569D01*
X41374557Y-40063265D01*
X41423840Y-39815500D01*
X41423840Y-38035500D01*
X41374557Y-37787735D01*
X41234209Y-37577691D01*
X41024165Y-37437343D01*
X40776400Y-37388060D01*
X38776400Y-37388060D01*
X38528635Y-37437343D01*
X38318591Y-37577691D01*
X38178243Y-37787735D01*
X38128960Y-38035500D01*
X36336580Y-38035500D01*
X36336580Y-37657307D01*
X37077988Y-36915900D01*
X37569561Y-36915900D01*
X37912996Y-36847587D01*
X38204146Y-36653046D01*
X38398687Y-36361896D01*
X38467000Y-36018461D01*
X38467000Y-35368459D01*
X38398687Y-35025024D01*
X38204146Y-34733874D01*
X38106247Y-34668460D01*
X38204146Y-34603046D01*
X38252758Y-34530293D01*
X38254443Y-34538765D01*
X38394791Y-34748809D01*
X38604835Y-34889157D01*
X38852600Y-34938440D01*
X40852600Y-34938440D01*
X41100365Y-34889157D01*
X41310409Y-34748809D01*
X41450757Y-34538765D01*
X41500040Y-34291000D01*
X41500040Y-32511000D01*
X41450757Y-32263235D01*
X41365695Y-32135931D01*
X41390927Y-32110699D01*
X41487600Y-31877310D01*
X41487600Y-31146750D01*
X41328850Y-30988000D01*
X39979600Y-30988000D01*
X39979600Y-31008000D01*
X39725600Y-31008000D01*
X39725600Y-30988000D01*
X38376350Y-30988000D01*
X38217600Y-31146750D01*
X38217600Y-31877310D01*
X38314273Y-32110699D01*
X38339505Y-32135931D01*
X38254443Y-32263235D01*
X38205160Y-32511000D01*
X38205160Y-32566000D01*
X38027736Y-32566000D01*
X37912996Y-32489333D01*
X37569561Y-32421020D01*
X36669559Y-32421020D01*
X36415566Y-32471542D01*
X36922368Y-31964740D01*
X37428540Y-31964740D01*
X37676305Y-31915457D01*
X37886349Y-31775109D01*
X38026697Y-31565065D01*
X38075980Y-31317300D01*
X38075980Y-29617300D01*
X38026697Y-29369535D01*
X37886349Y-29159491D01*
X37676305Y-29019143D01*
X37428540Y-28969860D01*
X35728540Y-28969860D01*
X35480775Y-29019143D01*
X35270731Y-29159491D01*
X35130383Y-29369535D01*
X35121356Y-29414919D01*
X35109165Y-29396675D01*
X34617958Y-29068461D01*
X34184796Y-28982300D01*
X33892284Y-28982300D01*
X33459122Y-29068461D01*
X32967915Y-29396675D01*
X32639701Y-29887882D01*
X32524448Y-30467300D01*
X32639701Y-31046718D01*
X32967915Y-31537925D01*
X33459122Y-31866139D01*
X33892284Y-31952300D01*
X34184796Y-31952300D01*
X34617958Y-31866139D01*
X34742349Y-31783024D01*
X33887260Y-32638113D01*
X33817539Y-32684699D01*
X33632988Y-32960900D01*
X33584540Y-33204464D01*
X33584540Y-33204467D01*
X33568183Y-33286700D01*
X33584540Y-33368933D01*
X33584541Y-44456791D01*
X33430255Y-44302505D01*
X33086603Y-44160160D01*
X32752140Y-44160160D01*
X32752140Y-42507800D01*
X32702857Y-42260035D01*
X32562509Y-42049991D01*
X32352465Y-41909643D01*
X32307081Y-41900616D01*
X32325325Y-41888425D01*
X32653539Y-41397218D01*
X32768792Y-40817800D01*
X32653539Y-40238382D01*
X32325325Y-39747175D01*
X32006222Y-39533957D01*
X32136058Y-39472983D01*
X32526345Y-39044724D01*
X32696176Y-38634690D01*
X32574855Y-38404800D01*
X31381700Y-38404800D01*
X31381700Y-38424800D01*
X31127700Y-38424800D01*
X31127700Y-38404800D01*
X29934545Y-38404800D01*
X29813224Y-38634690D01*
X29983055Y-39044724D01*
X30373342Y-39472983D01*
X30503178Y-39533957D01*
X30184075Y-39747175D01*
X29855861Y-40238382D01*
X29740608Y-40817800D01*
X29855861Y-41397218D01*
X30184075Y-41888425D01*
X30202319Y-41900616D01*
X30156935Y-41909643D01*
X29946891Y-42049991D01*
X29806543Y-42260035D01*
X29757260Y-42507800D01*
X29757260Y-43706730D01*
X29684448Y-43815700D01*
X29619643Y-44141500D01*
X29636001Y-44223738D01*
X29636001Y-45322654D01*
X29524114Y-45397414D01*
X29329573Y-45688564D01*
X29272300Y-45976497D01*
X29272300Y-33197800D01*
X29740608Y-33197800D01*
X29855861Y-33777218D01*
X30184075Y-34268425D01*
X30482461Y-34467800D01*
X30184075Y-34667175D01*
X29855861Y-35158382D01*
X29740608Y-35737800D01*
X29855861Y-36317218D01*
X30184075Y-36808425D01*
X30503178Y-37021643D01*
X30373342Y-37082617D01*
X29983055Y-37510876D01*
X29813224Y-37920910D01*
X29934545Y-38150800D01*
X31127700Y-38150800D01*
X31127700Y-38130800D01*
X31381700Y-38130800D01*
X31381700Y-38150800D01*
X32574855Y-38150800D01*
X32696176Y-37920910D01*
X32526345Y-37510876D01*
X32136058Y-37082617D01*
X32006222Y-37021643D01*
X32325325Y-36808425D01*
X32653539Y-36317218D01*
X32768792Y-35737800D01*
X32653539Y-35158382D01*
X32325325Y-34667175D01*
X32026939Y-34467800D01*
X32325325Y-34268425D01*
X32653539Y-33777218D01*
X32768792Y-33197800D01*
X32653539Y-32618382D01*
X32325325Y-32127175D01*
X31834118Y-31798961D01*
X31400956Y-31712800D01*
X31108444Y-31712800D01*
X30675282Y-31798961D01*
X30184075Y-32127175D01*
X29855861Y-32618382D01*
X29740608Y-33197800D01*
X29272300Y-33197800D01*
X29272300Y-31396390D01*
X29682235Y-30986455D01*
X33707949Y-26999000D01*
X38377546Y-26999000D01*
X38254443Y-27183235D01*
G04 #@! TD*
M02*
