G04 #@! TF.GenerationSoftware,KiCad,Pcbnew,5.0.1*
G04 #@! TF.CreationDate,2019-01-05T16:55:50+01:00*
G04 #@! TF.ProjectId,sensor_board-ac-7 -without-regulator-2,73656E736F725F626F6172642D61632D,V1.2*
G04 #@! TF.SameCoordinates,Original*
G04 #@! TF.FileFunction,Copper,L1,Top,Signal*
G04 #@! TF.FilePolarity,Positive*
%FSLAX46Y46*%
G04 Gerber Fmt 4.6, Leading zero omitted, Abs format (unit mm)*
G04 Created by KiCad (PCBNEW 5.0.1) date Sat 05 Jan 2019 04:55:50 PM CET*
%MOMM*%
%LPD*%
G01*
G04 APERTURE LIST*
G04 #@! TA.AperFunction,Conductor*
%ADD10C,0.100000*%
G04 #@! TD*
G04 #@! TA.AperFunction,SMDPad,CuDef*
%ADD11C,1.425000*%
G04 #@! TD*
G04 #@! TA.AperFunction,ComponentPad*
%ADD12O,2.400000X2.400000*%
G04 #@! TD*
G04 #@! TA.AperFunction,ComponentPad*
%ADD13C,2.400000*%
G04 #@! TD*
G04 #@! TA.AperFunction,ComponentPad*
%ADD14C,2.500000*%
G04 #@! TD*
G04 #@! TA.AperFunction,ComponentPad*
%ADD15R,2.500000X2.500000*%
G04 #@! TD*
G04 #@! TA.AperFunction,ComponentPad*
%ADD16O,1.700000X1.700000*%
G04 #@! TD*
G04 #@! TA.AperFunction,ComponentPad*
%ADD17R,1.700000X1.700000*%
G04 #@! TD*
G04 #@! TA.AperFunction,ComponentPad*
%ADD18C,1.200000*%
G04 #@! TD*
G04 #@! TA.AperFunction,ComponentPad*
%ADD19R,1.200000X1.200000*%
G04 #@! TD*
G04 #@! TA.AperFunction,ComponentPad*
%ADD20C,2.200000*%
G04 #@! TD*
G04 #@! TA.AperFunction,ComponentPad*
%ADD21R,1.905000X2.000000*%
G04 #@! TD*
G04 #@! TA.AperFunction,ComponentPad*
%ADD22O,1.905000X2.000000*%
G04 #@! TD*
G04 #@! TA.AperFunction,SMDPad,CuDef*
%ADD23C,1.150000*%
G04 #@! TD*
G04 #@! TA.AperFunction,ViaPad*
%ADD24C,0.600000*%
G04 #@! TD*
G04 #@! TA.AperFunction,Conductor*
%ADD25C,0.400000*%
G04 #@! TD*
G04 #@! TA.AperFunction,Conductor*
%ADD26C,2.000000*%
G04 #@! TD*
G04 APERTURE END LIST*
D10*
G04 #@! TO.N,GND*
G04 #@! TO.C,C7*
G36*
X34905604Y-47812924D02*
X34929873Y-47816524D01*
X34953671Y-47822485D01*
X34976771Y-47830750D01*
X34998949Y-47841240D01*
X35019993Y-47853853D01*
X35039698Y-47868467D01*
X35057877Y-47884943D01*
X35074353Y-47903122D01*
X35088967Y-47922827D01*
X35101580Y-47943871D01*
X35112070Y-47966049D01*
X35120335Y-47989149D01*
X35126296Y-48012947D01*
X35129896Y-48037216D01*
X35131100Y-48061720D01*
X35131100Y-49311720D01*
X35129896Y-49336224D01*
X35126296Y-49360493D01*
X35120335Y-49384291D01*
X35112070Y-49407391D01*
X35101580Y-49429569D01*
X35088967Y-49450613D01*
X35074353Y-49470318D01*
X35057877Y-49488497D01*
X35039698Y-49504973D01*
X35019993Y-49519587D01*
X34998949Y-49532200D01*
X34976771Y-49542690D01*
X34953671Y-49550955D01*
X34929873Y-49556916D01*
X34905604Y-49560516D01*
X34881100Y-49561720D01*
X33956100Y-49561720D01*
X33931596Y-49560516D01*
X33907327Y-49556916D01*
X33883529Y-49550955D01*
X33860429Y-49542690D01*
X33838251Y-49532200D01*
X33817207Y-49519587D01*
X33797502Y-49504973D01*
X33779323Y-49488497D01*
X33762847Y-49470318D01*
X33748233Y-49450613D01*
X33735620Y-49429569D01*
X33725130Y-49407391D01*
X33716865Y-49384291D01*
X33710904Y-49360493D01*
X33707304Y-49336224D01*
X33706100Y-49311720D01*
X33706100Y-48061720D01*
X33707304Y-48037216D01*
X33710904Y-48012947D01*
X33716865Y-47989149D01*
X33725130Y-47966049D01*
X33735620Y-47943871D01*
X33748233Y-47922827D01*
X33762847Y-47903122D01*
X33779323Y-47884943D01*
X33797502Y-47868467D01*
X33817207Y-47853853D01*
X33838251Y-47841240D01*
X33860429Y-47830750D01*
X33883529Y-47822485D01*
X33907327Y-47816524D01*
X33931596Y-47812924D01*
X33956100Y-47811720D01*
X34881100Y-47811720D01*
X34905604Y-47812924D01*
X34905604Y-47812924D01*
G37*
D11*
G04 #@! TD*
G04 #@! TO.P,C7,1*
G04 #@! TO.N,GND*
X34418600Y-48686720D03*
D10*
G04 #@! TO.N,+3V3*
G04 #@! TO.C,C7*
G36*
X31930604Y-47812924D02*
X31954873Y-47816524D01*
X31978671Y-47822485D01*
X32001771Y-47830750D01*
X32023949Y-47841240D01*
X32044993Y-47853853D01*
X32064698Y-47868467D01*
X32082877Y-47884943D01*
X32099353Y-47903122D01*
X32113967Y-47922827D01*
X32126580Y-47943871D01*
X32137070Y-47966049D01*
X32145335Y-47989149D01*
X32151296Y-48012947D01*
X32154896Y-48037216D01*
X32156100Y-48061720D01*
X32156100Y-49311720D01*
X32154896Y-49336224D01*
X32151296Y-49360493D01*
X32145335Y-49384291D01*
X32137070Y-49407391D01*
X32126580Y-49429569D01*
X32113967Y-49450613D01*
X32099353Y-49470318D01*
X32082877Y-49488497D01*
X32064698Y-49504973D01*
X32044993Y-49519587D01*
X32023949Y-49532200D01*
X32001771Y-49542690D01*
X31978671Y-49550955D01*
X31954873Y-49556916D01*
X31930604Y-49560516D01*
X31906100Y-49561720D01*
X30981100Y-49561720D01*
X30956596Y-49560516D01*
X30932327Y-49556916D01*
X30908529Y-49550955D01*
X30885429Y-49542690D01*
X30863251Y-49532200D01*
X30842207Y-49519587D01*
X30822502Y-49504973D01*
X30804323Y-49488497D01*
X30787847Y-49470318D01*
X30773233Y-49450613D01*
X30760620Y-49429569D01*
X30750130Y-49407391D01*
X30741865Y-49384291D01*
X30735904Y-49360493D01*
X30732304Y-49336224D01*
X30731100Y-49311720D01*
X30731100Y-48061720D01*
X30732304Y-48037216D01*
X30735904Y-48012947D01*
X30741865Y-47989149D01*
X30750130Y-47966049D01*
X30760620Y-47943871D01*
X30773233Y-47922827D01*
X30787847Y-47903122D01*
X30804323Y-47884943D01*
X30822502Y-47868467D01*
X30842207Y-47853853D01*
X30863251Y-47841240D01*
X30885429Y-47830750D01*
X30908529Y-47822485D01*
X30932327Y-47816524D01*
X30956596Y-47812924D01*
X30981100Y-47811720D01*
X31906100Y-47811720D01*
X31930604Y-47812924D01*
X31930604Y-47812924D01*
G37*
D11*
G04 #@! TD*
G04 #@! TO.P,C7,2*
G04 #@! TO.N,+3V3*
X31443600Y-48686720D03*
D12*
G04 #@! TO.P,F1,2*
G04 #@! TO.N,Net-(F1-Pad2)*
X65737740Y-57238900D03*
D13*
G04 #@! TO.P,F1,1*
G04 #@! TO.N,LINE*
X65737740Y-62318900D03*
G04 #@! TD*
D14*
G04 #@! TO.P,J1,5*
G04 #@! TO.N,Net-(J1-Pad5)*
X65854580Y-32661820D03*
G04 #@! TO.P,J1,4*
G04 #@! TO.N,Net-(J1-Pad4)*
X65854580Y-37661820D03*
G04 #@! TO.P,J1,3*
G04 #@! TO.N,SW_1_LINE*
X65854580Y-42661820D03*
G04 #@! TO.P,J1,2*
G04 #@! TO.N,NEUT*
X65854580Y-47661820D03*
D15*
G04 #@! TO.P,J1,1*
G04 #@! TO.N,Net-(F1-Pad2)*
X65854580Y-52661820D03*
G04 #@! TD*
D16*
G04 #@! TO.P,J2,2*
G04 #@! TO.N,Net-(J2-Pad2)*
X34038540Y-30467300D03*
D17*
G04 #@! TO.P,J2,1*
G04 #@! TO.N,Net-(J2-Pad1)*
X36578540Y-30467300D03*
G04 #@! TD*
D18*
G04 #@! TO.P,C2,2*
G04 #@! TO.N,Net-(C2-Pad2)*
X65641220Y-68781681D03*
D19*
G04 #@! TO.P,C2,1*
G04 #@! TO.N,Net-(C2-Pad1)*
X65641220Y-66781680D03*
G04 #@! TD*
D20*
G04 #@! TO.P,U1,1*
G04 #@! TO.N,LINE*
X60661300Y-62370340D03*
G04 #@! TO.P,U1,2*
G04 #@! TO.N,NEUT*
X60661300Y-57370340D03*
G04 #@! TO.P,U1,3*
G04 #@! TO.N,GND*
X31261300Y-67570340D03*
G04 #@! TO.P,U1,4*
G04 #@! TO.N,+3V3*
X31261300Y-52170340D03*
G04 #@! TD*
D16*
G04 #@! TO.P,J3,5*
G04 #@! TO.N,Net-(J3-Pad5)*
X31254700Y-33197800D03*
G04 #@! TO.P,J3,4*
G04 #@! TO.N,Net-(J3-Pad4)*
X31254700Y-35737800D03*
G04 #@! TO.P,J3,3*
G04 #@! TO.N,GND*
X31254700Y-38277800D03*
G04 #@! TO.P,J3,2*
G04 #@! TO.N,N/C*
X31254700Y-40817800D03*
D17*
G04 #@! TO.P,J3,1*
G04 #@! TO.N,+3V3*
X31254700Y-43357800D03*
G04 #@! TD*
D21*
G04 #@! TO.P,Q1,1*
G04 #@! TO.N,Net-(J1-Pad5)*
X58836560Y-28178760D03*
D22*
G04 #@! TO.P,Q1,2*
G04 #@! TO.N,LINE*
X55105300Y-30124400D03*
G04 #@! TO.P,Q1,3*
G04 #@! TO.N,Net-(Q1-Pad3)*
X51706780Y-28196540D03*
G04 #@! TD*
G04 #@! TO.P,Q2,3*
G04 #@! TO.N,Net-(Q2-Pad3)*
X51757580Y-38846760D03*
G04 #@! TO.P,Q2,2*
G04 #@! TO.N,LINE*
X55123080Y-40878760D03*
D21*
G04 #@! TO.P,Q2,1*
G04 #@! TO.N,Net-(J1-Pad4)*
X58864500Y-38834060D03*
G04 #@! TD*
D10*
G04 #@! TO.N,+3V3*
G04 #@! TO.C,R11*
G36*
X35252185Y-40860064D02*
X35276453Y-40863664D01*
X35300252Y-40869625D01*
X35323351Y-40877890D01*
X35345530Y-40888380D01*
X35366573Y-40900992D01*
X35386279Y-40915607D01*
X35404457Y-40932083D01*
X35420933Y-40950261D01*
X35435548Y-40969967D01*
X35448160Y-40991010D01*
X35458650Y-41013189D01*
X35466915Y-41036288D01*
X35472876Y-41060087D01*
X35476476Y-41084355D01*
X35477680Y-41108859D01*
X35477680Y-41758861D01*
X35476476Y-41783365D01*
X35472876Y-41807633D01*
X35466915Y-41831432D01*
X35458650Y-41854531D01*
X35448160Y-41876710D01*
X35435548Y-41897753D01*
X35420933Y-41917459D01*
X35404457Y-41935637D01*
X35386279Y-41952113D01*
X35366573Y-41966728D01*
X35345530Y-41979340D01*
X35323351Y-41989830D01*
X35300252Y-41998095D01*
X35276453Y-42004056D01*
X35252185Y-42007656D01*
X35227681Y-42008860D01*
X34327679Y-42008860D01*
X34303175Y-42007656D01*
X34278907Y-42004056D01*
X34255108Y-41998095D01*
X34232009Y-41989830D01*
X34209830Y-41979340D01*
X34188787Y-41966728D01*
X34169081Y-41952113D01*
X34150903Y-41935637D01*
X34134427Y-41917459D01*
X34119812Y-41897753D01*
X34107200Y-41876710D01*
X34096710Y-41854531D01*
X34088445Y-41831432D01*
X34082484Y-41807633D01*
X34078884Y-41783365D01*
X34077680Y-41758861D01*
X34077680Y-41108859D01*
X34078884Y-41084355D01*
X34082484Y-41060087D01*
X34088445Y-41036288D01*
X34096710Y-41013189D01*
X34107200Y-40991010D01*
X34119812Y-40969967D01*
X34134427Y-40950261D01*
X34150903Y-40932083D01*
X34169081Y-40915607D01*
X34188787Y-40900992D01*
X34209830Y-40888380D01*
X34232009Y-40877890D01*
X34255108Y-40869625D01*
X34278907Y-40863664D01*
X34303175Y-40860064D01*
X34327679Y-40858860D01*
X35227681Y-40858860D01*
X35252185Y-40860064D01*
X35252185Y-40860064D01*
G37*
D23*
G04 #@! TD*
G04 #@! TO.P,R11,2*
G04 #@! TO.N,+3V3*
X34777680Y-41433860D03*
D10*
G04 #@! TO.N,Net-(J2-Pad2)*
G04 #@! TO.C,R11*
G36*
X35252185Y-38810064D02*
X35276453Y-38813664D01*
X35300252Y-38819625D01*
X35323351Y-38827890D01*
X35345530Y-38838380D01*
X35366573Y-38850992D01*
X35386279Y-38865607D01*
X35404457Y-38882083D01*
X35420933Y-38900261D01*
X35435548Y-38919967D01*
X35448160Y-38941010D01*
X35458650Y-38963189D01*
X35466915Y-38986288D01*
X35472876Y-39010087D01*
X35476476Y-39034355D01*
X35477680Y-39058859D01*
X35477680Y-39708861D01*
X35476476Y-39733365D01*
X35472876Y-39757633D01*
X35466915Y-39781432D01*
X35458650Y-39804531D01*
X35448160Y-39826710D01*
X35435548Y-39847753D01*
X35420933Y-39867459D01*
X35404457Y-39885637D01*
X35386279Y-39902113D01*
X35366573Y-39916728D01*
X35345530Y-39929340D01*
X35323351Y-39939830D01*
X35300252Y-39948095D01*
X35276453Y-39954056D01*
X35252185Y-39957656D01*
X35227681Y-39958860D01*
X34327679Y-39958860D01*
X34303175Y-39957656D01*
X34278907Y-39954056D01*
X34255108Y-39948095D01*
X34232009Y-39939830D01*
X34209830Y-39929340D01*
X34188787Y-39916728D01*
X34169081Y-39902113D01*
X34150903Y-39885637D01*
X34134427Y-39867459D01*
X34119812Y-39847753D01*
X34107200Y-39826710D01*
X34096710Y-39804531D01*
X34088445Y-39781432D01*
X34082484Y-39757633D01*
X34078884Y-39733365D01*
X34077680Y-39708861D01*
X34077680Y-39058859D01*
X34078884Y-39034355D01*
X34082484Y-39010087D01*
X34088445Y-38986288D01*
X34096710Y-38963189D01*
X34107200Y-38941010D01*
X34119812Y-38919967D01*
X34134427Y-38900261D01*
X34150903Y-38882083D01*
X34169081Y-38865607D01*
X34188787Y-38850992D01*
X34209830Y-38838380D01*
X34232009Y-38827890D01*
X34255108Y-38819625D01*
X34278907Y-38813664D01*
X34303175Y-38810064D01*
X34327679Y-38808860D01*
X35227681Y-38808860D01*
X35252185Y-38810064D01*
X35252185Y-38810064D01*
G37*
D23*
G04 #@! TD*
G04 #@! TO.P,R11,1*
G04 #@! TO.N,Net-(J2-Pad2)*
X34777680Y-39383860D03*
D10*
G04 #@! TO.N,Net-(J2-Pad1)*
G04 #@! TO.C,R12*
G36*
X39433025Y-34197424D02*
X39457293Y-34201024D01*
X39481092Y-34206985D01*
X39504191Y-34215250D01*
X39526370Y-34225740D01*
X39547413Y-34238352D01*
X39567119Y-34252967D01*
X39585297Y-34269443D01*
X39601773Y-34287621D01*
X39616388Y-34307327D01*
X39629000Y-34328370D01*
X39639490Y-34350549D01*
X39647755Y-34373648D01*
X39653716Y-34397447D01*
X39657316Y-34421715D01*
X39658520Y-34446219D01*
X39658520Y-35096221D01*
X39657316Y-35120725D01*
X39653716Y-35144993D01*
X39647755Y-35168792D01*
X39639490Y-35191891D01*
X39629000Y-35214070D01*
X39616388Y-35235113D01*
X39601773Y-35254819D01*
X39585297Y-35272997D01*
X39567119Y-35289473D01*
X39547413Y-35304088D01*
X39526370Y-35316700D01*
X39504191Y-35327190D01*
X39481092Y-35335455D01*
X39457293Y-35341416D01*
X39433025Y-35345016D01*
X39408521Y-35346220D01*
X38508519Y-35346220D01*
X38484015Y-35345016D01*
X38459747Y-35341416D01*
X38435948Y-35335455D01*
X38412849Y-35327190D01*
X38390670Y-35316700D01*
X38369627Y-35304088D01*
X38349921Y-35289473D01*
X38331743Y-35272997D01*
X38315267Y-35254819D01*
X38300652Y-35235113D01*
X38288040Y-35214070D01*
X38277550Y-35191891D01*
X38269285Y-35168792D01*
X38263324Y-35144993D01*
X38259724Y-35120725D01*
X38258520Y-35096221D01*
X38258520Y-34446219D01*
X38259724Y-34421715D01*
X38263324Y-34397447D01*
X38269285Y-34373648D01*
X38277550Y-34350549D01*
X38288040Y-34328370D01*
X38300652Y-34307327D01*
X38315267Y-34287621D01*
X38331743Y-34269443D01*
X38349921Y-34252967D01*
X38369627Y-34238352D01*
X38390670Y-34225740D01*
X38412849Y-34215250D01*
X38435948Y-34206985D01*
X38459747Y-34201024D01*
X38484015Y-34197424D01*
X38508519Y-34196220D01*
X39408521Y-34196220D01*
X39433025Y-34197424D01*
X39433025Y-34197424D01*
G37*
D23*
G04 #@! TD*
G04 #@! TO.P,R12,2*
G04 #@! TO.N,Net-(J2-Pad1)*
X38958520Y-34771220D03*
D10*
G04 #@! TO.N,Net-(J2-Pad2)*
G04 #@! TO.C,R12*
G36*
X39433025Y-36247424D02*
X39457293Y-36251024D01*
X39481092Y-36256985D01*
X39504191Y-36265250D01*
X39526370Y-36275740D01*
X39547413Y-36288352D01*
X39567119Y-36302967D01*
X39585297Y-36319443D01*
X39601773Y-36337621D01*
X39616388Y-36357327D01*
X39629000Y-36378370D01*
X39639490Y-36400549D01*
X39647755Y-36423648D01*
X39653716Y-36447447D01*
X39657316Y-36471715D01*
X39658520Y-36496219D01*
X39658520Y-37146221D01*
X39657316Y-37170725D01*
X39653716Y-37194993D01*
X39647755Y-37218792D01*
X39639490Y-37241891D01*
X39629000Y-37264070D01*
X39616388Y-37285113D01*
X39601773Y-37304819D01*
X39585297Y-37322997D01*
X39567119Y-37339473D01*
X39547413Y-37354088D01*
X39526370Y-37366700D01*
X39504191Y-37377190D01*
X39481092Y-37385455D01*
X39457293Y-37391416D01*
X39433025Y-37395016D01*
X39408521Y-37396220D01*
X38508519Y-37396220D01*
X38484015Y-37395016D01*
X38459747Y-37391416D01*
X38435948Y-37385455D01*
X38412849Y-37377190D01*
X38390670Y-37366700D01*
X38369627Y-37354088D01*
X38349921Y-37339473D01*
X38331743Y-37322997D01*
X38315267Y-37304819D01*
X38300652Y-37285113D01*
X38288040Y-37264070D01*
X38277550Y-37241891D01*
X38269285Y-37218792D01*
X38263324Y-37194993D01*
X38259724Y-37170725D01*
X38258520Y-37146221D01*
X38258520Y-36496219D01*
X38259724Y-36471715D01*
X38263324Y-36447447D01*
X38269285Y-36423648D01*
X38277550Y-36400549D01*
X38288040Y-36378370D01*
X38300652Y-36357327D01*
X38315267Y-36337621D01*
X38331743Y-36319443D01*
X38349921Y-36302967D01*
X38369627Y-36288352D01*
X38390670Y-36275740D01*
X38412849Y-36265250D01*
X38435948Y-36256985D01*
X38459747Y-36251024D01*
X38484015Y-36247424D01*
X38508519Y-36246220D01*
X39408521Y-36246220D01*
X39433025Y-36247424D01*
X39433025Y-36247424D01*
G37*
D23*
G04 #@! TD*
G04 #@! TO.P,R12,1*
G04 #@! TO.N,Net-(J2-Pad2)*
X38958520Y-36821220D03*
D10*
G04 #@! TO.N,GND*
G04 #@! TO.C,R13*
G36*
X35203925Y-36219484D02*
X35228193Y-36223084D01*
X35251992Y-36229045D01*
X35275091Y-36237310D01*
X35297270Y-36247800D01*
X35318313Y-36260412D01*
X35338019Y-36275027D01*
X35356197Y-36291503D01*
X35372673Y-36309681D01*
X35387288Y-36329387D01*
X35399900Y-36350430D01*
X35410390Y-36372609D01*
X35418655Y-36395708D01*
X35424616Y-36419507D01*
X35428216Y-36443775D01*
X35429420Y-36468279D01*
X35429420Y-37118281D01*
X35428216Y-37142785D01*
X35424616Y-37167053D01*
X35418655Y-37190852D01*
X35410390Y-37213951D01*
X35399900Y-37236130D01*
X35387288Y-37257173D01*
X35372673Y-37276879D01*
X35356197Y-37295057D01*
X35338019Y-37311533D01*
X35318313Y-37326148D01*
X35297270Y-37338760D01*
X35275091Y-37349250D01*
X35251992Y-37357515D01*
X35228193Y-37363476D01*
X35203925Y-37367076D01*
X35179421Y-37368280D01*
X34279419Y-37368280D01*
X34254915Y-37367076D01*
X34230647Y-37363476D01*
X34206848Y-37357515D01*
X34183749Y-37349250D01*
X34161570Y-37338760D01*
X34140527Y-37326148D01*
X34120821Y-37311533D01*
X34102643Y-37295057D01*
X34086167Y-37276879D01*
X34071552Y-37257173D01*
X34058940Y-37236130D01*
X34048450Y-37213951D01*
X34040185Y-37190852D01*
X34034224Y-37167053D01*
X34030624Y-37142785D01*
X34029420Y-37118281D01*
X34029420Y-36468279D01*
X34030624Y-36443775D01*
X34034224Y-36419507D01*
X34040185Y-36395708D01*
X34048450Y-36372609D01*
X34058940Y-36350430D01*
X34071552Y-36329387D01*
X34086167Y-36309681D01*
X34102643Y-36291503D01*
X34120821Y-36275027D01*
X34140527Y-36260412D01*
X34161570Y-36247800D01*
X34183749Y-36237310D01*
X34206848Y-36229045D01*
X34230647Y-36223084D01*
X34254915Y-36219484D01*
X34279419Y-36218280D01*
X35179421Y-36218280D01*
X35203925Y-36219484D01*
X35203925Y-36219484D01*
G37*
D23*
G04 #@! TD*
G04 #@! TO.P,R13,1*
G04 #@! TO.N,GND*
X34729420Y-36793280D03*
D10*
G04 #@! TO.N,Net-(J2-Pad2)*
G04 #@! TO.C,R13*
G36*
X35203925Y-34169484D02*
X35228193Y-34173084D01*
X35251992Y-34179045D01*
X35275091Y-34187310D01*
X35297270Y-34197800D01*
X35318313Y-34210412D01*
X35338019Y-34225027D01*
X35356197Y-34241503D01*
X35372673Y-34259681D01*
X35387288Y-34279387D01*
X35399900Y-34300430D01*
X35410390Y-34322609D01*
X35418655Y-34345708D01*
X35424616Y-34369507D01*
X35428216Y-34393775D01*
X35429420Y-34418279D01*
X35429420Y-35068281D01*
X35428216Y-35092785D01*
X35424616Y-35117053D01*
X35418655Y-35140852D01*
X35410390Y-35163951D01*
X35399900Y-35186130D01*
X35387288Y-35207173D01*
X35372673Y-35226879D01*
X35356197Y-35245057D01*
X35338019Y-35261533D01*
X35318313Y-35276148D01*
X35297270Y-35288760D01*
X35275091Y-35299250D01*
X35251992Y-35307515D01*
X35228193Y-35313476D01*
X35203925Y-35317076D01*
X35179421Y-35318280D01*
X34279419Y-35318280D01*
X34254915Y-35317076D01*
X34230647Y-35313476D01*
X34206848Y-35307515D01*
X34183749Y-35299250D01*
X34161570Y-35288760D01*
X34140527Y-35276148D01*
X34120821Y-35261533D01*
X34102643Y-35245057D01*
X34086167Y-35226879D01*
X34071552Y-35207173D01*
X34058940Y-35186130D01*
X34048450Y-35163951D01*
X34040185Y-35140852D01*
X34034224Y-35117053D01*
X34030624Y-35092785D01*
X34029420Y-35068281D01*
X34029420Y-34418279D01*
X34030624Y-34393775D01*
X34034224Y-34369507D01*
X34040185Y-34345708D01*
X34048450Y-34322609D01*
X34058940Y-34300430D01*
X34071552Y-34279387D01*
X34086167Y-34259681D01*
X34102643Y-34241503D01*
X34120821Y-34225027D01*
X34140527Y-34210412D01*
X34161570Y-34197800D01*
X34183749Y-34187310D01*
X34206848Y-34179045D01*
X34230647Y-34173084D01*
X34254915Y-34169484D01*
X34279419Y-34168280D01*
X35179421Y-34168280D01*
X35203925Y-34169484D01*
X35203925Y-34169484D01*
G37*
D23*
G04 #@! TD*
G04 #@! TO.P,R13,2*
G04 #@! TO.N,Net-(J2-Pad2)*
X34729420Y-34743280D03*
D17*
G04 #@! TO.P,J4,1*
G04 #@! TO.N,N/C*
X71437500Y-56769000D03*
D16*
G04 #@! TO.P,J4,2*
X71437500Y-59309000D03*
G04 #@! TO.P,J4,3*
X71437500Y-61849000D03*
G04 #@! TO.P,J4,4*
X71437500Y-64389000D03*
G04 #@! TO.P,J4,5*
X71437500Y-66929000D03*
G04 #@! TD*
D10*
G04 #@! TO.N,Net-(J5-Pad4)*
G04 #@! TO.C,R15*
G36*
X39537165Y-38700844D02*
X39561433Y-38704444D01*
X39585232Y-38710405D01*
X39608331Y-38718670D01*
X39630510Y-38729160D01*
X39651553Y-38741772D01*
X39671259Y-38756387D01*
X39689437Y-38772863D01*
X39705913Y-38791041D01*
X39720528Y-38810747D01*
X39733140Y-38831790D01*
X39743630Y-38853969D01*
X39751895Y-38877068D01*
X39757856Y-38900867D01*
X39761456Y-38925135D01*
X39762660Y-38949639D01*
X39762660Y-39599641D01*
X39761456Y-39624145D01*
X39757856Y-39648413D01*
X39751895Y-39672212D01*
X39743630Y-39695311D01*
X39733140Y-39717490D01*
X39720528Y-39738533D01*
X39705913Y-39758239D01*
X39689437Y-39776417D01*
X39671259Y-39792893D01*
X39651553Y-39807508D01*
X39630510Y-39820120D01*
X39608331Y-39830610D01*
X39585232Y-39838875D01*
X39561433Y-39844836D01*
X39537165Y-39848436D01*
X39512661Y-39849640D01*
X38612659Y-39849640D01*
X38588155Y-39848436D01*
X38563887Y-39844836D01*
X38540088Y-39838875D01*
X38516989Y-39830610D01*
X38494810Y-39820120D01*
X38473767Y-39807508D01*
X38454061Y-39792893D01*
X38435883Y-39776417D01*
X38419407Y-39758239D01*
X38404792Y-39738533D01*
X38392180Y-39717490D01*
X38381690Y-39695311D01*
X38373425Y-39672212D01*
X38367464Y-39648413D01*
X38363864Y-39624145D01*
X38362660Y-39599641D01*
X38362660Y-38949639D01*
X38363864Y-38925135D01*
X38367464Y-38900867D01*
X38373425Y-38877068D01*
X38381690Y-38853969D01*
X38392180Y-38831790D01*
X38404792Y-38810747D01*
X38419407Y-38791041D01*
X38435883Y-38772863D01*
X38454061Y-38756387D01*
X38473767Y-38741772D01*
X38494810Y-38729160D01*
X38516989Y-38718670D01*
X38540088Y-38710405D01*
X38563887Y-38704444D01*
X38588155Y-38700844D01*
X38612659Y-38699640D01*
X39512661Y-38699640D01*
X39537165Y-38700844D01*
X39537165Y-38700844D01*
G37*
D23*
G04 #@! TD*
G04 #@! TO.P,R15,1*
G04 #@! TO.N,Net-(J5-Pad4)*
X39062660Y-39274640D03*
D10*
G04 #@! TO.N,+3V3*
G04 #@! TO.C,R15*
G36*
X39537165Y-40750844D02*
X39561433Y-40754444D01*
X39585232Y-40760405D01*
X39608331Y-40768670D01*
X39630510Y-40779160D01*
X39651553Y-40791772D01*
X39671259Y-40806387D01*
X39689437Y-40822863D01*
X39705913Y-40841041D01*
X39720528Y-40860747D01*
X39733140Y-40881790D01*
X39743630Y-40903969D01*
X39751895Y-40927068D01*
X39757856Y-40950867D01*
X39761456Y-40975135D01*
X39762660Y-40999639D01*
X39762660Y-41649641D01*
X39761456Y-41674145D01*
X39757856Y-41698413D01*
X39751895Y-41722212D01*
X39743630Y-41745311D01*
X39733140Y-41767490D01*
X39720528Y-41788533D01*
X39705913Y-41808239D01*
X39689437Y-41826417D01*
X39671259Y-41842893D01*
X39651553Y-41857508D01*
X39630510Y-41870120D01*
X39608331Y-41880610D01*
X39585232Y-41888875D01*
X39561433Y-41894836D01*
X39537165Y-41898436D01*
X39512661Y-41899640D01*
X38612659Y-41899640D01*
X38588155Y-41898436D01*
X38563887Y-41894836D01*
X38540088Y-41888875D01*
X38516989Y-41880610D01*
X38494810Y-41870120D01*
X38473767Y-41857508D01*
X38454061Y-41842893D01*
X38435883Y-41826417D01*
X38419407Y-41808239D01*
X38404792Y-41788533D01*
X38392180Y-41767490D01*
X38381690Y-41745311D01*
X38373425Y-41722212D01*
X38367464Y-41698413D01*
X38363864Y-41674145D01*
X38362660Y-41649641D01*
X38362660Y-40999639D01*
X38363864Y-40975135D01*
X38367464Y-40950867D01*
X38373425Y-40927068D01*
X38381690Y-40903969D01*
X38392180Y-40881790D01*
X38404792Y-40860747D01*
X38419407Y-40841041D01*
X38435883Y-40822863D01*
X38454061Y-40806387D01*
X38473767Y-40791772D01*
X38494810Y-40779160D01*
X38516989Y-40768670D01*
X38540088Y-40760405D01*
X38563887Y-40754444D01*
X38588155Y-40750844D01*
X38612659Y-40749640D01*
X39512661Y-40749640D01*
X39537165Y-40750844D01*
X39537165Y-40750844D01*
G37*
D23*
G04 #@! TD*
G04 #@! TO.P,R15,2*
G04 #@! TO.N,+3V3*
X39062660Y-41324640D03*
D24*
G04 #@! TO.N,GND*
X38463220Y-54208680D03*
X42082720Y-65204340D03*
G04 #@! TO.N,LINE*
X56266080Y-53436520D03*
G04 #@! TO.N,Net-(C2-Pad2)*
X51107340Y-67755160D03*
G04 #@! TO.N,Net-(D1-Pad2)*
X52009040Y-70582220D03*
X58707020Y-68714620D03*
G04 #@! TO.N,Net-(Q5-Pad3)*
X47195740Y-69614680D03*
X49237900Y-60545980D03*
G04 #@! TO.N,Net-(J3-Pad5)*
X37401500Y-58978800D03*
G04 #@! TO.N,Net-(J3-Pad4)*
X36131500Y-58966100D03*
G04 #@! TO.N,Net-(J5-Pad4)*
X39203400Y-65151000D03*
G04 #@! TO.N,Net-(R14-Pad1)*
X37426900Y-61468000D03*
X32900620Y-45095160D03*
X39824660Y-48074580D03*
G04 #@! TD*
D25*
G04 #@! TO.N,GND*
X38463220Y-54208680D02*
X38463220Y-54208680D01*
X31261300Y-67570340D02*
X39716720Y-67570340D01*
X39716720Y-67570340D02*
X42082720Y-65204340D01*
X42082720Y-65204340D02*
X42082720Y-65204340D01*
X31254700Y-38277800D02*
X31879540Y-38277800D01*
X33364060Y-36793280D02*
X33395920Y-36793280D01*
X31879540Y-38277800D02*
X33364060Y-36793280D01*
X33395920Y-36793280D02*
X34729420Y-36793280D01*
X34418600Y-48686720D02*
X34418600Y-50164060D01*
X34418600Y-50164060D02*
X38463220Y-54208680D01*
G04 #@! TO.N,+3V3*
X31413700Y-48716620D02*
X31443600Y-48686720D01*
X31413700Y-52726600D02*
X31413700Y-48716620D01*
X31443600Y-43546700D02*
X31254700Y-43357800D01*
X31443600Y-48686720D02*
X31443600Y-43546700D01*
X32853740Y-43357800D02*
X34777680Y-41433860D01*
X31254700Y-43357800D02*
X32853740Y-43357800D01*
X38953440Y-41433860D02*
X39062660Y-41324640D01*
X34777680Y-41433860D02*
X38953440Y-41433860D01*
D26*
G04 #@! TO.N,LINE*
X60801640Y-62230000D02*
X60661300Y-62370340D01*
X65900300Y-62230000D02*
X60801640Y-62230000D01*
X60661300Y-62370340D02*
X58701806Y-62370340D01*
X55105300Y-40860980D02*
X55123080Y-40878760D01*
X55105300Y-30124400D02*
X55105300Y-40860980D01*
X55123080Y-58791614D02*
X58701806Y-62370340D01*
D25*
X55123080Y-53291740D02*
X56301640Y-53291740D01*
D26*
X55123080Y-53291740D02*
X55123080Y-58791614D01*
X55123080Y-40878760D02*
X55123080Y-53291740D01*
G04 #@! TO.N,Net-(F1-Pad2)*
X65859660Y-57109360D02*
X65900300Y-57150000D01*
X65859660Y-52468780D02*
X65859660Y-57109360D01*
D25*
G04 #@! TO.N,Net-(C2-Pad2)*
X63414581Y-68614581D02*
X65641140Y-68614581D01*
X61600000Y-66800000D02*
X63414581Y-68614581D01*
X52115720Y-66800000D02*
X61600080Y-66800000D01*
X51683920Y-67200000D02*
X52115720Y-66768200D01*
X51107340Y-67756260D02*
X51663600Y-67200000D01*
G04 #@! TO.N,Net-(D1-Pad2)*
X56839420Y-70582220D02*
X57600000Y-69821640D01*
X52009040Y-70582220D02*
X56839420Y-70582220D01*
X57600000Y-69821640D02*
X58707020Y-68714620D01*
G04 #@! TO.N,Net-(Q5-Pad3)*
X49237900Y-60545980D02*
X49237900Y-60545980D01*
X49237900Y-60545980D02*
X46381060Y-63402820D01*
X46381060Y-68800000D02*
X47195740Y-69614680D01*
X46381060Y-63402820D02*
X46381060Y-68800000D01*
G04 #@! TO.N,Net-(J2-Pad1)*
X36578540Y-32391240D02*
X38958520Y-34771220D01*
X36578540Y-30467300D02*
X36578540Y-32391240D01*
G04 #@! TO.N,Net-(J2-Pad2)*
X35577680Y-39383860D02*
X38140320Y-36821220D01*
X34777680Y-39383860D02*
X35577680Y-39383860D01*
X38140320Y-36821220D02*
X38229540Y-36821220D01*
X38958520Y-36821220D02*
X38229540Y-36821220D01*
X34038540Y-34052400D02*
X34729420Y-34743280D01*
X34038540Y-30467300D02*
X34038540Y-34052400D01*
X34729420Y-34743280D02*
X35972640Y-34743280D01*
X38050580Y-36821220D02*
X38958520Y-36821220D01*
X35972640Y-34743280D02*
X38050580Y-36821220D01*
G04 #@! TO.N,Net-(J3-Pad5)*
X37401500Y-58978800D02*
X37414200Y-58966100D01*
X36527740Y-59852560D02*
X37401500Y-58978800D01*
X31254700Y-33197800D02*
X29405580Y-35046920D01*
X29405580Y-35046920D02*
X29392880Y-35046920D01*
X29392880Y-35046920D02*
X29065220Y-35374580D01*
X29065220Y-35374580D02*
X29065220Y-58968640D01*
X29065220Y-58968640D02*
X29949140Y-59852560D01*
X29949140Y-59852560D02*
X36527740Y-59852560D01*
G04 #@! TO.N,Net-(J3-Pad4)*
X36131500Y-58966100D02*
X36131500Y-58966100D01*
X30200600Y-58966100D02*
X36131500Y-58966100D01*
X29761299Y-58526799D02*
X30200600Y-58966100D01*
X30404701Y-36587918D02*
X29761299Y-37231320D01*
X30404701Y-36587799D02*
X30404701Y-36587918D01*
X31254700Y-35737800D02*
X30404701Y-36587799D01*
X29761299Y-37231320D02*
X29761299Y-58526799D01*
G04 #@! TO.N,Net-(J5-Pad4)*
X39062660Y-39274640D02*
X40369380Y-39274640D01*
X40916860Y-39822120D02*
X40916860Y-63439040D01*
X40369380Y-39274640D02*
X40916860Y-39822120D01*
X40916860Y-63439040D02*
X39166800Y-65189100D01*
G04 #@! TO.N,Net-(R14-Pad1)*
X39824660Y-48074580D02*
X39824660Y-48074580D01*
X36845240Y-45095160D02*
X32900620Y-45095160D01*
X39824660Y-59006740D02*
X39824660Y-48074580D01*
X37414200Y-61417200D02*
X39824660Y-59006740D01*
X39286180Y-47536100D02*
X36845240Y-45095160D01*
X39824660Y-48074580D02*
X39286180Y-47536100D01*
D26*
G04 #@! TO.N,Net-(J1-Pad5)*
X61442640Y-28051760D02*
X65859660Y-32468780D01*
X59115960Y-28051760D02*
X61442640Y-28051760D01*
G04 #@! TO.N,Net-(J1-Pad4)*
X60278040Y-37468780D02*
X59088020Y-38658800D01*
X65859660Y-37468780D02*
X60278040Y-37468780D01*
G04 #@! TD*
M02*
