G04 #@! TF.GenerationSoftware,KiCad,Pcbnew,5.0.1*
G04 #@! TF.CreationDate,2019-01-05T16:55:50+01:00*
G04 #@! TF.ProjectId,sensor_board-ac-7 -without-regulator-2,73656E736F725F626F6172642D61632D,V1.2*
G04 #@! TF.SameCoordinates,Original*
G04 #@! TF.FileFunction,Legend,Bot*
G04 #@! TF.FilePolarity,Positive*
%FSLAX46Y46*%
G04 Gerber Fmt 4.6, Leading zero omitted, Abs format (unit mm)*
G04 Created by KiCad (PCBNEW 5.0.1) date Sat 05 Jan 2019 04:55:50 PM CET*
%MOMM*%
%LPD*%
G01*
G04 APERTURE LIST*
%ADD10C,0.100000*%
%ADD11C,0.300000*%
%ADD12C,0.150000*%
%ADD13C,0.120000*%
G04 APERTURE END LIST*
D10*
X35047619Y-42852380D02*
X34428571Y-42852380D01*
X34761904Y-43233333D01*
X34619047Y-43233333D01*
X34523809Y-43280952D01*
X34476190Y-43328571D01*
X34428571Y-43423809D01*
X34428571Y-43661904D01*
X34476190Y-43757142D01*
X34523809Y-43804761D01*
X34619047Y-43852380D01*
X34904761Y-43852380D01*
X35000000Y-43804761D01*
X35047619Y-43757142D01*
X34000000Y-43757142D02*
X33952380Y-43804761D01*
X34000000Y-43852380D01*
X34047619Y-43804761D01*
X34000000Y-43757142D01*
X34000000Y-43852380D01*
X33619047Y-42852380D02*
X33000000Y-42852380D01*
X33333333Y-43233333D01*
X33190476Y-43233333D01*
X33095238Y-43280952D01*
X33047619Y-43328571D01*
X33000000Y-43423809D01*
X33000000Y-43661904D01*
X33047619Y-43757142D01*
X33095238Y-43804761D01*
X33190476Y-43852380D01*
X33476190Y-43852380D01*
X33571428Y-43804761D01*
X33619047Y-43757142D01*
X34961904Y-37900000D02*
X35057142Y-37852380D01*
X35200000Y-37852380D01*
X35342857Y-37900000D01*
X35438095Y-37995238D01*
X35485714Y-38090476D01*
X35533333Y-38280952D01*
X35533333Y-38423809D01*
X35485714Y-38614285D01*
X35438095Y-38709523D01*
X35342857Y-38804761D01*
X35200000Y-38852380D01*
X35104761Y-38852380D01*
X34961904Y-38804761D01*
X34914285Y-38757142D01*
X34914285Y-38423809D01*
X35104761Y-38423809D01*
X34485714Y-38852380D02*
X34485714Y-37852380D01*
X33914285Y-38852380D01*
X33914285Y-37852380D01*
X33438095Y-38852380D02*
X33438095Y-37852380D01*
X33200000Y-37852380D01*
X33057142Y-37900000D01*
X32961904Y-37995238D01*
X32914285Y-38090476D01*
X32866666Y-38280952D01*
X32866666Y-38423809D01*
X32914285Y-38614285D01*
X32961904Y-38709523D01*
X33057142Y-38804761D01*
X33200000Y-38852380D01*
X33438095Y-38852380D01*
X34595238Y-36052380D02*
X34928571Y-35576190D01*
X35166666Y-36052380D02*
X35166666Y-35052380D01*
X34785714Y-35052380D01*
X34690476Y-35100000D01*
X34642857Y-35147619D01*
X34595238Y-35242857D01*
X34595238Y-35385714D01*
X34642857Y-35480952D01*
X34690476Y-35528571D01*
X34785714Y-35576190D01*
X35166666Y-35576190D01*
X34261904Y-36052380D02*
X33738095Y-35385714D01*
X34261904Y-35385714D02*
X33738095Y-36052380D01*
X33357142Y-36052380D02*
X33357142Y-35052380D01*
X33119047Y-35052380D01*
X32976190Y-35100000D01*
X32880952Y-35195238D01*
X32833333Y-35290476D01*
X32785714Y-35480952D01*
X32785714Y-35623809D01*
X32833333Y-35814285D01*
X32880952Y-35909523D01*
X32976190Y-36004761D01*
X33119047Y-36052380D01*
X33357142Y-36052380D01*
X34990476Y-32652380D02*
X34419047Y-32652380D01*
X34704761Y-33652380D02*
X34704761Y-32652380D01*
X34180952Y-33652380D02*
X33657142Y-32985714D01*
X34180952Y-32985714D02*
X33657142Y-33652380D01*
X33276190Y-33652380D02*
X33276190Y-32652380D01*
X33038095Y-32652380D01*
X32895238Y-32700000D01*
X32800000Y-32795238D01*
X32752380Y-32890476D01*
X32704761Y-33080952D01*
X32704761Y-33223809D01*
X32752380Y-33414285D01*
X32800000Y-33509523D01*
X32895238Y-33604761D01*
X33038095Y-33652380D01*
X33276190Y-33652380D01*
X70011190Y-26852380D02*
X70011190Y-27566666D01*
X70058809Y-27709523D01*
X70154047Y-27804761D01*
X70296904Y-27852380D01*
X70392142Y-27852380D01*
X69106428Y-27852380D02*
X69106428Y-27328571D01*
X69154047Y-27233333D01*
X69249285Y-27185714D01*
X69439761Y-27185714D01*
X69535000Y-27233333D01*
X69106428Y-27804761D02*
X69201666Y-27852380D01*
X69439761Y-27852380D01*
X69535000Y-27804761D01*
X69582619Y-27709523D01*
X69582619Y-27614285D01*
X69535000Y-27519047D01*
X69439761Y-27471428D01*
X69201666Y-27471428D01*
X69106428Y-27423809D01*
X68630238Y-27185714D02*
X68630238Y-27852380D01*
X68630238Y-27280952D02*
X68582619Y-27233333D01*
X68487380Y-27185714D01*
X68344523Y-27185714D01*
X68249285Y-27233333D01*
X68201666Y-27328571D01*
X68201666Y-27852380D01*
X67296904Y-27804761D02*
X67392142Y-27852380D01*
X67582619Y-27852380D01*
X67677857Y-27804761D01*
X67725476Y-27757142D01*
X67773095Y-27661904D01*
X67773095Y-27376190D01*
X67725476Y-27280952D01*
X67677857Y-27233333D01*
X67582619Y-27185714D01*
X67392142Y-27185714D01*
X67296904Y-27233333D01*
X66725476Y-27852380D02*
X66820714Y-27804761D01*
X66868333Y-27757142D01*
X66915952Y-27661904D01*
X66915952Y-27376190D01*
X66868333Y-27280952D01*
X66820714Y-27233333D01*
X66725476Y-27185714D01*
X66582619Y-27185714D01*
X66487380Y-27233333D01*
X66439761Y-27280952D01*
X66392142Y-27376190D01*
X66392142Y-27661904D01*
X66439761Y-27757142D01*
X66487380Y-27804761D01*
X66582619Y-27852380D01*
X66725476Y-27852380D01*
X65201666Y-27852380D02*
X65201666Y-26852380D01*
X64630238Y-27852380D02*
X65058809Y-27280952D01*
X64630238Y-26852380D02*
X65201666Y-27423809D01*
X64058809Y-27852380D02*
X64154047Y-27804761D01*
X64201666Y-27757142D01*
X64249285Y-27661904D01*
X64249285Y-27376190D01*
X64201666Y-27280952D01*
X64154047Y-27233333D01*
X64058809Y-27185714D01*
X63915952Y-27185714D01*
X63820714Y-27233333D01*
X63773095Y-27280952D01*
X63725476Y-27376190D01*
X63725476Y-27661904D01*
X63773095Y-27757142D01*
X63820714Y-27804761D01*
X63915952Y-27852380D01*
X64058809Y-27852380D01*
X62868333Y-27804761D02*
X62963571Y-27852380D01*
X63154047Y-27852380D01*
X63249285Y-27804761D01*
X63296904Y-27757142D01*
X63344523Y-27661904D01*
X63344523Y-27376190D01*
X63296904Y-27280952D01*
X63249285Y-27233333D01*
X63154047Y-27185714D01*
X62963571Y-27185714D01*
X62868333Y-27233333D01*
X62439761Y-27852380D02*
X62439761Y-26852380D01*
X62344523Y-27471428D02*
X62058809Y-27852380D01*
X62058809Y-27185714D02*
X62439761Y-27566666D01*
X70344523Y-29166666D02*
X69868333Y-29166666D01*
X70439761Y-29452380D02*
X70106428Y-28452380D01*
X69773095Y-29452380D01*
X68868333Y-29357142D02*
X68915952Y-29404761D01*
X69058809Y-29452380D01*
X69154047Y-29452380D01*
X69296904Y-29404761D01*
X69392142Y-29309523D01*
X69439761Y-29214285D01*
X69487380Y-29023809D01*
X69487380Y-28880952D01*
X69439761Y-28690476D01*
X69392142Y-28595238D01*
X69296904Y-28500000D01*
X69154047Y-28452380D01*
X69058809Y-28452380D01*
X68915952Y-28500000D01*
X68868333Y-28547619D01*
X67677857Y-29452380D02*
X67677857Y-28452380D01*
X67439761Y-28452380D01*
X67296904Y-28500000D01*
X67201666Y-28595238D01*
X67154047Y-28690476D01*
X67106428Y-28880952D01*
X67106428Y-29023809D01*
X67154047Y-29214285D01*
X67201666Y-29309523D01*
X67296904Y-29404761D01*
X67439761Y-29452380D01*
X67677857Y-29452380D01*
X66677857Y-29452380D02*
X66677857Y-28785714D01*
X66677857Y-28452380D02*
X66725476Y-28500000D01*
X66677857Y-28547619D01*
X66630238Y-28500000D01*
X66677857Y-28452380D01*
X66677857Y-28547619D01*
X66201666Y-29452380D02*
X66201666Y-28785714D01*
X66201666Y-28880952D02*
X66154047Y-28833333D01*
X66058809Y-28785714D01*
X65915952Y-28785714D01*
X65820714Y-28833333D01*
X65773095Y-28928571D01*
X65773095Y-29452380D01*
X65773095Y-28928571D02*
X65725476Y-28833333D01*
X65630238Y-28785714D01*
X65487380Y-28785714D01*
X65392142Y-28833333D01*
X65344523Y-28928571D01*
X65344523Y-29452380D01*
X64868333Y-29452380D02*
X64868333Y-28785714D01*
X64868333Y-28880952D02*
X64820714Y-28833333D01*
X64725476Y-28785714D01*
X64582619Y-28785714D01*
X64487380Y-28833333D01*
X64439761Y-28928571D01*
X64439761Y-29452380D01*
X64439761Y-28928571D02*
X64392142Y-28833333D01*
X64296904Y-28785714D01*
X64154047Y-28785714D01*
X64058809Y-28833333D01*
X64011190Y-28928571D01*
X64011190Y-29452380D01*
X63154047Y-29404761D02*
X63249285Y-29452380D01*
X63439761Y-29452380D01*
X63535000Y-29404761D01*
X63582619Y-29309523D01*
X63582619Y-28928571D01*
X63535000Y-28833333D01*
X63439761Y-28785714D01*
X63249285Y-28785714D01*
X63154047Y-28833333D01*
X63106428Y-28928571D01*
X63106428Y-29023809D01*
X63582619Y-29119047D01*
X62677857Y-29452380D02*
X62677857Y-28785714D01*
X62677857Y-28976190D02*
X62630238Y-28880952D01*
X62582619Y-28833333D01*
X62487380Y-28785714D01*
X62392142Y-28785714D01*
X70106428Y-30052380D02*
X70011190Y-30052380D01*
X69915952Y-30100000D01*
X69868333Y-30147619D01*
X69820714Y-30242857D01*
X69773095Y-30433333D01*
X69773095Y-30671428D01*
X69820714Y-30861904D01*
X69868333Y-30957142D01*
X69915952Y-31004761D01*
X70011190Y-31052380D01*
X70106428Y-31052380D01*
X70201666Y-31004761D01*
X70249285Y-30957142D01*
X70296904Y-30861904D01*
X70344523Y-30671428D01*
X70344523Y-30433333D01*
X70296904Y-30242857D01*
X70249285Y-30147619D01*
X70201666Y-30100000D01*
X70106428Y-30052380D01*
X68820714Y-31052380D02*
X69392142Y-31052380D01*
X69106428Y-31052380D02*
X69106428Y-30052380D01*
X69201666Y-30195238D01*
X69296904Y-30290476D01*
X69392142Y-30338095D01*
X68392142Y-30671428D02*
X67630238Y-30671428D01*
X67201666Y-30147619D02*
X67154047Y-30100000D01*
X67058809Y-30052380D01*
X66820714Y-30052380D01*
X66725476Y-30100000D01*
X66677857Y-30147619D01*
X66630238Y-30242857D01*
X66630238Y-30338095D01*
X66677857Y-30480952D01*
X67249285Y-31052380D01*
X66630238Y-31052380D01*
X66011190Y-30052380D02*
X65915952Y-30052380D01*
X65820714Y-30100000D01*
X65773095Y-30147619D01*
X65725476Y-30242857D01*
X65677857Y-30433333D01*
X65677857Y-30671428D01*
X65725476Y-30861904D01*
X65773095Y-30957142D01*
X65820714Y-31004761D01*
X65915952Y-31052380D01*
X66011190Y-31052380D01*
X66106428Y-31004761D01*
X66154047Y-30957142D01*
X66201666Y-30861904D01*
X66249285Y-30671428D01*
X66249285Y-30433333D01*
X66201666Y-30242857D01*
X66154047Y-30147619D01*
X66106428Y-30100000D01*
X66011190Y-30052380D01*
X64725476Y-31052380D02*
X65296904Y-31052380D01*
X65011190Y-31052380D02*
X65011190Y-30052380D01*
X65106428Y-30195238D01*
X65201666Y-30290476D01*
X65296904Y-30338095D01*
X64154047Y-30480952D02*
X64249285Y-30433333D01*
X64296904Y-30385714D01*
X64344523Y-30290476D01*
X64344523Y-30242857D01*
X64296904Y-30147619D01*
X64249285Y-30100000D01*
X64154047Y-30052380D01*
X63963571Y-30052380D01*
X63868333Y-30100000D01*
X63820714Y-30147619D01*
X63773095Y-30242857D01*
X63773095Y-30290476D01*
X63820714Y-30385714D01*
X63868333Y-30433333D01*
X63963571Y-30480952D01*
X64154047Y-30480952D01*
X64249285Y-30528571D01*
X64296904Y-30576190D01*
X64344523Y-30671428D01*
X64344523Y-30861904D01*
X64296904Y-30957142D01*
X64249285Y-31004761D01*
X64154047Y-31052380D01*
X63963571Y-31052380D01*
X63868333Y-31004761D01*
X63820714Y-30957142D01*
X63773095Y-30861904D01*
X63773095Y-30671428D01*
X63820714Y-30576190D01*
X63868333Y-30528571D01*
X63963571Y-30480952D01*
X70439761Y-31652380D02*
X70106428Y-32652380D01*
X69773095Y-31652380D01*
X68915952Y-32652380D02*
X69487380Y-32652380D01*
X69201666Y-32652380D02*
X69201666Y-31652380D01*
X69296904Y-31795238D01*
X69392142Y-31890476D01*
X69487380Y-31938095D01*
X68487380Y-32557142D02*
X68439761Y-32604761D01*
X68487380Y-32652380D01*
X68535000Y-32604761D01*
X68487380Y-32557142D01*
X68487380Y-32652380D01*
X67820714Y-31652380D02*
X67725476Y-31652380D01*
X67630238Y-31700000D01*
X67582619Y-31747619D01*
X67535000Y-31842857D01*
X67487380Y-32033333D01*
X67487380Y-32271428D01*
X67535000Y-32461904D01*
X67582619Y-32557142D01*
X67630238Y-32604761D01*
X67725476Y-32652380D01*
X67820714Y-32652380D01*
X67915952Y-32604761D01*
X67963571Y-32557142D01*
X68011190Y-32461904D01*
X68058809Y-32271428D01*
X68058809Y-32033333D01*
X68011190Y-31842857D01*
X67963571Y-31747619D01*
X67915952Y-31700000D01*
X67820714Y-31652380D01*
D11*
X72890142Y-41345885D02*
X72961571Y-41560171D01*
X72961571Y-41917314D01*
X72890142Y-42060171D01*
X72818714Y-42131600D01*
X72675857Y-42203028D01*
X72533000Y-42203028D01*
X72390142Y-42131600D01*
X72318714Y-42060171D01*
X72247285Y-41917314D01*
X72175857Y-41631600D01*
X72104428Y-41488742D01*
X72033000Y-41417314D01*
X71890142Y-41345885D01*
X71747285Y-41345885D01*
X71604428Y-41417314D01*
X71533000Y-41488742D01*
X71461571Y-41631600D01*
X71461571Y-41988742D01*
X71533000Y-42203028D01*
X71461571Y-42703028D02*
X72961571Y-43060171D01*
X71890142Y-43345885D01*
X72961571Y-43631600D01*
X71461571Y-43988742D01*
X72803571Y-31892857D02*
X71303571Y-31892857D01*
X71303571Y-32250000D01*
X71375000Y-32464285D01*
X71517857Y-32607142D01*
X71660714Y-32678571D01*
X71946428Y-32750000D01*
X72160714Y-32750000D01*
X72446428Y-32678571D01*
X72589285Y-32607142D01*
X72732142Y-32464285D01*
X72803571Y-32250000D01*
X72803571Y-31892857D01*
X71446428Y-33321428D02*
X71375000Y-33392857D01*
X71303571Y-33535714D01*
X71303571Y-33892857D01*
X71375000Y-34035714D01*
X71446428Y-34107142D01*
X71589285Y-34178571D01*
X71732142Y-34178571D01*
X71946428Y-34107142D01*
X72803571Y-33250000D01*
X72803571Y-34178571D01*
X72878571Y-36492857D02*
X71378571Y-36492857D01*
X71378571Y-36850000D01*
X71450000Y-37064285D01*
X71592857Y-37207142D01*
X71735714Y-37278571D01*
X72021428Y-37350000D01*
X72235714Y-37350000D01*
X72521428Y-37278571D01*
X72664285Y-37207142D01*
X72807142Y-37064285D01*
X72878571Y-36850000D01*
X72878571Y-36492857D01*
X72878571Y-38778571D02*
X72878571Y-37921428D01*
X72878571Y-38350000D02*
X71378571Y-38350000D01*
X71592857Y-38207142D01*
X71735714Y-38064285D01*
X71807142Y-37921428D01*
X72878571Y-47371428D02*
X71378571Y-47371428D01*
X72878571Y-48228571D01*
X71378571Y-48228571D01*
X72878571Y-52864285D02*
X72878571Y-52150000D01*
X71378571Y-52150000D01*
D12*
X42536064Y-65708675D02*
X42155112Y-65442008D01*
X42536064Y-65251532D02*
X41736064Y-65251532D01*
X41736064Y-65556294D01*
X41774160Y-65632484D01*
X41812255Y-65670580D01*
X41888445Y-65708675D01*
X42002731Y-65708675D01*
X42078921Y-65670580D01*
X42117017Y-65632484D01*
X42155112Y-65556294D01*
X42155112Y-65251532D01*
X42117017Y-66051532D02*
X42117017Y-66318199D01*
X42536064Y-66432484D02*
X42536064Y-66051532D01*
X41736064Y-66051532D01*
X41736064Y-66432484D01*
X42497969Y-66737246D02*
X42536064Y-66851532D01*
X42536064Y-67042008D01*
X42497969Y-67118199D01*
X42459874Y-67156294D01*
X42383683Y-67194389D01*
X42307493Y-67194389D01*
X42231302Y-67156294D01*
X42193207Y-67118199D01*
X42155112Y-67042008D01*
X42117017Y-66889627D01*
X42078921Y-66813437D01*
X42040826Y-66775341D01*
X41964636Y-66737246D01*
X41888445Y-66737246D01*
X41812255Y-66775341D01*
X41774160Y-66813437D01*
X41736064Y-66889627D01*
X41736064Y-67080103D01*
X41774160Y-67194389D01*
X42117017Y-67537246D02*
X42117017Y-67803913D01*
X42536064Y-67918199D02*
X42536064Y-67537246D01*
X41736064Y-67537246D01*
X41736064Y-67918199D01*
X41736064Y-68146770D02*
X41736064Y-68603913D01*
X42536064Y-68375341D02*
X41736064Y-68375341D01*
X40003684Y-65936017D02*
X39203684Y-65936017D01*
X39775113Y-66202683D01*
X39203684Y-66469350D01*
X40003684Y-66469350D01*
X39203684Y-67002683D02*
X39203684Y-67155064D01*
X39241780Y-67231255D01*
X39317970Y-67307445D01*
X39470351Y-67345540D01*
X39737018Y-67345540D01*
X39889399Y-67307445D01*
X39965589Y-67231255D01*
X40003684Y-67155064D01*
X40003684Y-67002683D01*
X39965589Y-66926493D01*
X39889399Y-66850302D01*
X39737018Y-66812207D01*
X39470351Y-66812207D01*
X39317970Y-66850302D01*
X39241780Y-66926493D01*
X39203684Y-67002683D01*
X39965589Y-67650302D02*
X40003684Y-67764588D01*
X40003684Y-67955064D01*
X39965589Y-68031255D01*
X39927494Y-68069350D01*
X39851303Y-68107445D01*
X39775113Y-68107445D01*
X39698922Y-68069350D01*
X39660827Y-68031255D01*
X39622732Y-67955064D01*
X39584637Y-67802683D01*
X39546541Y-67726493D01*
X39508446Y-67688398D01*
X39432256Y-67650302D01*
X39356065Y-67650302D01*
X39279875Y-67688398D01*
X39241780Y-67726493D01*
X39203684Y-67802683D01*
X39203684Y-67993160D01*
X39241780Y-68107445D01*
X40003684Y-68450302D02*
X39203684Y-68450302D01*
X37514484Y-65852197D02*
X36714484Y-65852197D01*
X37285913Y-66118863D01*
X36714484Y-66385530D01*
X37514484Y-66385530D01*
X37514484Y-66766482D02*
X36714484Y-66766482D01*
X37476389Y-67109340D02*
X37514484Y-67223625D01*
X37514484Y-67414101D01*
X37476389Y-67490292D01*
X37438294Y-67528387D01*
X37362103Y-67566482D01*
X37285913Y-67566482D01*
X37209722Y-67528387D01*
X37171627Y-67490292D01*
X37133532Y-67414101D01*
X37095437Y-67261720D01*
X37057341Y-67185530D01*
X37019246Y-67147435D01*
X36943056Y-67109340D01*
X36866865Y-67109340D01*
X36790675Y-67147435D01*
X36752580Y-67185530D01*
X36714484Y-67261720D01*
X36714484Y-67452197D01*
X36752580Y-67566482D01*
X36714484Y-68061720D02*
X36714484Y-68214101D01*
X36752580Y-68290292D01*
X36828770Y-68366482D01*
X36981151Y-68404578D01*
X37247818Y-68404578D01*
X37400199Y-68366482D01*
X37476389Y-68290292D01*
X37514484Y-68214101D01*
X37514484Y-68061720D01*
X37476389Y-67985530D01*
X37400199Y-67909340D01*
X37247818Y-67871244D01*
X36981151Y-67871244D01*
X36828770Y-67909340D01*
X36752580Y-67985530D01*
X36714484Y-68061720D01*
X34944009Y-66283968D02*
X34982104Y-66398254D01*
X34982104Y-66588730D01*
X34944009Y-66664920D01*
X34905914Y-66703016D01*
X34829723Y-66741111D01*
X34753533Y-66741111D01*
X34677342Y-66703016D01*
X34639247Y-66664920D01*
X34601152Y-66588730D01*
X34563057Y-66436349D01*
X34524961Y-66360159D01*
X34486866Y-66322063D01*
X34410676Y-66283968D01*
X34334485Y-66283968D01*
X34258295Y-66322063D01*
X34220200Y-66360159D01*
X34182104Y-66436349D01*
X34182104Y-66626825D01*
X34220200Y-66741111D01*
X34905914Y-67541111D02*
X34944009Y-67503016D01*
X34982104Y-67388730D01*
X34982104Y-67312540D01*
X34944009Y-67198254D01*
X34867819Y-67122063D01*
X34791628Y-67083968D01*
X34639247Y-67045873D01*
X34524961Y-67045873D01*
X34372580Y-67083968D01*
X34296390Y-67122063D01*
X34220200Y-67198254D01*
X34182104Y-67312540D01*
X34182104Y-67388730D01*
X34220200Y-67503016D01*
X34258295Y-67541111D01*
X34982104Y-67883968D02*
X34182104Y-67883968D01*
X34982104Y-68341111D02*
X34524961Y-67998254D01*
X34182104Y-68341111D02*
X34639247Y-67883968D01*
D13*
G04 #@! TO.C,U3*
X46036400Y-45335500D02*
X44586400Y-45335500D01*
X46036400Y-37595500D02*
X46036400Y-45335500D01*
X41136400Y-37595500D02*
X46036400Y-37595500D01*
X41136400Y-45335500D02*
X41136400Y-37595500D01*
X42586400Y-45335500D02*
X41136400Y-45335500D01*
X44586400Y-45335500D02*
G75*
G03X42586400Y-45335500I-1000000J0D01*
G01*
G04 #@! TO.C,R6*
X51774680Y-57221204D02*
X51774680Y-56017076D01*
X53594680Y-57221204D02*
X53594680Y-56017076D01*
G04 #@! TO.C,Q5*
X48825880Y-71212220D02*
X48825880Y-70282220D01*
X48825880Y-68052220D02*
X48825880Y-68982220D01*
X48825880Y-68052220D02*
X50985880Y-68052220D01*
X48825880Y-71212220D02*
X50285880Y-71212220D01*
G04 #@! TO.C,R17*
X51973564Y-43578100D02*
X50769436Y-43578100D01*
X51973564Y-45398100D02*
X50769436Y-45398100D01*
G04 #@! TO.C,R3*
X37829560Y-34929712D02*
X37829560Y-34407208D01*
X36409560Y-34929712D02*
X36409560Y-34407208D01*
G04 #@! TO.C,C8*
X51935464Y-49271600D02*
X50731336Y-49271600D01*
X51935464Y-47451600D02*
X50731336Y-47451600D01*
G04 #@! TO.C,J5*
X40401780Y-68842580D02*
X43511780Y-68842580D01*
X35321780Y-68842580D02*
X38881780Y-68842580D01*
X37861780Y-71502580D02*
X41421780Y-71502580D01*
X42941780Y-71502580D02*
X43511780Y-71502580D01*
X33231780Y-68842580D02*
X33801780Y-68842580D01*
X33801780Y-68842580D02*
X33801780Y-67322580D01*
X33231780Y-71502580D02*
X36341780Y-71502580D01*
X43511780Y-68842580D02*
X43511780Y-71502580D01*
X33231780Y-68842580D02*
X33231780Y-71502580D01*
G04 #@! TO.C,R2*
X56039936Y-43578100D02*
X57244064Y-43578100D01*
X56039936Y-45398100D02*
X57244064Y-45398100D01*
G04 #@! TO.C,R16*
X51986264Y-34679300D02*
X50782136Y-34679300D01*
X51986264Y-32859300D02*
X50782136Y-32859300D01*
G04 #@! TO.C,R1*
X56103436Y-32859300D02*
X57307564Y-32859300D01*
X56103436Y-34679300D02*
X57307564Y-34679300D01*
G04 #@! TO.C,R10*
X52024364Y-52916500D02*
X50820236Y-52916500D01*
X52024364Y-51096500D02*
X50820236Y-51096500D01*
G04 #@! TO.C,R7*
X55434820Y-57208504D02*
X55434820Y-56004376D01*
X57254820Y-57208504D02*
X57254820Y-56004376D01*
G04 #@! TO.C,R14*
X31769952Y-45772000D02*
X31247448Y-45772000D01*
X31769952Y-47192000D02*
X31247448Y-47192000D01*
G04 #@! TO.C,R8*
X47500908Y-67176720D02*
X48023412Y-67176720D01*
X47500908Y-65756720D02*
X48023412Y-65756720D01*
G04 #@! TO.C,D1*
X62613100Y-69200000D02*
X58713100Y-69200000D01*
X62613100Y-71200000D02*
X58713100Y-71200000D01*
X62613100Y-69200000D02*
X62613100Y-71200000D01*
G04 #@! TO.C,U2*
X46112600Y-34731000D02*
X44662600Y-34731000D01*
X46112600Y-26991000D02*
X46112600Y-34731000D01*
X41212600Y-26991000D02*
X46112600Y-26991000D01*
X41212600Y-34731000D02*
X41212600Y-26991000D01*
X42662600Y-34731000D02*
X41212600Y-34731000D01*
X44662600Y-34731000D02*
G75*
G03X42662600Y-34731000I-1000000J0D01*
G01*
G04 #@! TO.C,U4*
X41207520Y-56752180D02*
X42657520Y-56752180D01*
X41207520Y-64492180D02*
X41207520Y-56752180D01*
X46107520Y-64492180D02*
X41207520Y-64492180D01*
X46107520Y-56752180D02*
X46107520Y-64492180D01*
X44657520Y-56752180D02*
X46107520Y-56752180D01*
X42657520Y-56752180D02*
G75*
G03X44657520Y-56752180I1000000J0D01*
G01*
G04 #@! TO.C,R4*
X36440040Y-45430072D02*
X36440040Y-44907568D01*
X37860040Y-45430072D02*
X37860040Y-44907568D01*
G04 #@! TO.C,C1*
X53921576Y-59338800D02*
X55125704Y-59338800D01*
X53921576Y-61158800D02*
X55125704Y-61158800D01*
G04 #@! TO.C,R5*
X31260148Y-49960600D02*
X31782652Y-49960600D01*
X31260148Y-48540600D02*
X31782652Y-48540600D01*
G04 #@! TO.C,J3*
X29924700Y-44687800D02*
X31254700Y-44687800D01*
X29924700Y-43357800D02*
X29924700Y-44687800D01*
X29924700Y-42087800D02*
X32584700Y-42087800D01*
X32584700Y-42087800D02*
X32584700Y-31867800D01*
X29924700Y-42087800D02*
X29924700Y-31867800D01*
X29924700Y-31867800D02*
X32584700Y-31867800D01*
G04 #@! TO.C,R9*
X54894112Y-71110000D02*
X54371608Y-71110000D01*
X54894112Y-69690000D02*
X54371608Y-69690000D01*
G04 #@! TO.C,D2*
X52137940Y-63126260D02*
X52637940Y-63126260D01*
X52637940Y-63126260D02*
X52637940Y-61726260D01*
X53837940Y-67526260D02*
X55437940Y-67526260D01*
X53837940Y-63126260D02*
X55437940Y-63126260D01*
X52937940Y-67526260D02*
X52137940Y-67526260D01*
X52137940Y-67526260D02*
X52137940Y-63126260D01*
X56337940Y-67526260D02*
X57137940Y-67526260D01*
X57137940Y-67526260D02*
X57137940Y-63126260D01*
X57137940Y-63126260D02*
X56337940Y-63126260D01*
D12*
G04 #@! TO.C,U6*
X29103400Y-58135700D02*
X29128400Y-58135700D01*
X29103400Y-62285700D02*
X29218400Y-62285700D01*
X38003400Y-62285700D02*
X37888400Y-62285700D01*
X38003400Y-58135700D02*
X37888400Y-58135700D01*
X29103400Y-58135700D02*
X29103400Y-62285700D01*
X38003400Y-58135700D02*
X38003400Y-62285700D01*
X29128400Y-58135700D02*
X29128400Y-56760700D01*
D13*
G04 #@! TO.C,J4*
X72767500Y-68259000D02*
X70107500Y-68259000D01*
X72767500Y-58039000D02*
X72767500Y-68259000D01*
X70107500Y-58039000D02*
X70107500Y-68259000D01*
X72767500Y-58039000D02*
X70107500Y-58039000D01*
X72767500Y-56769000D02*
X72767500Y-55439000D01*
X72767500Y-55439000D02*
X71437500Y-55439000D01*
G04 #@! TO.C,U7*
X42649900Y-48047600D02*
G75*
G03X44649900Y-48047600I1000000J0D01*
G01*
X44649900Y-48047600D02*
X46099900Y-48047600D01*
X46099900Y-48047600D02*
X46099900Y-55787600D01*
X46099900Y-55787600D02*
X41199900Y-55787600D01*
X41199900Y-55787600D02*
X41199900Y-48047600D01*
X41199900Y-48047600D02*
X42649900Y-48047600D01*
G04 #@! TO.C,U3*
D12*
X48287844Y-36800540D02*
X48287844Y-37610064D01*
X48240225Y-37705302D01*
X48192606Y-37752921D01*
X48097368Y-37800540D01*
X47906892Y-37800540D01*
X47811654Y-37752921D01*
X47764035Y-37705302D01*
X47716416Y-37610064D01*
X47716416Y-36800540D01*
X47335463Y-36800540D02*
X46716416Y-36800540D01*
X47049749Y-37181493D01*
X46906892Y-37181493D01*
X46811654Y-37229112D01*
X46764035Y-37276731D01*
X46716416Y-37371969D01*
X46716416Y-37610064D01*
X46764035Y-37705302D01*
X46811654Y-37752921D01*
X46906892Y-37800540D01*
X47192606Y-37800540D01*
X47287844Y-37752921D01*
X47335463Y-37705302D01*
G04 #@! TO.C,R6*
X50689806Y-57091840D02*
X51023140Y-56615650D01*
X51261235Y-57091840D02*
X51261235Y-56091840D01*
X50880282Y-56091840D01*
X50785044Y-56139460D01*
X50737425Y-56187079D01*
X50689806Y-56282317D01*
X50689806Y-56425174D01*
X50737425Y-56520412D01*
X50785044Y-56568031D01*
X50880282Y-56615650D01*
X51261235Y-56615650D01*
X49832663Y-56091840D02*
X50023140Y-56091840D01*
X50118378Y-56139460D01*
X50165997Y-56187079D01*
X50261235Y-56329936D01*
X50308854Y-56520412D01*
X50308854Y-56901364D01*
X50261235Y-56996602D01*
X50213616Y-57044221D01*
X50118378Y-57091840D01*
X49927901Y-57091840D01*
X49832663Y-57044221D01*
X49785044Y-56996602D01*
X49737425Y-56901364D01*
X49737425Y-56663269D01*
X49785044Y-56568031D01*
X49832663Y-56520412D01*
X49927901Y-56472793D01*
X50118378Y-56472793D01*
X50213616Y-56520412D01*
X50261235Y-56568031D01*
X50308854Y-56663269D01*
G04 #@! TO.C,Q5*
X47730398Y-68752359D02*
X47825636Y-68704740D01*
X47920874Y-68609501D01*
X48063731Y-68466644D01*
X48158969Y-68419025D01*
X48254207Y-68419025D01*
X48206588Y-68657120D02*
X48301826Y-68609501D01*
X48397064Y-68514263D01*
X48444683Y-68323787D01*
X48444683Y-67990454D01*
X48397064Y-67799978D01*
X48301826Y-67704740D01*
X48206588Y-67657120D01*
X48016112Y-67657120D01*
X47920874Y-67704740D01*
X47825636Y-67799978D01*
X47778017Y-67990454D01*
X47778017Y-68323787D01*
X47825636Y-68514263D01*
X47920874Y-68609501D01*
X48016112Y-68657120D01*
X48206588Y-68657120D01*
X46873255Y-67657120D02*
X47349445Y-67657120D01*
X47397064Y-68133311D01*
X47349445Y-68085692D01*
X47254207Y-68038073D01*
X47016112Y-68038073D01*
X46920874Y-68085692D01*
X46873255Y-68133311D01*
X46825636Y-68228549D01*
X46825636Y-68466644D01*
X46873255Y-68561882D01*
X46920874Y-68609501D01*
X47016112Y-68657120D01*
X47254207Y-68657120D01*
X47349445Y-68609501D01*
X47397064Y-68561882D01*
G04 #@! TO.C,R17*
X52014357Y-43120480D02*
X52347690Y-42644290D01*
X52585785Y-43120480D02*
X52585785Y-42120480D01*
X52204833Y-42120480D01*
X52109595Y-42168100D01*
X52061976Y-42215719D01*
X52014357Y-42310957D01*
X52014357Y-42453814D01*
X52061976Y-42549052D01*
X52109595Y-42596671D01*
X52204833Y-42644290D01*
X52585785Y-42644290D01*
X51061976Y-43120480D02*
X51633404Y-43120480D01*
X51347690Y-43120480D02*
X51347690Y-42120480D01*
X51442928Y-42263338D01*
X51538166Y-42358576D01*
X51633404Y-42406195D01*
X50728642Y-42120480D02*
X50061976Y-42120480D01*
X50490547Y-43120480D01*
G04 #@! TO.C,R3*
X37222726Y-32352240D02*
X37556060Y-31876050D01*
X37794155Y-32352240D02*
X37794155Y-31352240D01*
X37413202Y-31352240D01*
X37317964Y-31399860D01*
X37270345Y-31447479D01*
X37222726Y-31542717D01*
X37222726Y-31685574D01*
X37270345Y-31780812D01*
X37317964Y-31828431D01*
X37413202Y-31876050D01*
X37794155Y-31876050D01*
X36889393Y-31352240D02*
X36270345Y-31352240D01*
X36603679Y-31733193D01*
X36460821Y-31733193D01*
X36365583Y-31780812D01*
X36317964Y-31828431D01*
X36270345Y-31923669D01*
X36270345Y-32161764D01*
X36317964Y-32257002D01*
X36365583Y-32304621D01*
X36460821Y-32352240D01*
X36746536Y-32352240D01*
X36841774Y-32304621D01*
X36889393Y-32257002D01*
G04 #@! TO.C,C8*
X51500066Y-46898742D02*
X51547685Y-46946361D01*
X51690542Y-46993980D01*
X51785780Y-46993980D01*
X51928638Y-46946361D01*
X52023876Y-46851123D01*
X52071495Y-46755885D01*
X52119114Y-46565409D01*
X52119114Y-46422552D01*
X52071495Y-46232076D01*
X52023876Y-46136838D01*
X51928638Y-46041600D01*
X51785780Y-45993980D01*
X51690542Y-45993980D01*
X51547685Y-46041600D01*
X51500066Y-46089219D01*
X50928638Y-46422552D02*
X51023876Y-46374933D01*
X51071495Y-46327314D01*
X51119114Y-46232076D01*
X51119114Y-46184457D01*
X51071495Y-46089219D01*
X51023876Y-46041600D01*
X50928638Y-45993980D01*
X50738161Y-45993980D01*
X50642923Y-46041600D01*
X50595304Y-46089219D01*
X50547685Y-46184457D01*
X50547685Y-46232076D01*
X50595304Y-46327314D01*
X50642923Y-46374933D01*
X50738161Y-46422552D01*
X50928638Y-46422552D01*
X51023876Y-46470171D01*
X51071495Y-46517790D01*
X51119114Y-46613028D01*
X51119114Y-46803504D01*
X51071495Y-46898742D01*
X51023876Y-46946361D01*
X50928638Y-46993980D01*
X50738161Y-46993980D01*
X50642923Y-46946361D01*
X50595304Y-46898742D01*
X50547685Y-46803504D01*
X50547685Y-46613028D01*
X50595304Y-46517790D01*
X50642923Y-46470171D01*
X50738161Y-46422552D01*
G04 #@! TO.C,R2*
X56783266Y-43116760D02*
X57116600Y-42640570D01*
X57354695Y-43116760D02*
X57354695Y-42116760D01*
X56973742Y-42116760D01*
X56878504Y-42164380D01*
X56830885Y-42211999D01*
X56783266Y-42307237D01*
X56783266Y-42450094D01*
X56830885Y-42545332D01*
X56878504Y-42592951D01*
X56973742Y-42640570D01*
X57354695Y-42640570D01*
X56402314Y-42211999D02*
X56354695Y-42164380D01*
X56259457Y-42116760D01*
X56021361Y-42116760D01*
X55926123Y-42164380D01*
X55878504Y-42211999D01*
X55830885Y-42307237D01*
X55830885Y-42402475D01*
X55878504Y-42545332D01*
X56449933Y-43116760D01*
X55830885Y-43116760D01*
G04 #@! TO.C,R16*
X52027057Y-32401680D02*
X52360390Y-31925490D01*
X52598485Y-32401680D02*
X52598485Y-31401680D01*
X52217533Y-31401680D01*
X52122295Y-31449300D01*
X52074676Y-31496919D01*
X52027057Y-31592157D01*
X52027057Y-31735014D01*
X52074676Y-31830252D01*
X52122295Y-31877871D01*
X52217533Y-31925490D01*
X52598485Y-31925490D01*
X51074676Y-32401680D02*
X51646104Y-32401680D01*
X51360390Y-32401680D02*
X51360390Y-31401680D01*
X51455628Y-31544538D01*
X51550866Y-31639776D01*
X51646104Y-31687395D01*
X50217533Y-31401680D02*
X50408009Y-31401680D01*
X50503247Y-31449300D01*
X50550866Y-31496919D01*
X50646104Y-31639776D01*
X50693723Y-31830252D01*
X50693723Y-32211204D01*
X50646104Y-32306442D01*
X50598485Y-32354061D01*
X50503247Y-32401680D01*
X50312771Y-32401680D01*
X50217533Y-32354061D01*
X50169914Y-32306442D01*
X50122295Y-32211204D01*
X50122295Y-31973109D01*
X50169914Y-31877871D01*
X50217533Y-31830252D01*
X50312771Y-31782633D01*
X50503247Y-31782633D01*
X50598485Y-31830252D01*
X50646104Y-31877871D01*
X50693723Y-31973109D01*
G04 #@! TO.C,R1*
X56917886Y-32428440D02*
X57251220Y-31952250D01*
X57489315Y-32428440D02*
X57489315Y-31428440D01*
X57108362Y-31428440D01*
X57013124Y-31476060D01*
X56965505Y-31523679D01*
X56917886Y-31618917D01*
X56917886Y-31761774D01*
X56965505Y-31857012D01*
X57013124Y-31904631D01*
X57108362Y-31952250D01*
X57489315Y-31952250D01*
X55965505Y-32428440D02*
X56536934Y-32428440D01*
X56251220Y-32428440D02*
X56251220Y-31428440D01*
X56346458Y-31571298D01*
X56441696Y-31666536D01*
X56536934Y-31714155D01*
G04 #@! TO.C,R10*
X52065157Y-50638880D02*
X52398490Y-50162690D01*
X52636585Y-50638880D02*
X52636585Y-49638880D01*
X52255633Y-49638880D01*
X52160395Y-49686500D01*
X52112776Y-49734119D01*
X52065157Y-49829357D01*
X52065157Y-49972214D01*
X52112776Y-50067452D01*
X52160395Y-50115071D01*
X52255633Y-50162690D01*
X52636585Y-50162690D01*
X51112776Y-50638880D02*
X51684204Y-50638880D01*
X51398490Y-50638880D02*
X51398490Y-49638880D01*
X51493728Y-49781738D01*
X51588966Y-49876976D01*
X51684204Y-49924595D01*
X50493728Y-49638880D02*
X50398490Y-49638880D01*
X50303252Y-49686500D01*
X50255633Y-49734119D01*
X50208014Y-49829357D01*
X50160395Y-50019833D01*
X50160395Y-50257928D01*
X50208014Y-50448404D01*
X50255633Y-50543642D01*
X50303252Y-50591261D01*
X50398490Y-50638880D01*
X50493728Y-50638880D01*
X50588966Y-50591261D01*
X50636585Y-50543642D01*
X50684204Y-50448404D01*
X50731823Y-50257928D01*
X50731823Y-50019833D01*
X50684204Y-49829357D01*
X50636585Y-49734119D01*
X50588966Y-49686500D01*
X50493728Y-49638880D01*
G04 #@! TO.C,R7*
X59079426Y-57137560D02*
X59412760Y-56661370D01*
X59650855Y-57137560D02*
X59650855Y-56137560D01*
X59269902Y-56137560D01*
X59174664Y-56185180D01*
X59127045Y-56232799D01*
X59079426Y-56328037D01*
X59079426Y-56470894D01*
X59127045Y-56566132D01*
X59174664Y-56613751D01*
X59269902Y-56661370D01*
X59650855Y-56661370D01*
X58746093Y-56137560D02*
X58079426Y-56137560D01*
X58507998Y-57137560D01*
G04 #@! TO.C,R14*
X35529757Y-49837600D02*
X35863090Y-49361410D01*
X36101185Y-49837600D02*
X36101185Y-48837600D01*
X35720233Y-48837600D01*
X35624995Y-48885220D01*
X35577376Y-48932839D01*
X35529757Y-49028077D01*
X35529757Y-49170934D01*
X35577376Y-49266172D01*
X35624995Y-49313791D01*
X35720233Y-49361410D01*
X36101185Y-49361410D01*
X34577376Y-49837600D02*
X35148804Y-49837600D01*
X34863090Y-49837600D02*
X34863090Y-48837600D01*
X34958328Y-48980458D01*
X35053566Y-49075696D01*
X35148804Y-49123315D01*
X33720233Y-49170934D02*
X33720233Y-49837600D01*
X33958328Y-48789981D02*
X34196423Y-49504267D01*
X33577376Y-49504267D01*
G04 #@! TO.C,R8*
X50971746Y-66947040D02*
X51305080Y-66470850D01*
X51543175Y-66947040D02*
X51543175Y-65947040D01*
X51162222Y-65947040D01*
X51066984Y-65994660D01*
X51019365Y-66042279D01*
X50971746Y-66137517D01*
X50971746Y-66280374D01*
X51019365Y-66375612D01*
X51066984Y-66423231D01*
X51162222Y-66470850D01*
X51543175Y-66470850D01*
X50400318Y-66375612D02*
X50495556Y-66327993D01*
X50543175Y-66280374D01*
X50590794Y-66185136D01*
X50590794Y-66137517D01*
X50543175Y-66042279D01*
X50495556Y-65994660D01*
X50400318Y-65947040D01*
X50209841Y-65947040D01*
X50114603Y-65994660D01*
X50066984Y-66042279D01*
X50019365Y-66137517D01*
X50019365Y-66185136D01*
X50066984Y-66280374D01*
X50114603Y-66327993D01*
X50209841Y-66375612D01*
X50400318Y-66375612D01*
X50495556Y-66423231D01*
X50543175Y-66470850D01*
X50590794Y-66566088D01*
X50590794Y-66756564D01*
X50543175Y-66851802D01*
X50495556Y-66899421D01*
X50400318Y-66947040D01*
X50209841Y-66947040D01*
X50114603Y-66899421D01*
X50066984Y-66851802D01*
X50019365Y-66756564D01*
X50019365Y-66566088D01*
X50066984Y-66470850D01*
X50114603Y-66423231D01*
X50209841Y-66375612D01*
G04 #@! TO.C,D1*
X64662275Y-70802240D02*
X64662275Y-69802240D01*
X64424180Y-69802240D01*
X64281322Y-69849860D01*
X64186084Y-69945098D01*
X64138465Y-70040336D01*
X64090846Y-70230812D01*
X64090846Y-70373669D01*
X64138465Y-70564145D01*
X64186084Y-70659383D01*
X64281322Y-70754621D01*
X64424180Y-70802240D01*
X64662275Y-70802240D01*
X63138465Y-70802240D02*
X63709894Y-70802240D01*
X63424180Y-70802240D02*
X63424180Y-69802240D01*
X63519418Y-69945098D01*
X63614656Y-70040336D01*
X63709894Y-70087955D01*
G04 #@! TO.C,U2*
X48328484Y-34887920D02*
X48328484Y-35697444D01*
X48280865Y-35792682D01*
X48233246Y-35840301D01*
X48138008Y-35887920D01*
X47947532Y-35887920D01*
X47852294Y-35840301D01*
X47804675Y-35792682D01*
X47757056Y-35697444D01*
X47757056Y-34887920D01*
X47328484Y-34983159D02*
X47280865Y-34935540D01*
X47185627Y-34887920D01*
X46947532Y-34887920D01*
X46852294Y-34935540D01*
X46804675Y-34983159D01*
X46757056Y-35078397D01*
X46757056Y-35173635D01*
X46804675Y-35316492D01*
X47376103Y-35887920D01*
X46757056Y-35887920D01*
G04 #@! TO.C,U4*
X48249744Y-55825140D02*
X48249744Y-56634664D01*
X48202125Y-56729902D01*
X48154506Y-56777521D01*
X48059268Y-56825140D01*
X47868792Y-56825140D01*
X47773554Y-56777521D01*
X47725935Y-56729902D01*
X47678316Y-56634664D01*
X47678316Y-55825140D01*
X46773554Y-56158474D02*
X46773554Y-56825140D01*
X47011649Y-55777521D02*
X47249744Y-56491807D01*
X46630697Y-56491807D01*
G04 #@! TO.C,R4*
X37278606Y-42964360D02*
X37611940Y-42488170D01*
X37850035Y-42964360D02*
X37850035Y-41964360D01*
X37469082Y-41964360D01*
X37373844Y-42011980D01*
X37326225Y-42059599D01*
X37278606Y-42154837D01*
X37278606Y-42297694D01*
X37326225Y-42392932D01*
X37373844Y-42440551D01*
X37469082Y-42488170D01*
X37850035Y-42488170D01*
X36421463Y-42297694D02*
X36421463Y-42964360D01*
X36659559Y-41916741D02*
X36897654Y-42631027D01*
X36278606Y-42631027D01*
G04 #@! TO.C,C1*
X59031166Y-60705002D02*
X59078785Y-60752621D01*
X59221642Y-60800240D01*
X59316880Y-60800240D01*
X59459738Y-60752621D01*
X59554976Y-60657383D01*
X59602595Y-60562145D01*
X59650214Y-60371669D01*
X59650214Y-60228812D01*
X59602595Y-60038336D01*
X59554976Y-59943098D01*
X59459738Y-59847860D01*
X59316880Y-59800240D01*
X59221642Y-59800240D01*
X59078785Y-59847860D01*
X59031166Y-59895479D01*
X58078785Y-60800240D02*
X58650214Y-60800240D01*
X58364500Y-60800240D02*
X58364500Y-59800240D01*
X58459738Y-59943098D01*
X58554976Y-60038336D01*
X58650214Y-60085955D01*
G04 #@! TO.C,R5*
X34583666Y-47023280D02*
X34917000Y-46547090D01*
X35155095Y-47023280D02*
X35155095Y-46023280D01*
X34774142Y-46023280D01*
X34678904Y-46070900D01*
X34631285Y-46118519D01*
X34583666Y-46213757D01*
X34583666Y-46356614D01*
X34631285Y-46451852D01*
X34678904Y-46499471D01*
X34774142Y-46547090D01*
X35155095Y-46547090D01*
X33678904Y-46023280D02*
X34155095Y-46023280D01*
X34202714Y-46499471D01*
X34155095Y-46451852D01*
X34059857Y-46404233D01*
X33821761Y-46404233D01*
X33726523Y-46451852D01*
X33678904Y-46499471D01*
X33631285Y-46594709D01*
X33631285Y-46832804D01*
X33678904Y-46928042D01*
X33726523Y-46975661D01*
X33821761Y-47023280D01*
X34059857Y-47023280D01*
X34155095Y-46975661D01*
X34202714Y-46928042D01*
G04 #@! TO.C,J3*
X31684553Y-29942540D02*
X31684553Y-30656826D01*
X31732172Y-30799683D01*
X31827410Y-30894921D01*
X31970267Y-30942540D01*
X32065505Y-30942540D01*
X31303600Y-29942540D02*
X30684553Y-29942540D01*
X31017886Y-30323493D01*
X30875029Y-30323493D01*
X30779791Y-30371112D01*
X30732172Y-30418731D01*
X30684553Y-30513969D01*
X30684553Y-30752064D01*
X30732172Y-30847302D01*
X30779791Y-30894921D01*
X30875029Y-30942540D01*
X31160743Y-30942540D01*
X31255981Y-30894921D01*
X31303600Y-30847302D01*
G04 #@! TO.C,R9*
X57387786Y-70915880D02*
X57721120Y-70439690D01*
X57959215Y-70915880D02*
X57959215Y-69915880D01*
X57578262Y-69915880D01*
X57483024Y-69963500D01*
X57435405Y-70011119D01*
X57387786Y-70106357D01*
X57387786Y-70249214D01*
X57435405Y-70344452D01*
X57483024Y-70392071D01*
X57578262Y-70439690D01*
X57959215Y-70439690D01*
X56911596Y-70915880D02*
X56721120Y-70915880D01*
X56625881Y-70868261D01*
X56578262Y-70820642D01*
X56483024Y-70677785D01*
X56435405Y-70487309D01*
X56435405Y-70106357D01*
X56483024Y-70011119D01*
X56530643Y-69963500D01*
X56625881Y-69915880D01*
X56816358Y-69915880D01*
X56911596Y-69963500D01*
X56959215Y-70011119D01*
X57006834Y-70106357D01*
X57006834Y-70344452D01*
X56959215Y-70439690D01*
X56911596Y-70487309D01*
X56816358Y-70534928D01*
X56625881Y-70534928D01*
X56530643Y-70487309D01*
X56483024Y-70439690D01*
X56435405Y-70344452D01*
G04 #@! TO.C,D2*
X59094595Y-65715140D02*
X59094595Y-64715140D01*
X58856500Y-64715140D01*
X58713642Y-64762760D01*
X58618404Y-64857998D01*
X58570785Y-64953236D01*
X58523166Y-65143712D01*
X58523166Y-65286569D01*
X58570785Y-65477045D01*
X58618404Y-65572283D01*
X58713642Y-65667521D01*
X58856500Y-65715140D01*
X59094595Y-65715140D01*
X58142214Y-64810379D02*
X58094595Y-64762760D01*
X57999357Y-64715140D01*
X57761261Y-64715140D01*
X57666023Y-64762760D01*
X57618404Y-64810379D01*
X57570785Y-64905617D01*
X57570785Y-65000855D01*
X57618404Y-65143712D01*
X58189833Y-65715140D01*
X57570785Y-65715140D01*
G04 #@! TO.C,U6*
X37624924Y-55177440D02*
X37624924Y-55986964D01*
X37577305Y-56082202D01*
X37529686Y-56129821D01*
X37434448Y-56177440D01*
X37243972Y-56177440D01*
X37148734Y-56129821D01*
X37101115Y-56082202D01*
X37053496Y-55986964D01*
X37053496Y-55177440D01*
X36148734Y-55177440D02*
X36339210Y-55177440D01*
X36434448Y-55225060D01*
X36482067Y-55272679D01*
X36577305Y-55415536D01*
X36624924Y-55606012D01*
X36624924Y-55986964D01*
X36577305Y-56082202D01*
X36529686Y-56129821D01*
X36434448Y-56177440D01*
X36243972Y-56177440D01*
X36148734Y-56129821D01*
X36101115Y-56082202D01*
X36053496Y-55986964D01*
X36053496Y-55748869D01*
X36101115Y-55653631D01*
X36148734Y-55606012D01*
X36243972Y-55558393D01*
X36434448Y-55558393D01*
X36529686Y-55606012D01*
X36577305Y-55653631D01*
X36624924Y-55748869D01*
G04 #@! TO.C,J4*
X72007053Y-69035680D02*
X72007053Y-69749966D01*
X72054672Y-69892823D01*
X72149910Y-69988061D01*
X72292767Y-70035680D01*
X72388005Y-70035680D01*
X71102291Y-69369014D02*
X71102291Y-70035680D01*
X71340386Y-68988061D02*
X71578481Y-69702347D01*
X70959434Y-69702347D01*
G04 #@! TO.C,U7*
X48206564Y-46973240D02*
X48206564Y-47782764D01*
X48158945Y-47878002D01*
X48111326Y-47925621D01*
X48016088Y-47973240D01*
X47825612Y-47973240D01*
X47730374Y-47925621D01*
X47682755Y-47878002D01*
X47635136Y-47782764D01*
X47635136Y-46973240D01*
X47254183Y-46973240D02*
X46587517Y-46973240D01*
X47016088Y-47973240D01*
G04 #@! TD*
M02*
