G04 #@! TF.GenerationSoftware,KiCad,Pcbnew,5.0.1*
G04 #@! TF.CreationDate,2019-01-05T16:55:50+01:00*
G04 #@! TF.ProjectId,sensor_board-ac-7 -without-regulator-2,73656E736F725F626F6172642D61632D,V1.2*
G04 #@! TF.SameCoordinates,Original*
G04 #@! TF.FileFunction,Legend,Top*
G04 #@! TF.FilePolarity,Positive*
%FSLAX46Y46*%
G04 Gerber Fmt 4.6, Leading zero omitted, Abs format (unit mm)*
G04 Created by KiCad (PCBNEW 5.0.1) date Sat 05 Jan 2019 04:55:50 PM CET*
%MOMM*%
%LPD*%
G01*
G04 APERTURE LIST*
%ADD10C,0.120000*%
%ADD11C,0.150000*%
%ADD12C,0.127000*%
G04 APERTURE END LIST*
D10*
G04 #@! TO.C,C7*
X33533164Y-49596720D02*
X32329036Y-49596720D01*
X33533164Y-47776720D02*
X32329036Y-47776720D01*
G04 #@! TO.C,F1*
X65737740Y-60398900D02*
X65737740Y-58738900D01*
X67657740Y-62318900D02*
G75*
G03X67657740Y-62318900I-1920000J0D01*
G01*
G04 #@! TO.C,J1*
X73854580Y-55461820D02*
X73854580Y-53461820D01*
X71614580Y-55461820D02*
X73854580Y-55461820D01*
X64554580Y-30611820D02*
X69954580Y-30611820D01*
X64554580Y-34711820D02*
X69954580Y-34711820D01*
X69954580Y-34711820D02*
X69954580Y-30611820D01*
X64554580Y-31777820D02*
X64554580Y-30611820D01*
X64554580Y-34711820D02*
X64554580Y-33544820D01*
X64554580Y-35611820D02*
X69954580Y-35611820D01*
X64554580Y-39711820D02*
X69954580Y-39711820D01*
X69954580Y-39711820D02*
X69954580Y-35611820D01*
X64554580Y-36777820D02*
X64554580Y-35611820D01*
X64554580Y-39711820D02*
X64554580Y-38544820D01*
X64554580Y-40611820D02*
X69954580Y-40611820D01*
X64554580Y-44711820D02*
X69954580Y-44711820D01*
X69954580Y-44711820D02*
X69954580Y-40611820D01*
X64554580Y-41777820D02*
X64554580Y-40611820D01*
X64554580Y-44711820D02*
X64554580Y-43544820D01*
X64554580Y-45611820D02*
X69954580Y-45611820D01*
X64554580Y-49711820D02*
X69954580Y-49711820D01*
X69954580Y-49711820D02*
X69954580Y-45611820D01*
X64554580Y-46777820D02*
X64554580Y-45611820D01*
X64554580Y-49711820D02*
X64554580Y-48544820D01*
X64554580Y-50611820D02*
X69954580Y-50611820D01*
X64554580Y-54711820D02*
X69954580Y-54711820D01*
X69954580Y-54711820D02*
X69954580Y-50611820D01*
X64554580Y-51171820D02*
X64554580Y-50611820D01*
X64554580Y-54711820D02*
X64554580Y-54151820D01*
X63494580Y-30101820D02*
X73614580Y-30101820D01*
X63494580Y-55221820D02*
X73614580Y-55221820D01*
X73614580Y-55221820D02*
X73614580Y-30101820D01*
X63494580Y-55221820D02*
X63494580Y-30101820D01*
X70054580Y-55221820D02*
X70054580Y-30101820D01*
D11*
G04 #@! TO.C,REF\002A\002A*
X62661180Y-42600880D02*
X47661180Y-42600880D01*
X62661180Y-42600880D02*
X62661180Y-37600880D01*
X62661180Y-37600880D02*
X60961180Y-37600880D01*
X60961180Y-37600880D02*
X60961180Y-42600880D01*
X47661180Y-42600880D02*
X47661180Y-37600880D01*
X47661180Y-37600880D02*
X49361180Y-37600880D01*
X49361180Y-37600880D02*
X49361180Y-42600880D01*
X47661180Y-42600880D02*
X47661180Y-44300880D01*
X47661180Y-44300880D02*
X49361180Y-44300880D01*
X49361180Y-44300880D02*
X49361180Y-42500880D01*
X62661180Y-42600880D02*
X62661180Y-44300880D01*
X62661180Y-44300880D02*
X60961180Y-44300880D01*
X60961180Y-44300880D02*
X60961180Y-42600880D01*
X49361180Y-44300880D02*
X61061180Y-44300880D01*
X47661180Y-42600880D02*
X47661180Y-47600880D01*
X47661180Y-47600880D02*
X49361180Y-47600880D01*
X49361180Y-47600880D02*
X49361180Y-43500880D01*
X60961180Y-44300880D02*
X60961180Y-47600880D01*
X60961180Y-47600880D02*
X62661180Y-47600880D01*
X62661180Y-47600880D02*
X62661180Y-44300880D01*
X50261180Y-44300880D02*
X50261180Y-47600880D01*
X50261180Y-47600880D02*
X51961180Y-47600880D01*
X51961180Y-47600880D02*
X51961180Y-44300880D01*
X55661180Y-47600880D02*
X57361180Y-47600880D01*
X55661180Y-44300880D02*
X55661180Y-47600880D01*
X57361180Y-47600880D02*
X57361180Y-44300880D01*
X58361180Y-47600880D02*
X60061180Y-47600880D01*
X58361180Y-44300880D02*
X58361180Y-47600880D01*
X60061180Y-47600880D02*
X60061180Y-44300880D01*
X54761180Y-47600880D02*
X54761180Y-44300880D01*
X53061180Y-44300880D02*
X53061180Y-47600880D01*
X53061180Y-47600880D02*
X54761180Y-47600880D01*
X62717060Y-31945580D02*
X47717060Y-31945580D01*
X62717060Y-31945580D02*
X62717060Y-26945580D01*
X62717060Y-26945580D02*
X61017060Y-26945580D01*
X61017060Y-26945580D02*
X61017060Y-31945580D01*
X47717060Y-31945580D02*
X47717060Y-26945580D01*
X47717060Y-26945580D02*
X49417060Y-26945580D01*
X49417060Y-26945580D02*
X49417060Y-31945580D01*
X47717060Y-31945580D02*
X47717060Y-33645580D01*
X47717060Y-33645580D02*
X49417060Y-33645580D01*
X49417060Y-33645580D02*
X49417060Y-31845580D01*
X62717060Y-31945580D02*
X62717060Y-33645580D01*
X62717060Y-33645580D02*
X61017060Y-33645580D01*
X61017060Y-33645580D02*
X61017060Y-31945580D01*
X49417060Y-33645580D02*
X61117060Y-33645580D01*
X47717060Y-31945580D02*
X47717060Y-36945580D01*
X47717060Y-36945580D02*
X49417060Y-36945580D01*
X49417060Y-36945580D02*
X49417060Y-32845580D01*
X61017060Y-33645580D02*
X61017060Y-36945580D01*
X61017060Y-36945580D02*
X62717060Y-36945580D01*
X62717060Y-36945580D02*
X62717060Y-33645580D01*
X50317060Y-33645580D02*
X50317060Y-36945580D01*
X50317060Y-36945580D02*
X52017060Y-36945580D01*
X52017060Y-36945580D02*
X52017060Y-33645580D01*
X55717060Y-36945580D02*
X57417060Y-36945580D01*
X55717060Y-33645580D02*
X55717060Y-36945580D01*
X57417060Y-36945580D02*
X57417060Y-33645580D01*
X58417060Y-36945580D02*
X60117060Y-36945580D01*
X58417060Y-33645580D02*
X58417060Y-36945580D01*
X60117060Y-36945580D02*
X60117060Y-33645580D01*
X54817060Y-36945580D02*
X54817060Y-33645580D01*
X53117060Y-33645580D02*
X53117060Y-36945580D01*
X53117060Y-36945580D02*
X54817060Y-36945580D01*
D10*
G04 #@! TO.C,J2*
X37908540Y-29137300D02*
X37908540Y-30467300D01*
X36578540Y-29137300D02*
X37908540Y-29137300D01*
X35308540Y-29137300D02*
X35308540Y-31797300D01*
X35308540Y-31797300D02*
X32708540Y-31797300D01*
X35308540Y-29137300D02*
X32708540Y-29137300D01*
X32708540Y-29137300D02*
X32708540Y-31797300D01*
G04 #@! TO.C,C2*
X67036220Y-65711878D02*
X66636220Y-65711879D01*
X66836221Y-65511879D02*
X66836220Y-65911879D01*
X66011221Y-69862680D02*
X65271219Y-69862680D01*
X66178220Y-69822680D02*
X65104220Y-69822680D01*
X66305219Y-69782680D02*
X64977221Y-69782680D01*
X66409220Y-69742680D02*
X64873220Y-69742680D01*
X66500220Y-69702680D02*
X64782220Y-69702680D01*
X66581220Y-69662680D02*
X64701220Y-69662680D01*
X66654220Y-69622680D02*
X64628220Y-69622680D01*
X64801220Y-69582680D02*
X64561220Y-69582680D01*
X66721220Y-69582680D02*
X66481220Y-69582680D01*
X64801220Y-69542680D02*
X64499220Y-69542680D01*
X66783220Y-69542680D02*
X66481220Y-69542680D01*
X64801220Y-69502680D02*
X64441219Y-69502680D01*
X66841221Y-69502680D02*
X66481220Y-69502680D01*
X64801220Y-69462680D02*
X64387220Y-69462680D01*
X66895220Y-69462680D02*
X66481220Y-69462680D01*
X64801220Y-69422680D02*
X64337220Y-69422680D01*
X66945220Y-69422680D02*
X66481220Y-69422680D01*
X64801220Y-69382680D02*
X64290220Y-69382680D01*
X66992220Y-69382680D02*
X66481220Y-69382680D01*
X64801220Y-69342680D02*
X64245219Y-69342680D01*
X67037221Y-69342680D02*
X66481220Y-69342680D01*
X64801220Y-69302680D02*
X64203220Y-69302680D01*
X67079220Y-69302680D02*
X66481220Y-69302680D01*
X64801220Y-69262680D02*
X64163220Y-69262680D01*
X67119220Y-69262680D02*
X66481220Y-69262680D01*
X64801220Y-69222680D02*
X64125220Y-69222680D01*
X67157220Y-69222680D02*
X66481220Y-69222680D01*
X64801220Y-69182680D02*
X64089220Y-69182680D01*
X67193220Y-69182680D02*
X66481220Y-69182680D01*
X64801220Y-69142680D02*
X64054220Y-69142681D01*
X67228220Y-69142681D02*
X66481220Y-69142680D01*
X64801220Y-69102680D02*
X64022220Y-69102680D01*
X67260220Y-69102680D02*
X66481220Y-69102680D01*
X64801220Y-69062680D02*
X63991220Y-69062680D01*
X67291220Y-69062680D02*
X66481220Y-69062680D01*
X64801220Y-69022680D02*
X63961220Y-69022680D01*
X67321220Y-69022680D02*
X66481220Y-69022680D01*
X64801220Y-68982680D02*
X63933221Y-68982680D01*
X67349219Y-68982680D02*
X66481220Y-68982680D01*
X64801220Y-68942680D02*
X63906220Y-68942680D01*
X67376220Y-68942680D02*
X66481220Y-68942680D01*
X64801220Y-68902680D02*
X63881221Y-68902680D01*
X67401219Y-68902680D02*
X66481220Y-68902680D01*
X64801220Y-68862680D02*
X63856220Y-68862680D01*
X67426220Y-68862680D02*
X66481220Y-68862680D01*
X64801220Y-68822680D02*
X63833220Y-68822680D01*
X67449220Y-68822680D02*
X66481220Y-68822680D01*
X64801220Y-68782680D02*
X63811220Y-68782680D01*
X67471220Y-68782680D02*
X66481220Y-68782680D01*
X64801220Y-68742680D02*
X63790220Y-68742680D01*
X67492220Y-68742680D02*
X66481220Y-68742680D01*
X64801220Y-68702680D02*
X63771220Y-68702680D01*
X67511220Y-68702680D02*
X66481220Y-68702680D01*
X64801220Y-68662680D02*
X63752220Y-68662680D01*
X67530220Y-68662680D02*
X66481220Y-68662680D01*
X64801220Y-68622680D02*
X63734220Y-68622680D01*
X67548220Y-68622680D02*
X66481220Y-68622680D01*
X64801220Y-68582680D02*
X63717220Y-68582680D01*
X67565220Y-68582680D02*
X66481220Y-68582680D01*
X64801220Y-68542680D02*
X63701220Y-68542680D01*
X67581220Y-68542680D02*
X66481220Y-68542680D01*
X64801220Y-68502680D02*
X63687220Y-68502680D01*
X67595220Y-68502680D02*
X66481220Y-68502680D01*
X64801220Y-68461680D02*
X63673219Y-68461680D01*
X67609221Y-68461680D02*
X66481220Y-68461680D01*
X64801220Y-68421680D02*
X63659219Y-68421680D01*
X67623221Y-68421680D02*
X66481220Y-68421680D01*
X64801220Y-68381680D02*
X63647220Y-68381680D01*
X67635220Y-68381680D02*
X66481220Y-68381680D01*
X64801220Y-68341680D02*
X63636219Y-68341680D01*
X67646221Y-68341680D02*
X66481220Y-68341680D01*
X64801220Y-68301680D02*
X63625220Y-68301680D01*
X67657220Y-68301680D02*
X66481220Y-68301680D01*
X64801220Y-68261680D02*
X63616220Y-68261680D01*
X67666220Y-68261680D02*
X66481220Y-68261680D01*
X64801220Y-68221680D02*
X63607220Y-68221680D01*
X67675220Y-68221680D02*
X66481220Y-68221680D01*
X64801220Y-68181680D02*
X63599219Y-68181680D01*
X67683221Y-68181680D02*
X66481220Y-68181680D01*
X64801220Y-68141680D02*
X63591220Y-68141680D01*
X67691220Y-68141680D02*
X66481220Y-68141680D01*
X64801220Y-68101680D02*
X63585220Y-68101679D01*
X67697220Y-68101679D02*
X66481220Y-68101680D01*
X64801220Y-68061680D02*
X63579220Y-68061680D01*
X67703220Y-68061680D02*
X66481220Y-68061680D01*
X64801220Y-68021680D02*
X63574220Y-68021680D01*
X67708220Y-68021680D02*
X66481220Y-68021680D01*
X64801220Y-67981680D02*
X63570220Y-67981680D01*
X67712220Y-67981680D02*
X66481220Y-67981680D01*
X67715220Y-67941679D02*
X63567220Y-67941679D01*
X67718220Y-67901680D02*
X63564220Y-67901680D01*
X67720220Y-67861680D02*
X63562220Y-67861680D01*
X67721220Y-67821680D02*
X63561220Y-67821680D01*
X67721220Y-67781680D02*
X63561220Y-67781680D01*
X67761220Y-67781680D02*
G75*
G03X67761220Y-67781680I-2120000J0D01*
G01*
D12*
G04 #@! TO.C,U1*
X28961300Y-49870340D02*
X28961300Y-69870340D01*
X62961300Y-69870340D02*
X62961300Y-49870340D01*
X62961300Y-49870340D02*
X28961300Y-49870340D01*
X28961300Y-69870340D02*
X62961300Y-69870340D01*
D10*
G04 #@! TO.C,Q1*
X60352300Y-31512260D02*
X50112300Y-31512260D01*
X60352300Y-26871260D02*
X50112300Y-26871260D01*
X60352300Y-31512260D02*
X60352300Y-26871260D01*
X50112300Y-31512260D02*
X50112300Y-26871260D01*
X60352300Y-30002260D02*
X50112300Y-30002260D01*
X57082300Y-31512260D02*
X57082300Y-30002260D01*
X53381300Y-31512260D02*
X53381300Y-30002260D01*
G04 #@! TO.C,Q2*
X53399080Y-42154860D02*
X53399080Y-40644860D01*
X57100080Y-42154860D02*
X57100080Y-40644860D01*
X60370080Y-40644860D02*
X50130080Y-40644860D01*
X50130080Y-42154860D02*
X50130080Y-37513860D01*
X60370080Y-42154860D02*
X60370080Y-37513860D01*
X60370080Y-37513860D02*
X50130080Y-37513860D01*
X60370080Y-42154860D02*
X50130080Y-42154860D01*
G04 #@! TO.C,R11*
X34067680Y-40147608D02*
X34067680Y-40670112D01*
X35487680Y-40147608D02*
X35487680Y-40670112D01*
G04 #@! TO.C,R12*
X39668520Y-36057472D02*
X39668520Y-35534968D01*
X38248520Y-36057472D02*
X38248520Y-35534968D01*
G04 #@! TO.C,R13*
X34019420Y-36029532D02*
X34019420Y-35507028D01*
X35439420Y-36029532D02*
X35439420Y-35507028D01*
G04 #@! TO.C,R15*
X39772660Y-40038388D02*
X39772660Y-40560892D01*
X38352660Y-40038388D02*
X38352660Y-40560892D01*
G04 #@! TO.C,C7*
D11*
X36757313Y-49074342D02*
X36709694Y-49121961D01*
X36566837Y-49169580D01*
X36471599Y-49169580D01*
X36328741Y-49121961D01*
X36233503Y-49026723D01*
X36185884Y-48931485D01*
X36138265Y-48741009D01*
X36138265Y-48598152D01*
X36185884Y-48407676D01*
X36233503Y-48312438D01*
X36328741Y-48217200D01*
X36471599Y-48169580D01*
X36566837Y-48169580D01*
X36709694Y-48217200D01*
X36757313Y-48264819D01*
X37090646Y-48169580D02*
X37757313Y-48169580D01*
X37328741Y-49169580D01*
G04 #@! TO.C,F1*
X64342686Y-59473791D02*
X64009353Y-59473791D01*
X64009353Y-59997600D02*
X64009353Y-58997600D01*
X64485543Y-58997600D01*
X65390305Y-59997600D02*
X64818877Y-59997600D01*
X65104591Y-59997600D02*
X65104591Y-58997600D01*
X65009353Y-59140458D01*
X64914115Y-59235696D01*
X64818877Y-59283315D01*
G04 #@! TO.C,J1*
X68261906Y-30900120D02*
X68261906Y-31614406D01*
X68214287Y-31757263D01*
X68119049Y-31852501D01*
X67976192Y-31900120D01*
X67880954Y-31900120D01*
X69261906Y-31900120D02*
X68690478Y-31900120D01*
X68976192Y-31900120D02*
X68976192Y-30900120D01*
X68880954Y-31042978D01*
X68785716Y-31138216D01*
X68690478Y-31185835D01*
G04 #@! TO.C,C2*
X67973913Y-70237622D02*
X67926294Y-70285241D01*
X67783437Y-70332860D01*
X67688199Y-70332860D01*
X67545341Y-70285241D01*
X67450103Y-70190003D01*
X67402484Y-70094765D01*
X67354865Y-69904289D01*
X67354865Y-69761432D01*
X67402484Y-69570956D01*
X67450103Y-69475718D01*
X67545341Y-69380480D01*
X67688199Y-69332860D01*
X67783437Y-69332860D01*
X67926294Y-69380480D01*
X67973913Y-69428099D01*
X68354865Y-69428099D02*
X68402484Y-69380480D01*
X68497722Y-69332860D01*
X68735818Y-69332860D01*
X68831056Y-69380480D01*
X68878675Y-69428099D01*
X68926294Y-69523337D01*
X68926294Y-69618575D01*
X68878675Y-69761432D01*
X68307246Y-70332860D01*
X68926294Y-70332860D01*
G04 #@! TO.C,U1*
D12*
X45809988Y-48371034D02*
X45809988Y-48987891D01*
X45846274Y-49060462D01*
X45882560Y-49096748D01*
X45955131Y-49133034D01*
X46100274Y-49133034D01*
X46172845Y-49096748D01*
X46209131Y-49060462D01*
X46245417Y-48987891D01*
X46245417Y-48371034D01*
X47007417Y-49133034D02*
X46571988Y-49133034D01*
X46789702Y-49133034D02*
X46789702Y-48371034D01*
X46717131Y-48479891D01*
X46644560Y-48552462D01*
X46571988Y-48588748D01*
G04 #@! TO.C,Q1*
D11*
X46501061Y-28899099D02*
X46405823Y-28851480D01*
X46310585Y-28756241D01*
X46167728Y-28613384D01*
X46072490Y-28565765D01*
X45977252Y-28565765D01*
X46024871Y-28803860D02*
X45929633Y-28756241D01*
X45834395Y-28661003D01*
X45786776Y-28470527D01*
X45786776Y-28137194D01*
X45834395Y-27946718D01*
X45929633Y-27851480D01*
X46024871Y-27803860D01*
X46215347Y-27803860D01*
X46310585Y-27851480D01*
X46405823Y-27946718D01*
X46453442Y-28137194D01*
X46453442Y-28470527D01*
X46405823Y-28661003D01*
X46310585Y-28756241D01*
X46215347Y-28803860D01*
X46024871Y-28803860D01*
X47405823Y-28803860D02*
X46834395Y-28803860D01*
X47120109Y-28803860D02*
X47120109Y-27803860D01*
X47024871Y-27946718D01*
X46929633Y-28041956D01*
X46834395Y-28089575D01*
G04 #@! TO.C,Q2*
X46435021Y-39937939D02*
X46339783Y-39890320D01*
X46244545Y-39795081D01*
X46101688Y-39652224D01*
X46006450Y-39604605D01*
X45911212Y-39604605D01*
X45958831Y-39842700D02*
X45863593Y-39795081D01*
X45768355Y-39699843D01*
X45720736Y-39509367D01*
X45720736Y-39176034D01*
X45768355Y-38985558D01*
X45863593Y-38890320D01*
X45958831Y-38842700D01*
X46149307Y-38842700D01*
X46244545Y-38890320D01*
X46339783Y-38985558D01*
X46387402Y-39176034D01*
X46387402Y-39509367D01*
X46339783Y-39699843D01*
X46244545Y-39795081D01*
X46149307Y-39842700D01*
X45958831Y-39842700D01*
X46768355Y-38937939D02*
X46815974Y-38890320D01*
X46911212Y-38842700D01*
X47149307Y-38842700D01*
X47244545Y-38890320D01*
X47292164Y-38937939D01*
X47339783Y-39033177D01*
X47339783Y-39128415D01*
X47292164Y-39271272D01*
X46720736Y-39842700D01*
X47339783Y-39842700D01*
G04 #@! TO.C,R11*
X34208482Y-43579040D02*
X33875149Y-43102850D01*
X33637054Y-43579040D02*
X33637054Y-42579040D01*
X34018006Y-42579040D01*
X34113244Y-42626660D01*
X34160863Y-42674279D01*
X34208482Y-42769517D01*
X34208482Y-42912374D01*
X34160863Y-43007612D01*
X34113244Y-43055231D01*
X34018006Y-43102850D01*
X33637054Y-43102850D01*
X35160863Y-43579040D02*
X34589435Y-43579040D01*
X34875149Y-43579040D02*
X34875149Y-42579040D01*
X34779911Y-42721898D01*
X34684673Y-42817136D01*
X34589435Y-42864755D01*
X36113244Y-43579040D02*
X35541816Y-43579040D01*
X35827530Y-43579040D02*
X35827530Y-42579040D01*
X35732292Y-42721898D01*
X35637054Y-42817136D01*
X35541816Y-42864755D01*
G04 #@! TO.C,R12*
X38361382Y-38496500D02*
X38028049Y-38020310D01*
X37789954Y-38496500D02*
X37789954Y-37496500D01*
X38170906Y-37496500D01*
X38266144Y-37544120D01*
X38313763Y-37591739D01*
X38361382Y-37686977D01*
X38361382Y-37829834D01*
X38313763Y-37925072D01*
X38266144Y-37972691D01*
X38170906Y-38020310D01*
X37789954Y-38020310D01*
X39313763Y-38496500D02*
X38742335Y-38496500D01*
X39028049Y-38496500D02*
X39028049Y-37496500D01*
X38932811Y-37639358D01*
X38837573Y-37734596D01*
X38742335Y-37782215D01*
X39694716Y-37591739D02*
X39742335Y-37544120D01*
X39837573Y-37496500D01*
X40075668Y-37496500D01*
X40170906Y-37544120D01*
X40218525Y-37591739D01*
X40266144Y-37686977D01*
X40266144Y-37782215D01*
X40218525Y-37925072D01*
X39647097Y-38496500D01*
X40266144Y-38496500D01*
G04 #@! TO.C,R13*
X34104342Y-38529520D02*
X33771009Y-38053330D01*
X33532914Y-38529520D02*
X33532914Y-37529520D01*
X33913866Y-37529520D01*
X34009104Y-37577140D01*
X34056723Y-37624759D01*
X34104342Y-37719997D01*
X34104342Y-37862854D01*
X34056723Y-37958092D01*
X34009104Y-38005711D01*
X33913866Y-38053330D01*
X33532914Y-38053330D01*
X35056723Y-38529520D02*
X34485295Y-38529520D01*
X34771009Y-38529520D02*
X34771009Y-37529520D01*
X34675771Y-37672378D01*
X34580533Y-37767616D01*
X34485295Y-37815235D01*
X35390057Y-37529520D02*
X36009104Y-37529520D01*
X35675771Y-37910473D01*
X35818628Y-37910473D01*
X35913866Y-37958092D01*
X35961485Y-38005711D01*
X36009104Y-38100949D01*
X36009104Y-38339044D01*
X35961485Y-38434282D01*
X35913866Y-38481901D01*
X35818628Y-38529520D01*
X35532914Y-38529520D01*
X35437676Y-38481901D01*
X35390057Y-38434282D01*
G04 #@! TO.C,R15*
X38427422Y-43507920D02*
X38094089Y-43031730D01*
X37855994Y-43507920D02*
X37855994Y-42507920D01*
X38236946Y-42507920D01*
X38332184Y-42555540D01*
X38379803Y-42603159D01*
X38427422Y-42698397D01*
X38427422Y-42841254D01*
X38379803Y-42936492D01*
X38332184Y-42984111D01*
X38236946Y-43031730D01*
X37855994Y-43031730D01*
X39379803Y-43507920D02*
X38808375Y-43507920D01*
X39094089Y-43507920D02*
X39094089Y-42507920D01*
X38998851Y-42650778D01*
X38903613Y-42746016D01*
X38808375Y-42793635D01*
X40284565Y-42507920D02*
X39808375Y-42507920D01*
X39760756Y-42984111D01*
X39808375Y-42936492D01*
X39903613Y-42888873D01*
X40141708Y-42888873D01*
X40236946Y-42936492D01*
X40284565Y-42984111D01*
X40332184Y-43079349D01*
X40332184Y-43317444D01*
X40284565Y-43412682D01*
X40236946Y-43460301D01*
X40141708Y-43507920D01*
X39903613Y-43507920D01*
X39808375Y-43460301D01*
X39760756Y-43412682D01*
G04 #@! TD*
M02*
