G04 #@! TF.GenerationSoftware,KiCad,Pcbnew,5.0.1*
G04 #@! TF.CreationDate,2019-01-05T16:55:32+01:00*
G04 #@! TF.ProjectId,sensor_board-ac-7 -without-regulator-2,73656E736F725F626F6172642D61632D,V1.2*
G04 #@! TF.SameCoordinates,Original*
G04 #@! TF.FileFunction,Soldermask,Bot*
G04 #@! TF.FilePolarity,Negative*
%FSLAX46Y46*%
G04 Gerber Fmt 4.6, Leading zero omitted, Abs format (unit mm)*
G04 Created by KiCad (PCBNEW 5.0.1) date Sat 05 Jan 2019 04:55:32 PM CET*
%MOMM*%
%LPD*%
G01*
G04 APERTURE LIST*
%ADD10C,0.100000*%
G04 APERTURE END LIST*
D10*
G36*
X42881780Y-71583980D02*
X41481780Y-71583980D01*
X41481780Y-68673980D01*
X42881780Y-68673980D01*
X42881780Y-71583980D01*
X42881780Y-71583980D01*
G37*
G36*
X40341780Y-71583980D02*
X38941780Y-71583980D01*
X38941780Y-68673980D01*
X40341780Y-68673980D01*
X40341780Y-71583980D01*
X40341780Y-71583980D01*
G37*
G36*
X35261780Y-71583980D02*
X33861780Y-71583980D01*
X33861780Y-68673980D01*
X35261780Y-68673980D01*
X35261780Y-71583980D01*
X35261780Y-71583980D01*
G37*
G36*
X37801780Y-71583980D02*
X36401780Y-71583980D01*
X36401780Y-68673980D01*
X37801780Y-68673980D01*
X37801780Y-71583980D01*
X37801780Y-71583980D01*
G37*
G36*
X54168390Y-69505710D02*
X54218239Y-69520831D01*
X54264171Y-69545382D01*
X54304434Y-69578426D01*
X54337478Y-69618689D01*
X54362029Y-69664621D01*
X54377150Y-69714470D01*
X54382860Y-69772444D01*
X54382860Y-71027556D01*
X54377150Y-71085530D01*
X54362029Y-71135379D01*
X54337478Y-71181311D01*
X54304434Y-71221574D01*
X54264171Y-71254618D01*
X54218239Y-71279169D01*
X54168390Y-71294290D01*
X54110416Y-71300000D01*
X53105304Y-71300000D01*
X53047330Y-71294290D01*
X52997481Y-71279169D01*
X52951549Y-71254618D01*
X52911286Y-71221574D01*
X52878242Y-71181311D01*
X52853691Y-71135379D01*
X52838570Y-71085530D01*
X52832860Y-71027556D01*
X52832860Y-69772444D01*
X52838570Y-69714470D01*
X52853691Y-69664621D01*
X52878242Y-69618689D01*
X52911286Y-69578426D01*
X52951549Y-69545382D01*
X52997481Y-69520831D01*
X53047330Y-69505710D01*
X53105304Y-69500000D01*
X54110416Y-69500000D01*
X54168390Y-69505710D01*
X54168390Y-69505710D01*
G37*
G36*
X56218390Y-69505710D02*
X56268239Y-69520831D01*
X56314171Y-69545382D01*
X56354434Y-69578426D01*
X56387478Y-69618689D01*
X56412029Y-69664621D01*
X56427150Y-69714470D01*
X56432860Y-69772444D01*
X56432860Y-71027556D01*
X56427150Y-71085530D01*
X56412029Y-71135379D01*
X56387478Y-71181311D01*
X56354434Y-71221574D01*
X56314171Y-71254618D01*
X56268239Y-71279169D01*
X56218390Y-71294290D01*
X56160416Y-71300000D01*
X55155304Y-71300000D01*
X55097330Y-71294290D01*
X55047481Y-71279169D01*
X55001549Y-71254618D01*
X54961286Y-71221574D01*
X54928242Y-71181311D01*
X54903691Y-71135379D01*
X54888570Y-71085530D01*
X54882860Y-71027556D01*
X54882860Y-69772444D01*
X54888570Y-69714470D01*
X54903691Y-69664621D01*
X54928242Y-69618689D01*
X54961286Y-69578426D01*
X55001549Y-69545382D01*
X55047481Y-69520831D01*
X55097330Y-69505710D01*
X55155304Y-69500000D01*
X56160416Y-69500000D01*
X56218390Y-69505710D01*
X56218390Y-69505710D01*
G37*
G36*
X51235880Y-71182220D02*
X49935880Y-71182220D01*
X49935880Y-69982220D01*
X51235880Y-69982220D01*
X51235880Y-71182220D01*
X51235880Y-71182220D01*
G37*
G36*
X62663100Y-71000000D02*
X61363100Y-71000000D01*
X61363100Y-69400000D01*
X62663100Y-69400000D01*
X62663100Y-71000000D01*
X62663100Y-71000000D01*
G37*
G36*
X59363100Y-71000000D02*
X58063100Y-71000000D01*
X58063100Y-69400000D01*
X59363100Y-69400000D01*
X59363100Y-71000000D01*
X59363100Y-71000000D01*
G37*
G36*
X49235880Y-70232220D02*
X47935880Y-70232220D01*
X47935880Y-69032220D01*
X49235880Y-69032220D01*
X49235880Y-70232220D01*
X49235880Y-70232220D01*
G37*
G36*
X65874572Y-68012424D02*
X66020161Y-68072729D01*
X66151193Y-68160282D01*
X66262619Y-68271708D01*
X66350172Y-68402740D01*
X66410477Y-68548329D01*
X66441220Y-68702886D01*
X66441220Y-68860476D01*
X66410477Y-69015033D01*
X66350172Y-69160622D01*
X66262619Y-69291654D01*
X66151193Y-69403080D01*
X66020161Y-69490633D01*
X65874572Y-69550938D01*
X65720015Y-69581681D01*
X65562425Y-69581681D01*
X65407868Y-69550938D01*
X65262279Y-69490633D01*
X65131247Y-69403080D01*
X65019821Y-69291654D01*
X64932268Y-69160622D01*
X64871963Y-69015033D01*
X64841220Y-68860476D01*
X64841220Y-68702886D01*
X64871963Y-68548329D01*
X64932268Y-68402740D01*
X65019821Y-68271708D01*
X65131247Y-68160282D01*
X65262279Y-68072729D01*
X65407868Y-68012424D01*
X65562425Y-67981681D01*
X65720015Y-67981681D01*
X65874572Y-68012424D01*
X65874572Y-68012424D01*
G37*
G36*
X51235880Y-69282220D02*
X49935880Y-69282220D01*
X49935880Y-68082220D01*
X51235880Y-68082220D01*
X51235880Y-69282220D01*
X51235880Y-69282220D01*
G37*
G36*
X53967940Y-69101260D02*
X52767940Y-69101260D01*
X52767940Y-67701260D01*
X53967940Y-67701260D01*
X53967940Y-69101260D01*
X53967940Y-69101260D01*
G37*
G36*
X56507940Y-69101260D02*
X55307940Y-69101260D01*
X55307940Y-67701260D01*
X56507940Y-67701260D01*
X56507940Y-69101260D01*
X56507940Y-69101260D01*
G37*
G36*
X31640496Y-66320298D02*
X31877080Y-66418294D01*
X32090005Y-66560566D01*
X32271074Y-66741635D01*
X32413346Y-66954560D01*
X32511342Y-67191144D01*
X32561300Y-67442300D01*
X32561300Y-67698380D01*
X32511342Y-67949536D01*
X32413346Y-68186120D01*
X32271074Y-68399045D01*
X32090005Y-68580114D01*
X31877080Y-68722386D01*
X31640496Y-68820382D01*
X31389340Y-68870340D01*
X31133260Y-68870340D01*
X30882104Y-68820382D01*
X30645520Y-68722386D01*
X30432595Y-68580114D01*
X30251526Y-68399045D01*
X30109254Y-68186120D01*
X30011258Y-67949536D01*
X29961300Y-67698380D01*
X29961300Y-67442300D01*
X30011258Y-67191144D01*
X30109254Y-66954560D01*
X30251526Y-66741635D01*
X30432595Y-66560566D01*
X30645520Y-66418294D01*
X30882104Y-66320298D01*
X31133260Y-66270340D01*
X31389340Y-66270340D01*
X31640496Y-66320298D01*
X31640496Y-66320298D01*
G37*
G36*
X71566207Y-65886596D02*
X71643336Y-65894193D01*
X71775287Y-65934220D01*
X71841263Y-65954233D01*
X72023672Y-66051733D01*
X72183554Y-66182946D01*
X72314767Y-66342828D01*
X72412267Y-66525237D01*
X72412267Y-66525238D01*
X72472307Y-66723164D01*
X72492580Y-66929000D01*
X72472307Y-67134836D01*
X72455226Y-67191144D01*
X72412267Y-67332763D01*
X72314767Y-67515172D01*
X72183554Y-67675054D01*
X72023672Y-67806267D01*
X71841263Y-67903767D01*
X71775287Y-67923780D01*
X71643336Y-67963807D01*
X71566207Y-67971404D01*
X71489080Y-67979000D01*
X71385920Y-67979000D01*
X71308793Y-67971404D01*
X71231664Y-67963807D01*
X71099713Y-67923780D01*
X71033737Y-67903767D01*
X70851328Y-67806267D01*
X70691446Y-67675054D01*
X70560233Y-67515172D01*
X70462733Y-67332763D01*
X70419774Y-67191144D01*
X70402693Y-67134836D01*
X70382420Y-66929000D01*
X70402693Y-66723164D01*
X70462733Y-66525238D01*
X70462733Y-66525237D01*
X70560233Y-66342828D01*
X70691446Y-66182946D01*
X70851328Y-66051733D01*
X71033737Y-65954233D01*
X71099713Y-65934220D01*
X71231664Y-65894193D01*
X71308793Y-65886596D01*
X71385920Y-65879000D01*
X71489080Y-65879000D01*
X71566207Y-65886596D01*
X71566207Y-65886596D01*
G37*
G36*
X66441220Y-67581680D02*
X64841220Y-67581680D01*
X64841220Y-65981680D01*
X66441220Y-65981680D01*
X66441220Y-67581680D01*
X66441220Y-67581680D01*
G37*
G36*
X49347690Y-65572430D02*
X49397539Y-65587551D01*
X49443471Y-65612102D01*
X49483734Y-65645146D01*
X49516778Y-65685409D01*
X49541329Y-65731341D01*
X49556450Y-65781190D01*
X49562160Y-65839164D01*
X49562160Y-67094276D01*
X49556450Y-67152250D01*
X49541329Y-67202099D01*
X49516778Y-67248031D01*
X49483734Y-67288294D01*
X49443471Y-67321338D01*
X49397539Y-67345889D01*
X49347690Y-67361010D01*
X49289716Y-67366720D01*
X48284604Y-67366720D01*
X48226630Y-67361010D01*
X48176781Y-67345889D01*
X48130849Y-67321338D01*
X48090586Y-67288294D01*
X48057542Y-67248031D01*
X48032991Y-67202099D01*
X48017870Y-67152250D01*
X48012160Y-67094276D01*
X48012160Y-65839164D01*
X48017870Y-65781190D01*
X48032991Y-65731341D01*
X48057542Y-65685409D01*
X48090586Y-65645146D01*
X48130849Y-65612102D01*
X48176781Y-65587551D01*
X48226630Y-65572430D01*
X48284604Y-65566720D01*
X49289716Y-65566720D01*
X49347690Y-65572430D01*
X49347690Y-65572430D01*
G37*
G36*
X47297690Y-65572430D02*
X47347539Y-65587551D01*
X47393471Y-65612102D01*
X47433734Y-65645146D01*
X47466778Y-65685409D01*
X47491329Y-65731341D01*
X47506450Y-65781190D01*
X47512160Y-65839164D01*
X47512160Y-67094276D01*
X47506450Y-67152250D01*
X47491329Y-67202099D01*
X47466778Y-67248031D01*
X47433734Y-67288294D01*
X47393471Y-67321338D01*
X47347539Y-67345889D01*
X47297690Y-67361010D01*
X47239716Y-67366720D01*
X46234604Y-67366720D01*
X46176630Y-67361010D01*
X46126781Y-67345889D01*
X46080849Y-67321338D01*
X46040586Y-67288294D01*
X46007542Y-67248031D01*
X45982991Y-67202099D01*
X45967870Y-67152250D01*
X45962160Y-67094276D01*
X45962160Y-65839164D01*
X45967870Y-65781190D01*
X45982991Y-65731341D01*
X46007542Y-65685409D01*
X46040586Y-65645146D01*
X46080849Y-65612102D01*
X46126781Y-65587551D01*
X46176630Y-65572430D01*
X46234604Y-65566720D01*
X47239716Y-65566720D01*
X47297690Y-65572430D01*
X47297690Y-65572430D01*
G37*
G36*
X71566207Y-63346597D02*
X71643336Y-63354193D01*
X71775287Y-63394220D01*
X71841263Y-63414233D01*
X72023672Y-63511733D01*
X72183554Y-63642946D01*
X72314767Y-63802828D01*
X72412267Y-63985237D01*
X72412267Y-63985238D01*
X72472307Y-64183164D01*
X72492580Y-64389000D01*
X72472307Y-64594836D01*
X72432280Y-64726787D01*
X72412267Y-64792763D01*
X72314767Y-64975172D01*
X72183554Y-65135054D01*
X72023672Y-65266267D01*
X71841263Y-65363767D01*
X71775287Y-65383780D01*
X71643336Y-65423807D01*
X71566207Y-65431403D01*
X71489080Y-65439000D01*
X71385920Y-65439000D01*
X71308793Y-65431403D01*
X71231664Y-65423807D01*
X71099713Y-65383780D01*
X71033737Y-65363767D01*
X70851328Y-65266267D01*
X70691446Y-65135054D01*
X70560233Y-64975172D01*
X70462733Y-64792763D01*
X70442720Y-64726787D01*
X70402693Y-64594836D01*
X70382420Y-64389000D01*
X70402693Y-64183164D01*
X70462733Y-63985238D01*
X70462733Y-63985237D01*
X70560233Y-63802828D01*
X70691446Y-63642946D01*
X70851328Y-63511733D01*
X71033737Y-63414233D01*
X71099713Y-63394220D01*
X71231664Y-63354193D01*
X71308793Y-63346597D01*
X71385920Y-63339000D01*
X71489080Y-63339000D01*
X71566207Y-63346597D01*
X71566207Y-63346597D01*
G37*
G36*
X48667520Y-64252180D02*
X46267520Y-64252180D01*
X46267520Y-62072180D01*
X48667520Y-62072180D01*
X48667520Y-64252180D01*
X48667520Y-64252180D01*
G37*
G36*
X41047520Y-64252180D02*
X38647520Y-64252180D01*
X38647520Y-62072180D01*
X41047520Y-62072180D01*
X41047520Y-64252180D01*
X41047520Y-64252180D01*
G37*
G36*
X32783400Y-63860700D02*
X31783400Y-63860700D01*
X31783400Y-61960700D01*
X32783400Y-61960700D01*
X32783400Y-63860700D01*
X32783400Y-63860700D01*
G37*
G36*
X37863400Y-63860700D02*
X36863400Y-63860700D01*
X36863400Y-61960700D01*
X37863400Y-61960700D01*
X37863400Y-63860700D01*
X37863400Y-63860700D01*
G37*
G36*
X31513400Y-63860700D02*
X30513400Y-63860700D01*
X30513400Y-61960700D01*
X31513400Y-61960700D01*
X31513400Y-63860700D01*
X31513400Y-63860700D01*
G37*
G36*
X30243400Y-63860700D02*
X29243400Y-63860700D01*
X29243400Y-61960700D01*
X30243400Y-61960700D01*
X30243400Y-63860700D01*
X30243400Y-63860700D01*
G37*
G36*
X34053400Y-63860700D02*
X33053400Y-63860700D01*
X33053400Y-61960700D01*
X34053400Y-61960700D01*
X34053400Y-63860700D01*
X34053400Y-63860700D01*
G37*
G36*
X36593400Y-63860700D02*
X35593400Y-63860700D01*
X35593400Y-61960700D01*
X36593400Y-61960700D01*
X36593400Y-63860700D01*
X36593400Y-63860700D01*
G37*
G36*
X35323400Y-63860700D02*
X34323400Y-63860700D01*
X34323400Y-61960700D01*
X35323400Y-61960700D01*
X35323400Y-63860700D01*
X35323400Y-63860700D01*
G37*
G36*
X66010866Y-60945800D02*
X66146105Y-60972701D01*
X66326263Y-61047325D01*
X66381827Y-61070340D01*
X66400889Y-61078236D01*
X66547209Y-61176004D01*
X66630191Y-61231451D01*
X66825189Y-61426449D01*
X66825191Y-61426452D01*
X66978404Y-61655751D01*
X67083939Y-61910535D01*
X67137740Y-62181012D01*
X67137740Y-62456788D01*
X67083939Y-62727265D01*
X67019097Y-62883807D01*
X66978405Y-62982047D01*
X66825189Y-63211351D01*
X66630191Y-63406349D01*
X66630188Y-63406351D01*
X66400889Y-63559564D01*
X66146105Y-63665099D01*
X66010866Y-63692000D01*
X65875629Y-63718900D01*
X65599851Y-63718900D01*
X65464614Y-63692000D01*
X65329375Y-63665099D01*
X65074591Y-63559564D01*
X64845292Y-63406351D01*
X64845289Y-63406349D01*
X64650291Y-63211351D01*
X64497075Y-62982047D01*
X64456383Y-62883807D01*
X64391541Y-62727265D01*
X64337740Y-62456788D01*
X64337740Y-62181012D01*
X64391541Y-61910535D01*
X64497076Y-61655751D01*
X64650289Y-61426452D01*
X64650291Y-61426449D01*
X64845289Y-61231451D01*
X64928271Y-61176004D01*
X65074591Y-61078236D01*
X65093654Y-61070340D01*
X65149217Y-61047325D01*
X65329375Y-60972701D01*
X65464614Y-60945800D01*
X65599851Y-60918900D01*
X65875629Y-60918900D01*
X66010866Y-60945800D01*
X66010866Y-60945800D01*
G37*
G36*
X61040496Y-61120298D02*
X61277080Y-61218294D01*
X61490005Y-61360566D01*
X61671074Y-61541635D01*
X61813346Y-61754560D01*
X61911342Y-61991144D01*
X61961300Y-62242300D01*
X61961300Y-62498380D01*
X61911342Y-62749536D01*
X61813346Y-62986120D01*
X61671074Y-63199045D01*
X61490005Y-63380114D01*
X61277080Y-63522386D01*
X61040496Y-63620382D01*
X60789340Y-63670340D01*
X60533260Y-63670340D01*
X60282104Y-63620382D01*
X60045520Y-63522386D01*
X59832595Y-63380114D01*
X59651526Y-63199045D01*
X59509254Y-62986120D01*
X59411258Y-62749536D01*
X59361300Y-62498380D01*
X59361300Y-62242300D01*
X59411258Y-61991144D01*
X59509254Y-61754560D01*
X59651526Y-61541635D01*
X59832595Y-61360566D01*
X60045520Y-61218294D01*
X60282104Y-61120298D01*
X60533260Y-61070340D01*
X60789340Y-61070340D01*
X61040496Y-61120298D01*
X61040496Y-61120298D01*
G37*
G36*
X57227302Y-57186626D02*
X57272024Y-57200193D01*
X57313253Y-57222230D01*
X57349381Y-57251879D01*
X57379030Y-57288007D01*
X57401067Y-57329236D01*
X57414634Y-57373958D01*
X57419820Y-57426615D01*
X57419820Y-58761265D01*
X57414634Y-58813922D01*
X57401067Y-58858644D01*
X57379030Y-58899873D01*
X57349381Y-58936001D01*
X57313253Y-58965650D01*
X57272024Y-58987687D01*
X57227302Y-59001254D01*
X57174645Y-59006440D01*
X56912793Y-59006440D01*
X56888407Y-59008842D01*
X56864958Y-59015955D01*
X56843347Y-59027506D01*
X56824405Y-59043052D01*
X56808859Y-59061994D01*
X56797308Y-59083605D01*
X56790195Y-59107054D01*
X56787793Y-59131440D01*
X56790195Y-59155826D01*
X56797308Y-59179275D01*
X56808859Y-59200886D01*
X56824405Y-59219828D01*
X56833495Y-59228067D01*
X56853201Y-59244239D01*
X56882850Y-59280367D01*
X56904887Y-59321596D01*
X56918454Y-59366318D01*
X56923640Y-59418975D01*
X56923640Y-61078625D01*
X56918454Y-61131282D01*
X56904887Y-61176004D01*
X56882850Y-61217233D01*
X56853201Y-61253361D01*
X56817073Y-61283010D01*
X56775844Y-61305047D01*
X56731122Y-61318614D01*
X56678465Y-61323800D01*
X56632940Y-61323800D01*
X56608554Y-61326202D01*
X56585105Y-61333315D01*
X56563494Y-61344866D01*
X56544552Y-61360412D01*
X56529006Y-61379354D01*
X56517455Y-61400965D01*
X56510342Y-61424414D01*
X56507940Y-61448800D01*
X56507940Y-62951260D01*
X55307940Y-62951260D01*
X55307940Y-61509602D01*
X55319345Y-61495706D01*
X55330896Y-61474095D01*
X55338009Y-61450646D01*
X55340411Y-61426260D01*
X55338009Y-61401874D01*
X55330896Y-61378425D01*
X55319345Y-61356814D01*
X55303799Y-61337872D01*
X55284857Y-61322326D01*
X55251698Y-61306643D01*
X55246435Y-61305046D01*
X55205207Y-61283010D01*
X55169079Y-61253361D01*
X55139430Y-61217233D01*
X55117393Y-61176004D01*
X55103826Y-61131282D01*
X55098640Y-61078625D01*
X55098640Y-59418975D01*
X55103826Y-59366318D01*
X55117393Y-59321596D01*
X55139430Y-59280367D01*
X55169079Y-59244239D01*
X55205207Y-59214590D01*
X55246436Y-59192553D01*
X55291158Y-59178986D01*
X55299030Y-59178211D01*
X55323063Y-59173430D01*
X55345702Y-59164052D01*
X55366076Y-59150438D01*
X55383403Y-59133111D01*
X55397017Y-59112736D01*
X55406394Y-59090097D01*
X55411174Y-59066064D01*
X55411174Y-59041559D01*
X55406393Y-59017526D01*
X55397015Y-58994887D01*
X55383401Y-58974513D01*
X55366073Y-58957185D01*
X55340258Y-58936000D01*
X55310610Y-58899873D01*
X55288573Y-58858644D01*
X55275006Y-58813922D01*
X55269820Y-58761265D01*
X55269820Y-57426615D01*
X55275006Y-57373958D01*
X55288573Y-57329236D01*
X55310610Y-57288007D01*
X55340259Y-57251879D01*
X55376387Y-57222230D01*
X55417616Y-57200193D01*
X55462338Y-57186626D01*
X55514995Y-57181440D01*
X57174645Y-57181440D01*
X57227302Y-57186626D01*
X57227302Y-57186626D01*
G37*
G36*
X53567162Y-57199326D02*
X53611884Y-57212893D01*
X53653113Y-57234930D01*
X53689241Y-57264579D01*
X53718890Y-57300707D01*
X53740927Y-57341936D01*
X53754494Y-57386658D01*
X53759680Y-57439315D01*
X53759680Y-58773965D01*
X53754494Y-58826622D01*
X53740927Y-58871344D01*
X53718890Y-58912573D01*
X53689241Y-58948701D01*
X53679146Y-58956986D01*
X53661820Y-58974313D01*
X53648206Y-58994688D01*
X53638829Y-59017327D01*
X53634049Y-59041361D01*
X53634049Y-59065865D01*
X53638830Y-59089898D01*
X53648208Y-59112537D01*
X53661822Y-59132912D01*
X53679149Y-59150238D01*
X53699524Y-59163852D01*
X53722163Y-59173229D01*
X53746197Y-59178009D01*
X53756122Y-59178986D01*
X53800844Y-59192553D01*
X53842073Y-59214590D01*
X53878201Y-59244239D01*
X53907850Y-59280367D01*
X53929887Y-59321596D01*
X53943454Y-59366318D01*
X53948640Y-59418975D01*
X53948640Y-61078625D01*
X53943454Y-61131282D01*
X53929887Y-61176004D01*
X53907850Y-61217233D01*
X53878201Y-61253361D01*
X53842073Y-61283010D01*
X53800845Y-61305046D01*
X53795582Y-61306643D01*
X53772944Y-61316020D01*
X53752569Y-61329634D01*
X53735242Y-61346962D01*
X53721628Y-61367336D01*
X53712251Y-61389975D01*
X53707471Y-61414009D01*
X53707471Y-61438513D01*
X53712252Y-61462547D01*
X53721629Y-61485185D01*
X53735243Y-61505560D01*
X53752571Y-61522887D01*
X53772945Y-61536501D01*
X53795584Y-61545878D01*
X53831869Y-61551260D01*
X53967940Y-61551260D01*
X53967940Y-62951260D01*
X52767940Y-62951260D01*
X52767940Y-61448800D01*
X52765538Y-61424414D01*
X52758425Y-61400965D01*
X52746874Y-61379354D01*
X52731328Y-61360412D01*
X52712386Y-61344866D01*
X52690775Y-61333315D01*
X52667326Y-61326202D01*
X52642940Y-61323800D01*
X52368815Y-61323800D01*
X52316158Y-61318614D01*
X52271436Y-61305047D01*
X52230207Y-61283010D01*
X52194079Y-61253361D01*
X52164430Y-61217233D01*
X52142393Y-61176004D01*
X52128826Y-61131282D01*
X52123640Y-61078625D01*
X52123640Y-59418975D01*
X52128826Y-59366318D01*
X52142393Y-59321596D01*
X52164430Y-59280367D01*
X52194078Y-59244240D01*
X52198309Y-59240768D01*
X52215637Y-59223441D01*
X52229251Y-59203067D01*
X52238629Y-59180428D01*
X52243410Y-59156395D01*
X52243410Y-59131891D01*
X52238630Y-59107857D01*
X52229253Y-59085218D01*
X52215640Y-59064843D01*
X52198313Y-59047515D01*
X52177939Y-59033901D01*
X52155300Y-59024523D01*
X52131267Y-59019742D01*
X52119012Y-59019140D01*
X51854855Y-59019140D01*
X51802198Y-59013954D01*
X51757476Y-59000387D01*
X51716247Y-58978350D01*
X51680119Y-58948701D01*
X51650470Y-58912573D01*
X51628433Y-58871344D01*
X51614866Y-58826622D01*
X51609680Y-58773965D01*
X51609680Y-57439315D01*
X51614866Y-57386658D01*
X51628433Y-57341936D01*
X51650470Y-57300707D01*
X51680119Y-57264579D01*
X51716247Y-57234930D01*
X51757476Y-57212893D01*
X51802198Y-57199326D01*
X51854855Y-57194140D01*
X53514505Y-57194140D01*
X53567162Y-57199326D01*
X53567162Y-57199326D01*
G37*
G36*
X71566207Y-60806596D02*
X71643336Y-60814193D01*
X71775287Y-60854220D01*
X71841263Y-60874233D01*
X72023672Y-60971733D01*
X72183554Y-61102946D01*
X72314767Y-61262828D01*
X72412267Y-61445237D01*
X72417518Y-61462547D01*
X72472307Y-61643164D01*
X72492580Y-61849000D01*
X72472307Y-62054836D01*
X72434032Y-62181011D01*
X72412267Y-62252763D01*
X72314767Y-62435172D01*
X72183554Y-62595054D01*
X72023672Y-62726267D01*
X71841263Y-62823767D01*
X71775287Y-62843780D01*
X71643336Y-62883807D01*
X71566207Y-62891403D01*
X71489080Y-62899000D01*
X71385920Y-62899000D01*
X71308793Y-62891403D01*
X71231664Y-62883807D01*
X71099713Y-62843780D01*
X71033737Y-62823767D01*
X70851328Y-62726267D01*
X70691446Y-62595054D01*
X70560233Y-62435172D01*
X70462733Y-62252763D01*
X70440968Y-62181011D01*
X70402693Y-62054836D01*
X70382420Y-61849000D01*
X70402693Y-61643164D01*
X70457482Y-61462547D01*
X70462733Y-61445237D01*
X70560233Y-61262828D01*
X70691446Y-61102946D01*
X70851328Y-60971733D01*
X71033737Y-60874233D01*
X71099713Y-60854220D01*
X71231664Y-60814193D01*
X71308793Y-60806596D01*
X71385920Y-60799000D01*
X71489080Y-60799000D01*
X71566207Y-60806596D01*
X71566207Y-60806596D01*
G37*
G36*
X48667520Y-61712180D02*
X46267520Y-61712180D01*
X46267520Y-59532180D01*
X48667520Y-59532180D01*
X48667520Y-61712180D01*
X48667520Y-61712180D01*
G37*
G36*
X41047520Y-61712180D02*
X38647520Y-61712180D01*
X38647520Y-59532180D01*
X41047520Y-59532180D01*
X41047520Y-61712180D01*
X41047520Y-61712180D01*
G37*
G36*
X71566207Y-58266597D02*
X71643336Y-58274193D01*
X71775287Y-58314220D01*
X71841263Y-58334233D01*
X72023672Y-58431733D01*
X72183554Y-58562946D01*
X72314767Y-58722828D01*
X72412267Y-58905237D01*
X72418372Y-58925363D01*
X72472307Y-59103164D01*
X72492580Y-59309000D01*
X72472307Y-59514836D01*
X72432280Y-59646787D01*
X72412267Y-59712763D01*
X72314767Y-59895172D01*
X72183554Y-60055054D01*
X72023672Y-60186267D01*
X71841263Y-60283767D01*
X71775287Y-60303780D01*
X71643336Y-60343807D01*
X71566207Y-60351403D01*
X71489080Y-60359000D01*
X71385920Y-60359000D01*
X71308793Y-60351403D01*
X71231664Y-60343807D01*
X71099713Y-60303780D01*
X71033737Y-60283767D01*
X70851328Y-60186267D01*
X70691446Y-60055054D01*
X70560233Y-59895172D01*
X70462733Y-59712763D01*
X70442720Y-59646787D01*
X70402693Y-59514836D01*
X70382420Y-59309000D01*
X70402693Y-59103164D01*
X70456628Y-58925363D01*
X70462733Y-58905237D01*
X70560233Y-58722828D01*
X70691446Y-58562946D01*
X70851328Y-58431733D01*
X71033737Y-58334233D01*
X71099713Y-58314220D01*
X71231664Y-58274193D01*
X71308793Y-58266597D01*
X71385920Y-58259000D01*
X71489080Y-58259000D01*
X71566207Y-58266597D01*
X71566207Y-58266597D01*
G37*
G36*
X41047520Y-59172180D02*
X38647520Y-59172180D01*
X38647520Y-56992180D01*
X41047520Y-56992180D01*
X41047520Y-59172180D01*
X41047520Y-59172180D01*
G37*
G36*
X48667520Y-59172180D02*
X46267520Y-59172180D01*
X46267520Y-56992180D01*
X48667520Y-56992180D01*
X48667520Y-59172180D01*
X48667520Y-59172180D01*
G37*
G36*
X61040496Y-56120298D02*
X61277080Y-56218294D01*
X61490005Y-56360566D01*
X61671074Y-56541635D01*
X61813346Y-56754560D01*
X61911342Y-56991144D01*
X61961300Y-57242300D01*
X61961300Y-57498380D01*
X61911342Y-57749536D01*
X61813346Y-57986120D01*
X61671074Y-58199045D01*
X61490005Y-58380114D01*
X61277080Y-58522386D01*
X61040496Y-58620382D01*
X60789340Y-58670340D01*
X60533260Y-58670340D01*
X60282104Y-58620382D01*
X60045520Y-58522386D01*
X59832595Y-58380114D01*
X59651526Y-58199045D01*
X59509254Y-57986120D01*
X59411258Y-57749536D01*
X59361300Y-57498380D01*
X59361300Y-57242300D01*
X59411258Y-56991144D01*
X59509254Y-56754560D01*
X59651526Y-56541635D01*
X59832595Y-56360566D01*
X60045520Y-56218294D01*
X60282104Y-56120298D01*
X60533260Y-56070340D01*
X60789340Y-56070340D01*
X61040496Y-56120298D01*
X61040496Y-56120298D01*
G37*
G36*
X66012188Y-55859157D02*
X66276089Y-55939210D01*
X66519302Y-56069210D01*
X66732479Y-56244161D01*
X66907430Y-56457338D01*
X67037430Y-56700551D01*
X67117483Y-56964452D01*
X67144514Y-57238900D01*
X67117483Y-57513348D01*
X67037430Y-57777249D01*
X66907430Y-58020462D01*
X66732479Y-58233639D01*
X66519302Y-58408590D01*
X66276089Y-58538590D01*
X66012188Y-58618643D01*
X65806517Y-58638900D01*
X65668963Y-58638900D01*
X65463292Y-58618643D01*
X65199391Y-58538590D01*
X64956178Y-58408590D01*
X64743001Y-58233639D01*
X64568050Y-58020462D01*
X64438050Y-57777249D01*
X64357997Y-57513348D01*
X64330966Y-57238900D01*
X64357997Y-56964452D01*
X64438050Y-56700551D01*
X64568050Y-56457338D01*
X64743001Y-56244161D01*
X64956178Y-56069210D01*
X65199391Y-55939210D01*
X65463292Y-55859157D01*
X65668963Y-55838900D01*
X65806517Y-55838900D01*
X66012188Y-55859157D01*
X66012188Y-55859157D01*
G37*
G36*
X31513400Y-58460700D02*
X30513400Y-58460700D01*
X30513400Y-56560700D01*
X31513400Y-56560700D01*
X31513400Y-58460700D01*
X31513400Y-58460700D01*
G37*
G36*
X30243400Y-58460700D02*
X29243400Y-58460700D01*
X29243400Y-56560700D01*
X30243400Y-56560700D01*
X30243400Y-58460700D01*
X30243400Y-58460700D01*
G37*
G36*
X36593400Y-58460700D02*
X35593400Y-58460700D01*
X35593400Y-56560700D01*
X36593400Y-56560700D01*
X36593400Y-58460700D01*
X36593400Y-58460700D01*
G37*
G36*
X35323400Y-58460700D02*
X34323400Y-58460700D01*
X34323400Y-56560700D01*
X35323400Y-56560700D01*
X35323400Y-58460700D01*
X35323400Y-58460700D01*
G37*
G36*
X34053400Y-58460700D02*
X33053400Y-58460700D01*
X33053400Y-56560700D01*
X34053400Y-56560700D01*
X34053400Y-58460700D01*
X34053400Y-58460700D01*
G37*
G36*
X32783400Y-58460700D02*
X31783400Y-58460700D01*
X31783400Y-56560700D01*
X32783400Y-56560700D01*
X32783400Y-58460700D01*
X32783400Y-58460700D01*
G37*
G36*
X37863400Y-58460700D02*
X36863400Y-58460700D01*
X36863400Y-56560700D01*
X37863400Y-56560700D01*
X37863400Y-58460700D01*
X37863400Y-58460700D01*
G37*
G36*
X72487500Y-57819000D02*
X70387500Y-57819000D01*
X70387500Y-55719000D01*
X72487500Y-55719000D01*
X72487500Y-57819000D01*
X72487500Y-57819000D01*
G37*
G36*
X53567162Y-54224326D02*
X53611884Y-54237893D01*
X53653113Y-54259930D01*
X53689241Y-54289579D01*
X53718890Y-54325707D01*
X53740927Y-54366936D01*
X53754494Y-54411658D01*
X53759680Y-54464315D01*
X53759680Y-55798965D01*
X53754494Y-55851622D01*
X53740927Y-55896344D01*
X53718890Y-55937573D01*
X53689241Y-55973701D01*
X53653113Y-56003350D01*
X53611884Y-56025387D01*
X53567162Y-56038954D01*
X53514505Y-56044140D01*
X51854855Y-56044140D01*
X51802198Y-56038954D01*
X51757476Y-56025387D01*
X51716247Y-56003350D01*
X51680119Y-55973701D01*
X51650470Y-55937573D01*
X51628433Y-55896344D01*
X51614866Y-55851622D01*
X51609680Y-55798965D01*
X51609680Y-54464315D01*
X51614866Y-54411658D01*
X51628433Y-54366936D01*
X51650470Y-54325707D01*
X51680119Y-54289579D01*
X51716247Y-54259930D01*
X51757476Y-54237893D01*
X51802198Y-54224326D01*
X51854855Y-54219140D01*
X53514505Y-54219140D01*
X53567162Y-54224326D01*
X53567162Y-54224326D01*
G37*
G36*
X57227302Y-54211626D02*
X57272024Y-54225193D01*
X57313253Y-54247230D01*
X57349381Y-54276879D01*
X57379030Y-54313007D01*
X57401067Y-54354236D01*
X57414634Y-54398958D01*
X57419820Y-54451615D01*
X57419820Y-55786265D01*
X57414634Y-55838922D01*
X57401067Y-55883644D01*
X57379030Y-55924873D01*
X57349381Y-55961001D01*
X57313253Y-55990650D01*
X57272024Y-56012687D01*
X57227302Y-56026254D01*
X57174645Y-56031440D01*
X55514995Y-56031440D01*
X55462338Y-56026254D01*
X55417616Y-56012687D01*
X55376387Y-55990650D01*
X55340259Y-55961001D01*
X55310610Y-55924873D01*
X55288573Y-55883644D01*
X55275006Y-55838922D01*
X55269820Y-55786265D01*
X55269820Y-54451615D01*
X55275006Y-54398958D01*
X55288573Y-54354236D01*
X55310610Y-54313007D01*
X55340259Y-54276879D01*
X55376387Y-54247230D01*
X55417616Y-54225193D01*
X55462338Y-54211626D01*
X55514995Y-54206440D01*
X57174645Y-54206440D01*
X57227302Y-54211626D01*
X57227302Y-54211626D01*
G37*
G36*
X48659900Y-55547600D02*
X46259900Y-55547600D01*
X46259900Y-53367600D01*
X48659900Y-53367600D01*
X48659900Y-55547600D01*
X48659900Y-55547600D01*
G37*
G36*
X41039900Y-55547600D02*
X38639900Y-55547600D01*
X38639900Y-53367600D01*
X41039900Y-53367600D01*
X41039900Y-55547600D01*
X41039900Y-55547600D01*
G37*
G36*
X67304580Y-54111820D02*
X64404580Y-54111820D01*
X64404580Y-51211820D01*
X67304580Y-51211820D01*
X67304580Y-54111820D01*
X67304580Y-54111820D01*
G37*
G36*
X31640496Y-50920298D02*
X31877080Y-51018294D01*
X32090005Y-51160566D01*
X32271074Y-51341635D01*
X32413346Y-51554560D01*
X32511342Y-51791144D01*
X32561300Y-52042300D01*
X32561300Y-52298380D01*
X32511342Y-52549536D01*
X32413346Y-52786120D01*
X32271074Y-52999045D01*
X32090005Y-53180114D01*
X31877080Y-53322386D01*
X31640496Y-53420382D01*
X31389340Y-53470340D01*
X31133260Y-53470340D01*
X30882104Y-53420382D01*
X30645520Y-53322386D01*
X30432595Y-53180114D01*
X30251526Y-52999045D01*
X30109254Y-52786120D01*
X30011258Y-52549536D01*
X29961300Y-52298380D01*
X29961300Y-52042300D01*
X30011258Y-51791144D01*
X30109254Y-51554560D01*
X30251526Y-51341635D01*
X30432595Y-51160566D01*
X30645520Y-51018294D01*
X30882104Y-50920298D01*
X31133260Y-50870340D01*
X31389340Y-50870340D01*
X31640496Y-50920298D01*
X31640496Y-50920298D01*
G37*
G36*
X50654782Y-50936686D02*
X50699504Y-50950253D01*
X50740733Y-50972290D01*
X50776861Y-51001939D01*
X50806510Y-51038067D01*
X50828547Y-51079296D01*
X50842114Y-51124018D01*
X50847300Y-51176675D01*
X50847300Y-52836325D01*
X50842114Y-52888982D01*
X50828547Y-52933704D01*
X50806510Y-52974933D01*
X50776861Y-53011061D01*
X50740733Y-53040710D01*
X50699504Y-53062747D01*
X50654782Y-53076314D01*
X50602125Y-53081500D01*
X49267475Y-53081500D01*
X49214818Y-53076314D01*
X49170096Y-53062747D01*
X49128867Y-53040710D01*
X49092739Y-53011061D01*
X49063090Y-52974933D01*
X49041053Y-52933704D01*
X49027486Y-52888982D01*
X49022300Y-52836325D01*
X49022300Y-51176675D01*
X49027486Y-51124018D01*
X49041053Y-51079296D01*
X49063090Y-51038067D01*
X49092739Y-51001939D01*
X49128867Y-50972290D01*
X49170096Y-50950253D01*
X49214818Y-50936686D01*
X49267475Y-50931500D01*
X50602125Y-50931500D01*
X50654782Y-50936686D01*
X50654782Y-50936686D01*
G37*
G36*
X53629782Y-50936686D02*
X53674504Y-50950253D01*
X53715733Y-50972290D01*
X53751861Y-51001939D01*
X53781510Y-51038067D01*
X53803547Y-51079296D01*
X53817114Y-51124018D01*
X53822300Y-51176675D01*
X53822300Y-52836325D01*
X53817114Y-52888982D01*
X53803547Y-52933704D01*
X53781510Y-52974933D01*
X53751861Y-53011061D01*
X53715733Y-53040710D01*
X53674504Y-53062747D01*
X53629782Y-53076314D01*
X53577125Y-53081500D01*
X52242475Y-53081500D01*
X52189818Y-53076314D01*
X52145096Y-53062747D01*
X52103867Y-53040710D01*
X52067739Y-53011061D01*
X52038090Y-52974933D01*
X52016053Y-52933704D01*
X52002486Y-52888982D01*
X51997300Y-52836325D01*
X51997300Y-51176675D01*
X52002486Y-51124018D01*
X52016053Y-51079296D01*
X52038090Y-51038067D01*
X52067739Y-51001939D01*
X52103867Y-50972290D01*
X52145096Y-50950253D01*
X52189818Y-50936686D01*
X52242475Y-50931500D01*
X53577125Y-50931500D01*
X53629782Y-50936686D01*
X53629782Y-50936686D01*
G37*
G36*
X41039900Y-53007600D02*
X38639900Y-53007600D01*
X38639900Y-50827600D01*
X41039900Y-50827600D01*
X41039900Y-53007600D01*
X41039900Y-53007600D01*
G37*
G36*
X48659900Y-53007600D02*
X46259900Y-53007600D01*
X46259900Y-50827600D01*
X48659900Y-50827600D01*
X48659900Y-53007600D01*
X48659900Y-53007600D01*
G37*
G36*
X48659900Y-50467600D02*
X46259900Y-50467600D01*
X46259900Y-48287600D01*
X48659900Y-48287600D01*
X48659900Y-50467600D01*
X48659900Y-50467600D01*
G37*
G36*
X41039900Y-50467600D02*
X38639900Y-50467600D01*
X38639900Y-48287600D01*
X41039900Y-48287600D01*
X41039900Y-50467600D01*
X41039900Y-50467600D01*
G37*
G36*
X33106930Y-48356310D02*
X33156779Y-48371431D01*
X33202711Y-48395982D01*
X33242974Y-48429026D01*
X33276018Y-48469289D01*
X33300569Y-48515221D01*
X33315690Y-48565070D01*
X33321400Y-48623044D01*
X33321400Y-49878156D01*
X33315690Y-49936130D01*
X33300569Y-49985979D01*
X33276018Y-50031911D01*
X33242974Y-50072174D01*
X33202711Y-50105218D01*
X33156779Y-50129769D01*
X33106930Y-50144890D01*
X33048956Y-50150600D01*
X32043844Y-50150600D01*
X31985870Y-50144890D01*
X31936021Y-50129769D01*
X31890089Y-50105218D01*
X31849826Y-50072174D01*
X31816782Y-50031911D01*
X31792231Y-49985979D01*
X31777110Y-49936130D01*
X31771400Y-49878156D01*
X31771400Y-48623044D01*
X31777110Y-48565070D01*
X31792231Y-48515221D01*
X31816782Y-48469289D01*
X31849826Y-48429026D01*
X31890089Y-48395982D01*
X31936021Y-48371431D01*
X31985870Y-48356310D01*
X32043844Y-48350600D01*
X33048956Y-48350600D01*
X33106930Y-48356310D01*
X33106930Y-48356310D01*
G37*
G36*
X31056930Y-48356310D02*
X31106779Y-48371431D01*
X31152711Y-48395982D01*
X31192974Y-48429026D01*
X31226018Y-48469289D01*
X31250569Y-48515221D01*
X31265690Y-48565070D01*
X31271400Y-48623044D01*
X31271400Y-49878156D01*
X31265690Y-49936130D01*
X31250569Y-49985979D01*
X31226018Y-50031911D01*
X31192974Y-50072174D01*
X31152711Y-50105218D01*
X31106779Y-50129769D01*
X31056930Y-50144890D01*
X30998956Y-50150600D01*
X29993844Y-50150600D01*
X29935870Y-50144890D01*
X29886021Y-50129769D01*
X29840089Y-50105218D01*
X29799826Y-50072174D01*
X29766782Y-50031911D01*
X29742231Y-49985979D01*
X29727110Y-49936130D01*
X29721400Y-49878156D01*
X29721400Y-48623044D01*
X29727110Y-48565070D01*
X29742231Y-48515221D01*
X29766782Y-48469289D01*
X29799826Y-48429026D01*
X29840089Y-48395982D01*
X29886021Y-48371431D01*
X29935870Y-48356310D01*
X29993844Y-48350600D01*
X30998956Y-48350600D01*
X31056930Y-48356310D01*
X31056930Y-48356310D01*
G37*
G36*
X50565882Y-47291786D02*
X50610604Y-47305353D01*
X50651833Y-47327390D01*
X50687961Y-47357039D01*
X50717610Y-47393167D01*
X50739647Y-47434396D01*
X50753214Y-47479118D01*
X50758400Y-47531775D01*
X50758400Y-49191425D01*
X50753214Y-49244082D01*
X50739647Y-49288804D01*
X50717610Y-49330033D01*
X50687961Y-49366161D01*
X50651833Y-49395810D01*
X50610604Y-49417847D01*
X50565882Y-49431414D01*
X50513225Y-49436600D01*
X49178575Y-49436600D01*
X49125918Y-49431414D01*
X49081196Y-49417847D01*
X49039967Y-49395810D01*
X49003839Y-49366161D01*
X48974190Y-49330033D01*
X48952153Y-49288804D01*
X48938586Y-49244082D01*
X48933400Y-49191425D01*
X48933400Y-47531775D01*
X48938586Y-47479118D01*
X48952153Y-47434396D01*
X48974190Y-47393167D01*
X49003839Y-47357039D01*
X49039967Y-47327390D01*
X49081196Y-47305353D01*
X49125918Y-47291786D01*
X49178575Y-47286600D01*
X50513225Y-47286600D01*
X50565882Y-47291786D01*
X50565882Y-47291786D01*
G37*
G36*
X53540882Y-47291786D02*
X53585604Y-47305353D01*
X53626833Y-47327390D01*
X53662961Y-47357039D01*
X53692610Y-47393167D01*
X53714647Y-47434396D01*
X53728214Y-47479118D01*
X53733400Y-47531775D01*
X53733400Y-49191425D01*
X53728214Y-49244082D01*
X53714647Y-49288804D01*
X53692610Y-49330033D01*
X53662961Y-49366161D01*
X53626833Y-49395810D01*
X53585604Y-49417847D01*
X53540882Y-49431414D01*
X53488225Y-49436600D01*
X52153575Y-49436600D01*
X52100918Y-49431414D01*
X52056196Y-49417847D01*
X52014967Y-49395810D01*
X51978839Y-49366161D01*
X51949190Y-49330033D01*
X51927153Y-49288804D01*
X51913586Y-49244082D01*
X51908400Y-49191425D01*
X51908400Y-47531775D01*
X51913586Y-47479118D01*
X51927153Y-47434396D01*
X51949190Y-47393167D01*
X51978839Y-47357039D01*
X52014967Y-47327390D01*
X52056196Y-47305353D01*
X52100918Y-47291786D01*
X52153575Y-47286600D01*
X53488225Y-47286600D01*
X53540882Y-47291786D01*
X53540882Y-47291786D01*
G37*
G36*
X66277527Y-46267542D02*
X66541413Y-46376847D01*
X66778904Y-46535533D01*
X66980867Y-46737496D01*
X67139553Y-46974987D01*
X67248858Y-47238873D01*
X67304580Y-47519006D01*
X67304580Y-47804634D01*
X67248858Y-48084767D01*
X67139553Y-48348653D01*
X66980867Y-48586144D01*
X66778904Y-48788107D01*
X66541413Y-48946793D01*
X66277527Y-49056098D01*
X65997394Y-49111820D01*
X65711766Y-49111820D01*
X65431633Y-49056098D01*
X65167747Y-48946793D01*
X64930256Y-48788107D01*
X64728293Y-48586144D01*
X64569607Y-48348653D01*
X64460302Y-48084767D01*
X64404580Y-47804634D01*
X64404580Y-47519006D01*
X64460302Y-47238873D01*
X64569607Y-46974987D01*
X64728293Y-46737496D01*
X64930256Y-46535533D01*
X65167747Y-46376847D01*
X65431633Y-46267542D01*
X65711766Y-46211820D01*
X65997394Y-46211820D01*
X66277527Y-46267542D01*
X66277527Y-46267542D01*
G37*
G36*
X33094230Y-45587710D02*
X33144079Y-45602831D01*
X33190011Y-45627382D01*
X33230274Y-45660426D01*
X33263318Y-45700689D01*
X33287869Y-45746621D01*
X33302990Y-45796470D01*
X33308700Y-45854444D01*
X33308700Y-47109556D01*
X33302990Y-47167530D01*
X33287869Y-47217379D01*
X33263318Y-47263311D01*
X33230274Y-47303574D01*
X33190011Y-47336618D01*
X33144079Y-47361169D01*
X33094230Y-47376290D01*
X33036256Y-47382000D01*
X32031144Y-47382000D01*
X31973170Y-47376290D01*
X31923321Y-47361169D01*
X31877389Y-47336618D01*
X31837126Y-47303574D01*
X31804082Y-47263311D01*
X31779531Y-47217379D01*
X31764410Y-47167530D01*
X31758700Y-47109556D01*
X31758700Y-45854444D01*
X31764410Y-45796470D01*
X31779531Y-45746621D01*
X31804082Y-45700689D01*
X31837126Y-45660426D01*
X31877389Y-45627382D01*
X31923321Y-45602831D01*
X31973170Y-45587710D01*
X32031144Y-45582000D01*
X33036256Y-45582000D01*
X33094230Y-45587710D01*
X33094230Y-45587710D01*
G37*
G36*
X31044230Y-45587710D02*
X31094079Y-45602831D01*
X31140011Y-45627382D01*
X31180274Y-45660426D01*
X31213318Y-45700689D01*
X31237869Y-45746621D01*
X31252990Y-45796470D01*
X31258700Y-45854444D01*
X31258700Y-47109556D01*
X31252990Y-47167530D01*
X31237869Y-47217379D01*
X31213318Y-47263311D01*
X31180274Y-47303574D01*
X31140011Y-47336618D01*
X31094079Y-47361169D01*
X31044230Y-47376290D01*
X30986256Y-47382000D01*
X29981144Y-47382000D01*
X29923170Y-47376290D01*
X29873321Y-47361169D01*
X29827389Y-47336618D01*
X29787126Y-47303574D01*
X29754082Y-47263311D01*
X29729531Y-47217379D01*
X29714410Y-47167530D01*
X29708700Y-47109556D01*
X29708700Y-45854444D01*
X29714410Y-45796470D01*
X29729531Y-45746621D01*
X29754082Y-45700689D01*
X29787126Y-45660426D01*
X29827389Y-45627382D01*
X29873321Y-45602831D01*
X29923170Y-45587710D01*
X29981144Y-45582000D01*
X30986256Y-45582000D01*
X31044230Y-45587710D01*
X31044230Y-45587710D01*
G37*
G36*
X37835570Y-45424530D02*
X37885419Y-45439651D01*
X37931351Y-45464202D01*
X37971614Y-45497246D01*
X38004658Y-45537509D01*
X38029209Y-45583441D01*
X38044330Y-45633290D01*
X38050040Y-45691264D01*
X38050040Y-46696376D01*
X38044330Y-46754350D01*
X38029209Y-46804199D01*
X38004658Y-46850131D01*
X37971614Y-46890394D01*
X37931351Y-46923438D01*
X37885419Y-46947989D01*
X37835570Y-46963110D01*
X37777596Y-46968820D01*
X36522484Y-46968820D01*
X36464510Y-46963110D01*
X36414661Y-46947989D01*
X36368729Y-46923438D01*
X36328466Y-46890394D01*
X36295422Y-46850131D01*
X36270871Y-46804199D01*
X36255750Y-46754350D01*
X36250040Y-46696376D01*
X36250040Y-45691264D01*
X36255750Y-45633290D01*
X36270871Y-45583441D01*
X36295422Y-45537509D01*
X36328466Y-45497246D01*
X36368729Y-45464202D01*
X36414661Y-45439651D01*
X36464510Y-45424530D01*
X36522484Y-45418820D01*
X37777596Y-45418820D01*
X37835570Y-45424530D01*
X37835570Y-45424530D01*
G37*
G36*
X50603982Y-43418286D02*
X50648704Y-43431853D01*
X50689933Y-43453890D01*
X50726061Y-43483539D01*
X50755710Y-43519667D01*
X50777747Y-43560896D01*
X50791314Y-43605618D01*
X50796500Y-43658275D01*
X50796500Y-45317925D01*
X50791314Y-45370582D01*
X50777747Y-45415304D01*
X50755710Y-45456533D01*
X50726061Y-45492661D01*
X50689933Y-45522310D01*
X50648704Y-45544347D01*
X50603982Y-45557914D01*
X50551325Y-45563100D01*
X49216675Y-45563100D01*
X49164018Y-45557914D01*
X49119296Y-45544347D01*
X49078067Y-45522310D01*
X49041939Y-45492661D01*
X49012290Y-45456533D01*
X48990253Y-45415304D01*
X48976686Y-45370582D01*
X48971500Y-45317925D01*
X48971500Y-43658275D01*
X48976686Y-43605618D01*
X48990253Y-43560896D01*
X49012290Y-43519667D01*
X49041939Y-43483539D01*
X49078067Y-43453890D01*
X49119296Y-43431853D01*
X49164018Y-43418286D01*
X49216675Y-43413100D01*
X50551325Y-43413100D01*
X50603982Y-43418286D01*
X50603982Y-43418286D01*
G37*
G36*
X58849482Y-43418286D02*
X58894204Y-43431853D01*
X58935433Y-43453890D01*
X58971561Y-43483539D01*
X59001210Y-43519667D01*
X59023247Y-43560896D01*
X59036814Y-43605618D01*
X59042000Y-43658275D01*
X59042000Y-45317925D01*
X59036814Y-45370582D01*
X59023247Y-45415304D01*
X59001210Y-45456533D01*
X58971561Y-45492661D01*
X58935433Y-45522310D01*
X58894204Y-45544347D01*
X58849482Y-45557914D01*
X58796825Y-45563100D01*
X57462175Y-45563100D01*
X57409518Y-45557914D01*
X57364796Y-45544347D01*
X57323567Y-45522310D01*
X57287439Y-45492661D01*
X57257790Y-45456533D01*
X57235753Y-45415304D01*
X57222186Y-45370582D01*
X57217000Y-45317925D01*
X57217000Y-43658275D01*
X57222186Y-43605618D01*
X57235753Y-43560896D01*
X57257790Y-43519667D01*
X57287439Y-43483539D01*
X57323567Y-43453890D01*
X57364796Y-43431853D01*
X57409518Y-43418286D01*
X57462175Y-43413100D01*
X58796825Y-43413100D01*
X58849482Y-43418286D01*
X58849482Y-43418286D01*
G37*
G36*
X55874482Y-43418286D02*
X55919204Y-43431853D01*
X55960433Y-43453890D01*
X55996561Y-43483539D01*
X56026210Y-43519667D01*
X56048247Y-43560896D01*
X56061814Y-43605618D01*
X56067000Y-43658275D01*
X56067000Y-45317925D01*
X56061814Y-45370582D01*
X56048247Y-45415304D01*
X56026210Y-45456533D01*
X55996561Y-45492661D01*
X55960433Y-45522310D01*
X55919204Y-45544347D01*
X55874482Y-45557914D01*
X55821825Y-45563100D01*
X54487175Y-45563100D01*
X54434518Y-45557914D01*
X54389796Y-45544347D01*
X54348567Y-45522310D01*
X54312439Y-45492661D01*
X54282790Y-45456533D01*
X54260753Y-45415304D01*
X54247186Y-45370582D01*
X54242000Y-45317925D01*
X54242000Y-43658275D01*
X54247186Y-43605618D01*
X54260753Y-43560896D01*
X54282790Y-43519667D01*
X54312439Y-43483539D01*
X54348567Y-43453890D01*
X54389796Y-43431853D01*
X54434518Y-43418286D01*
X54487175Y-43413100D01*
X55821825Y-43413100D01*
X55874482Y-43418286D01*
X55874482Y-43418286D01*
G37*
G36*
X53578982Y-43418286D02*
X53623704Y-43431853D01*
X53664933Y-43453890D01*
X53701061Y-43483539D01*
X53730710Y-43519667D01*
X53752747Y-43560896D01*
X53766314Y-43605618D01*
X53771500Y-43658275D01*
X53771500Y-45317925D01*
X53766314Y-45370582D01*
X53752747Y-45415304D01*
X53730710Y-45456533D01*
X53701061Y-45492661D01*
X53664933Y-45522310D01*
X53623704Y-45544347D01*
X53578982Y-45557914D01*
X53526325Y-45563100D01*
X52191675Y-45563100D01*
X52139018Y-45557914D01*
X52094296Y-45544347D01*
X52053067Y-45522310D01*
X52016939Y-45492661D01*
X51987290Y-45456533D01*
X51965253Y-45415304D01*
X51951686Y-45370582D01*
X51946500Y-45317925D01*
X51946500Y-43658275D01*
X51951686Y-43605618D01*
X51965253Y-43560896D01*
X51987290Y-43519667D01*
X52016939Y-43483539D01*
X52053067Y-43453890D01*
X52094296Y-43431853D01*
X52139018Y-43418286D01*
X52191675Y-43413100D01*
X53526325Y-43413100D01*
X53578982Y-43418286D01*
X53578982Y-43418286D01*
G37*
G36*
X40976400Y-45095500D02*
X38576400Y-45095500D01*
X38576400Y-42915500D01*
X40976400Y-42915500D01*
X40976400Y-45095500D01*
X40976400Y-45095500D01*
G37*
G36*
X48596400Y-45095500D02*
X46196400Y-45095500D01*
X46196400Y-42915500D01*
X48596400Y-42915500D01*
X48596400Y-45095500D01*
X48596400Y-45095500D01*
G37*
G36*
X37835570Y-43374530D02*
X37885419Y-43389651D01*
X37931351Y-43414202D01*
X37971614Y-43447246D01*
X38004658Y-43487509D01*
X38029209Y-43533441D01*
X38044330Y-43583290D01*
X38050040Y-43641264D01*
X38050040Y-44646376D01*
X38044330Y-44704350D01*
X38029209Y-44754199D01*
X38004658Y-44800131D01*
X37971614Y-44840394D01*
X37931351Y-44873438D01*
X37885419Y-44897989D01*
X37835570Y-44913110D01*
X37777596Y-44918820D01*
X36522484Y-44918820D01*
X36464510Y-44913110D01*
X36414661Y-44897989D01*
X36368729Y-44873438D01*
X36328466Y-44840394D01*
X36295422Y-44800131D01*
X36270871Y-44754199D01*
X36255750Y-44704350D01*
X36250040Y-44646376D01*
X36250040Y-43641264D01*
X36255750Y-43583290D01*
X36270871Y-43533441D01*
X36295422Y-43487509D01*
X36328466Y-43447246D01*
X36368729Y-43414202D01*
X36414661Y-43389651D01*
X36464510Y-43374530D01*
X36522484Y-43368820D01*
X37777596Y-43368820D01*
X37835570Y-43374530D01*
X37835570Y-43374530D01*
G37*
G36*
X32304700Y-44407800D02*
X30204700Y-44407800D01*
X30204700Y-42307800D01*
X32304700Y-42307800D01*
X32304700Y-44407800D01*
X32304700Y-44407800D01*
G37*
G36*
X66277527Y-41267542D02*
X66541413Y-41376847D01*
X66778904Y-41535533D01*
X66980867Y-41737496D01*
X67139553Y-41974987D01*
X67248858Y-42238873D01*
X67304580Y-42519006D01*
X67304580Y-42804634D01*
X67248858Y-43084767D01*
X67139553Y-43348653D01*
X66980867Y-43586144D01*
X66778904Y-43788107D01*
X66541413Y-43946793D01*
X66277527Y-44056098D01*
X65997394Y-44111820D01*
X65711766Y-44111820D01*
X65431633Y-44056098D01*
X65167747Y-43946793D01*
X64930256Y-43788107D01*
X64728293Y-43586144D01*
X64569607Y-43348653D01*
X64460302Y-43084767D01*
X64404580Y-42804634D01*
X64404580Y-42519006D01*
X64460302Y-42238873D01*
X64569607Y-41974987D01*
X64728293Y-41737496D01*
X64930256Y-41535533D01*
X65167747Y-41376847D01*
X65431633Y-41267542D01*
X65711766Y-41211820D01*
X65997394Y-41211820D01*
X66277527Y-41267542D01*
X66277527Y-41267542D01*
G37*
G36*
X40976400Y-42555500D02*
X38576400Y-42555500D01*
X38576400Y-40375500D01*
X40976400Y-40375500D01*
X40976400Y-42555500D01*
X40976400Y-42555500D01*
G37*
G36*
X48596400Y-42555500D02*
X46196400Y-42555500D01*
X46196400Y-40375500D01*
X48596400Y-40375500D01*
X48596400Y-42555500D01*
X48596400Y-42555500D01*
G37*
G36*
X55349009Y-39695436D02*
X55407381Y-39713143D01*
X55566257Y-39761337D01*
X55766475Y-39868356D01*
X55941961Y-40012373D01*
X56037978Y-40129371D01*
X56085985Y-40187868D01*
X56085986Y-40187870D01*
X56193003Y-40388084D01*
X56200876Y-40414038D01*
X56258904Y-40605331D01*
X56258904Y-40605333D01*
X56275580Y-40774645D01*
X56275580Y-40982876D01*
X56258904Y-41152188D01*
X56193003Y-41369437D01*
X56085984Y-41569655D01*
X55941967Y-41745141D01*
X55824969Y-41841158D01*
X55766472Y-41889165D01*
X55766470Y-41889166D01*
X55566256Y-41996183D01*
X55457632Y-42029133D01*
X55349008Y-42062084D01*
X55123080Y-42084336D01*
X54897151Y-42062084D01*
X54788527Y-42029133D01*
X54679903Y-41996183D01*
X54479685Y-41889164D01*
X54304199Y-41745147D01*
X54208182Y-41628149D01*
X54160175Y-41569652D01*
X54071617Y-41403972D01*
X54053157Y-41369436D01*
X54005345Y-41211820D01*
X53987256Y-41152188D01*
X53974595Y-41023636D01*
X53970580Y-40982875D01*
X53970580Y-40774644D01*
X53987256Y-40605332D01*
X54053157Y-40388083D01*
X54136784Y-40231629D01*
X54160175Y-40187867D01*
X54186001Y-40156398D01*
X54304197Y-40012376D01*
X54479686Y-39868356D01*
X54679904Y-39761337D01*
X54838780Y-39713143D01*
X54897152Y-39695436D01*
X55123080Y-39673184D01*
X55349009Y-39695436D01*
X55349009Y-39695436D01*
G37*
G36*
X31383407Y-39775396D02*
X31460536Y-39782993D01*
X31592487Y-39823020D01*
X31658463Y-39843033D01*
X31840872Y-39940533D01*
X32000754Y-40071746D01*
X32131967Y-40231628D01*
X32229467Y-40414037D01*
X32229467Y-40414038D01*
X32289507Y-40611964D01*
X32309780Y-40817800D01*
X32289507Y-41023636D01*
X32250512Y-41152187D01*
X32229467Y-41221563D01*
X32131967Y-41403972D01*
X32000754Y-41563854D01*
X31840872Y-41695067D01*
X31658463Y-41792567D01*
X31592487Y-41812580D01*
X31460536Y-41852607D01*
X31383407Y-41860204D01*
X31306280Y-41867800D01*
X31203120Y-41867800D01*
X31125993Y-41860204D01*
X31048864Y-41852607D01*
X30916913Y-41812580D01*
X30850937Y-41792567D01*
X30668528Y-41695067D01*
X30508646Y-41563854D01*
X30377433Y-41403972D01*
X30279933Y-41221563D01*
X30258888Y-41152187D01*
X30219893Y-41023636D01*
X30199620Y-40817800D01*
X30219893Y-40611964D01*
X30279933Y-40414038D01*
X30279933Y-40414037D01*
X30377433Y-40231628D01*
X30508646Y-40071746D01*
X30668528Y-39940533D01*
X30850937Y-39843033D01*
X30916913Y-39823020D01*
X31048864Y-39782993D01*
X31125993Y-39775396D01*
X31203120Y-39767800D01*
X31306280Y-39767800D01*
X31383407Y-39775396D01*
X31383407Y-39775396D01*
G37*
G36*
X51983509Y-37663436D02*
X52076446Y-37691628D01*
X52200757Y-37729337D01*
X52400975Y-37836356D01*
X52576461Y-37980373D01*
X52672478Y-38097371D01*
X52720485Y-38155868D01*
X52720486Y-38155870D01*
X52827503Y-38356084D01*
X52827503Y-38356085D01*
X52893404Y-38573332D01*
X52894666Y-38586144D01*
X52910080Y-38742645D01*
X52910080Y-38950876D01*
X52893404Y-39120188D01*
X52827503Y-39337437D01*
X52720484Y-39537655D01*
X52576467Y-39713141D01*
X52491351Y-39782993D01*
X52400972Y-39857165D01*
X52400970Y-39857166D01*
X52200756Y-39964183D01*
X52092131Y-39997134D01*
X51983508Y-40030084D01*
X51757580Y-40052336D01*
X51531651Y-40030084D01*
X51423028Y-39997134D01*
X51314403Y-39964183D01*
X51114185Y-39857164D01*
X50938699Y-39713147D01*
X50842682Y-39596149D01*
X50794675Y-39537652D01*
X50687658Y-39337437D01*
X50687657Y-39337436D01*
X50654707Y-39228812D01*
X50621756Y-39120188D01*
X50605080Y-38950873D01*
X50605080Y-38742646D01*
X50621756Y-38573331D01*
X50654707Y-38464707D01*
X50687657Y-38356083D01*
X50744860Y-38249065D01*
X50794675Y-38155867D01*
X50853024Y-38084769D01*
X50938697Y-37980376D01*
X51114186Y-37836356D01*
X51314404Y-37729337D01*
X51438715Y-37691628D01*
X51531652Y-37663436D01*
X51757580Y-37641184D01*
X51983509Y-37663436D01*
X51983509Y-37663436D01*
G37*
G36*
X60017000Y-40034060D02*
X57712000Y-40034060D01*
X57712000Y-37634060D01*
X60017000Y-37634060D01*
X60017000Y-40034060D01*
X60017000Y-40034060D01*
G37*
G36*
X48596400Y-40015500D02*
X46196400Y-40015500D01*
X46196400Y-37835500D01*
X48596400Y-37835500D01*
X48596400Y-40015500D01*
X48596400Y-40015500D01*
G37*
G36*
X40976400Y-40015500D02*
X38576400Y-40015500D01*
X38576400Y-37835500D01*
X40976400Y-37835500D01*
X40976400Y-40015500D01*
X40976400Y-40015500D01*
G37*
G36*
X31383407Y-37235396D02*
X31460536Y-37242993D01*
X31592487Y-37283020D01*
X31658463Y-37303033D01*
X31840872Y-37400533D01*
X32000754Y-37531746D01*
X32131967Y-37691628D01*
X32229467Y-37874037D01*
X32229467Y-37874038D01*
X32289507Y-38071964D01*
X32309780Y-38277800D01*
X32289507Y-38483636D01*
X32258412Y-38586144D01*
X32229467Y-38681563D01*
X32131967Y-38863972D01*
X32000754Y-39023854D01*
X31840872Y-39155067D01*
X31658463Y-39252567D01*
X31592487Y-39272580D01*
X31460536Y-39312607D01*
X31383407Y-39320203D01*
X31306280Y-39327800D01*
X31203120Y-39327800D01*
X31125993Y-39320203D01*
X31048864Y-39312607D01*
X30916913Y-39272580D01*
X30850937Y-39252567D01*
X30668528Y-39155067D01*
X30508646Y-39023854D01*
X30377433Y-38863972D01*
X30279933Y-38681563D01*
X30250988Y-38586144D01*
X30219893Y-38483636D01*
X30199620Y-38277800D01*
X30219893Y-38071964D01*
X30279933Y-37874038D01*
X30279933Y-37874037D01*
X30377433Y-37691628D01*
X30508646Y-37531746D01*
X30668528Y-37400533D01*
X30850937Y-37303033D01*
X30916913Y-37283020D01*
X31048864Y-37242993D01*
X31125993Y-37235396D01*
X31203120Y-37227800D01*
X31306280Y-37227800D01*
X31383407Y-37235396D01*
X31383407Y-37235396D01*
G37*
G36*
X66277527Y-36267542D02*
X66541413Y-36376847D01*
X66778904Y-36535533D01*
X66980867Y-36737496D01*
X67139553Y-36974987D01*
X67248858Y-37238873D01*
X67304580Y-37519006D01*
X67304580Y-37804634D01*
X67248858Y-38084767D01*
X67139553Y-38348653D01*
X66980867Y-38586144D01*
X66778904Y-38788107D01*
X66541413Y-38946793D01*
X66277527Y-39056098D01*
X65997394Y-39111820D01*
X65711766Y-39111820D01*
X65431633Y-39056098D01*
X65167747Y-38946793D01*
X64930256Y-38788107D01*
X64728293Y-38586144D01*
X64569607Y-38348653D01*
X64460302Y-38084767D01*
X64404580Y-37804634D01*
X64404580Y-37519006D01*
X64460302Y-37238873D01*
X64569607Y-36974987D01*
X64728293Y-36737496D01*
X64930256Y-36535533D01*
X65167747Y-36376847D01*
X65431633Y-36267542D01*
X65711766Y-36211820D01*
X65997394Y-36211820D01*
X66277527Y-36267542D01*
X66277527Y-36267542D01*
G37*
G36*
X31383407Y-34695396D02*
X31460536Y-34702993D01*
X31575059Y-34737733D01*
X31658463Y-34763033D01*
X31840872Y-34860533D01*
X32000754Y-34991746D01*
X32131967Y-35151628D01*
X32229467Y-35334037D01*
X32229467Y-35334038D01*
X32289507Y-35531964D01*
X32309780Y-35737800D01*
X32289507Y-35943636D01*
X32249480Y-36075587D01*
X32229467Y-36141563D01*
X32131967Y-36323972D01*
X32000754Y-36483854D01*
X31840872Y-36615067D01*
X31658463Y-36712567D01*
X31592487Y-36732580D01*
X31460536Y-36772607D01*
X31383407Y-36780203D01*
X31306280Y-36787800D01*
X31203120Y-36787800D01*
X31125993Y-36780203D01*
X31048864Y-36772607D01*
X30916913Y-36732580D01*
X30850937Y-36712567D01*
X30668528Y-36615067D01*
X30508646Y-36483854D01*
X30377433Y-36323972D01*
X30279933Y-36141563D01*
X30259920Y-36075587D01*
X30219893Y-35943636D01*
X30199620Y-35737800D01*
X30219893Y-35531964D01*
X30279933Y-35334038D01*
X30279933Y-35334037D01*
X30377433Y-35151628D01*
X30508646Y-34991746D01*
X30668528Y-34860533D01*
X30850937Y-34763033D01*
X30934341Y-34737733D01*
X31048864Y-34702993D01*
X31125993Y-34695396D01*
X31203120Y-34687800D01*
X31306280Y-34687800D01*
X31383407Y-34695396D01*
X31383407Y-34695396D01*
G37*
G36*
X37805090Y-34924170D02*
X37854939Y-34939291D01*
X37900871Y-34963842D01*
X37941134Y-34996886D01*
X37974178Y-35037149D01*
X37998729Y-35083081D01*
X38013850Y-35132930D01*
X38019560Y-35190904D01*
X38019560Y-36196016D01*
X38013850Y-36253990D01*
X37998729Y-36303839D01*
X37974178Y-36349771D01*
X37941134Y-36390034D01*
X37900871Y-36423078D01*
X37854939Y-36447629D01*
X37805090Y-36462750D01*
X37747116Y-36468460D01*
X36492004Y-36468460D01*
X36434030Y-36462750D01*
X36384181Y-36447629D01*
X36338249Y-36423078D01*
X36297986Y-36390034D01*
X36264942Y-36349771D01*
X36240391Y-36303839D01*
X36225270Y-36253990D01*
X36219560Y-36196016D01*
X36219560Y-35190904D01*
X36225270Y-35132930D01*
X36240391Y-35083081D01*
X36264942Y-35037149D01*
X36297986Y-34996886D01*
X36338249Y-34963842D01*
X36384181Y-34939291D01*
X36434030Y-34924170D01*
X36492004Y-34918460D01*
X37747116Y-34918460D01*
X37805090Y-34924170D01*
X37805090Y-34924170D01*
G37*
G36*
X53591682Y-32699486D02*
X53636404Y-32713053D01*
X53677633Y-32735090D01*
X53713761Y-32764739D01*
X53743410Y-32800867D01*
X53765447Y-32842096D01*
X53779014Y-32886818D01*
X53784200Y-32939475D01*
X53784200Y-34599125D01*
X53779014Y-34651782D01*
X53765447Y-34696504D01*
X53743410Y-34737733D01*
X53713761Y-34773861D01*
X53677633Y-34803510D01*
X53636404Y-34825547D01*
X53591682Y-34839114D01*
X53539025Y-34844300D01*
X52204375Y-34844300D01*
X52151718Y-34839114D01*
X52106996Y-34825547D01*
X52065767Y-34803510D01*
X52029639Y-34773861D01*
X51999990Y-34737733D01*
X51977953Y-34696504D01*
X51964386Y-34651782D01*
X51959200Y-34599125D01*
X51959200Y-32939475D01*
X51964386Y-32886818D01*
X51977953Y-32842096D01*
X51999990Y-32800867D01*
X52029639Y-32764739D01*
X52065767Y-32735090D01*
X52106996Y-32713053D01*
X52151718Y-32699486D01*
X52204375Y-32694300D01*
X53539025Y-32694300D01*
X53591682Y-32699486D01*
X53591682Y-32699486D01*
G37*
G36*
X55937982Y-32699486D02*
X55982704Y-32713053D01*
X56023933Y-32735090D01*
X56060061Y-32764739D01*
X56089710Y-32800867D01*
X56111747Y-32842096D01*
X56125314Y-32886818D01*
X56130500Y-32939475D01*
X56130500Y-34599125D01*
X56125314Y-34651782D01*
X56111747Y-34696504D01*
X56089710Y-34737733D01*
X56060061Y-34773861D01*
X56023933Y-34803510D01*
X55982704Y-34825547D01*
X55937982Y-34839114D01*
X55885325Y-34844300D01*
X54550675Y-34844300D01*
X54498018Y-34839114D01*
X54453296Y-34825547D01*
X54412067Y-34803510D01*
X54375939Y-34773861D01*
X54346290Y-34737733D01*
X54324253Y-34696504D01*
X54310686Y-34651782D01*
X54305500Y-34599125D01*
X54305500Y-32939475D01*
X54310686Y-32886818D01*
X54324253Y-32842096D01*
X54346290Y-32800867D01*
X54375939Y-32764739D01*
X54412067Y-32735090D01*
X54453296Y-32713053D01*
X54498018Y-32699486D01*
X54550675Y-32694300D01*
X55885325Y-32694300D01*
X55937982Y-32699486D01*
X55937982Y-32699486D01*
G37*
G36*
X50616682Y-32699486D02*
X50661404Y-32713053D01*
X50702633Y-32735090D01*
X50738761Y-32764739D01*
X50768410Y-32800867D01*
X50790447Y-32842096D01*
X50804014Y-32886818D01*
X50809200Y-32939475D01*
X50809200Y-34599125D01*
X50804014Y-34651782D01*
X50790447Y-34696504D01*
X50768410Y-34737733D01*
X50738761Y-34773861D01*
X50702633Y-34803510D01*
X50661404Y-34825547D01*
X50616682Y-34839114D01*
X50564025Y-34844300D01*
X49229375Y-34844300D01*
X49176718Y-34839114D01*
X49131996Y-34825547D01*
X49090767Y-34803510D01*
X49054639Y-34773861D01*
X49024990Y-34737733D01*
X49002953Y-34696504D01*
X48989386Y-34651782D01*
X48984200Y-34599125D01*
X48984200Y-32939475D01*
X48989386Y-32886818D01*
X49002953Y-32842096D01*
X49024990Y-32800867D01*
X49054639Y-32764739D01*
X49090767Y-32735090D01*
X49131996Y-32713053D01*
X49176718Y-32699486D01*
X49229375Y-32694300D01*
X50564025Y-32694300D01*
X50616682Y-32699486D01*
X50616682Y-32699486D01*
G37*
G36*
X58912982Y-32699486D02*
X58957704Y-32713053D01*
X58998933Y-32735090D01*
X59035061Y-32764739D01*
X59064710Y-32800867D01*
X59086747Y-32842096D01*
X59100314Y-32886818D01*
X59105500Y-32939475D01*
X59105500Y-34599125D01*
X59100314Y-34651782D01*
X59086747Y-34696504D01*
X59064710Y-34737733D01*
X59035061Y-34773861D01*
X58998933Y-34803510D01*
X58957704Y-34825547D01*
X58912982Y-34839114D01*
X58860325Y-34844300D01*
X57525675Y-34844300D01*
X57473018Y-34839114D01*
X57428296Y-34825547D01*
X57387067Y-34803510D01*
X57350939Y-34773861D01*
X57321290Y-34737733D01*
X57299253Y-34696504D01*
X57285686Y-34651782D01*
X57280500Y-34599125D01*
X57280500Y-32939475D01*
X57285686Y-32886818D01*
X57299253Y-32842096D01*
X57321290Y-32800867D01*
X57350939Y-32764739D01*
X57387067Y-32735090D01*
X57428296Y-32713053D01*
X57473018Y-32699486D01*
X57525675Y-32694300D01*
X58860325Y-32694300D01*
X58912982Y-32699486D01*
X58912982Y-32699486D01*
G37*
G36*
X48672600Y-34491000D02*
X46272600Y-34491000D01*
X46272600Y-32311000D01*
X48672600Y-32311000D01*
X48672600Y-34491000D01*
X48672600Y-34491000D01*
G37*
G36*
X41052600Y-34491000D02*
X38652600Y-34491000D01*
X38652600Y-32311000D01*
X41052600Y-32311000D01*
X41052600Y-34491000D01*
X41052600Y-34491000D01*
G37*
G36*
X37805090Y-32874170D02*
X37854939Y-32889291D01*
X37900871Y-32913842D01*
X37941134Y-32946886D01*
X37974178Y-32987149D01*
X37998729Y-33033081D01*
X38013850Y-33082930D01*
X38019560Y-33140904D01*
X38019560Y-34146016D01*
X38013850Y-34203990D01*
X37998729Y-34253839D01*
X37974178Y-34299771D01*
X37941134Y-34340034D01*
X37900871Y-34373078D01*
X37854939Y-34397629D01*
X37805090Y-34412750D01*
X37747116Y-34418460D01*
X36492004Y-34418460D01*
X36434030Y-34412750D01*
X36384181Y-34397629D01*
X36338249Y-34373078D01*
X36297986Y-34340034D01*
X36264942Y-34299771D01*
X36240391Y-34253839D01*
X36225270Y-34203990D01*
X36219560Y-34146016D01*
X36219560Y-33140904D01*
X36225270Y-33082930D01*
X36240391Y-33033081D01*
X36264942Y-32987149D01*
X36297986Y-32946886D01*
X36338249Y-32913842D01*
X36384181Y-32889291D01*
X36434030Y-32874170D01*
X36492004Y-32868460D01*
X37747116Y-32868460D01*
X37805090Y-32874170D01*
X37805090Y-32874170D01*
G37*
G36*
X31383407Y-32155396D02*
X31460536Y-32162993D01*
X31592487Y-32203020D01*
X31658463Y-32223033D01*
X31840872Y-32320533D01*
X32000754Y-32451746D01*
X32131967Y-32611628D01*
X32229467Y-32794037D01*
X32242377Y-32836596D01*
X32289507Y-32991964D01*
X32309780Y-33197800D01*
X32289507Y-33403636D01*
X32249480Y-33535587D01*
X32229467Y-33601563D01*
X32131967Y-33783972D01*
X32000754Y-33943854D01*
X31840872Y-34075067D01*
X31658463Y-34172567D01*
X31592487Y-34192580D01*
X31460536Y-34232607D01*
X31383407Y-34240203D01*
X31306280Y-34247800D01*
X31203120Y-34247800D01*
X31125993Y-34240203D01*
X31048864Y-34232607D01*
X30916913Y-34192580D01*
X30850937Y-34172567D01*
X30668528Y-34075067D01*
X30508646Y-33943854D01*
X30377433Y-33783972D01*
X30279933Y-33601563D01*
X30259920Y-33535587D01*
X30219893Y-33403636D01*
X30199620Y-33197800D01*
X30219893Y-32991964D01*
X30267023Y-32836596D01*
X30279933Y-32794037D01*
X30377433Y-32611628D01*
X30508646Y-32451746D01*
X30668528Y-32320533D01*
X30850937Y-32223033D01*
X30916913Y-32203020D01*
X31048864Y-32162993D01*
X31125993Y-32155396D01*
X31203120Y-32147800D01*
X31306280Y-32147800D01*
X31383407Y-32155396D01*
X31383407Y-32155396D01*
G37*
G36*
X66277527Y-31267542D02*
X66541413Y-31376847D01*
X66778904Y-31535533D01*
X66980867Y-31737496D01*
X67139553Y-31974987D01*
X67248858Y-32238873D01*
X67304580Y-32519006D01*
X67304580Y-32804634D01*
X67248858Y-33084767D01*
X67139553Y-33348653D01*
X66980867Y-33586144D01*
X66778904Y-33788107D01*
X66541413Y-33946793D01*
X66277527Y-34056098D01*
X65997394Y-34111820D01*
X65711766Y-34111820D01*
X65431633Y-34056098D01*
X65167747Y-33946793D01*
X64930256Y-33788107D01*
X64728293Y-33586144D01*
X64569607Y-33348653D01*
X64460302Y-33084767D01*
X64404580Y-32804634D01*
X64404580Y-32519006D01*
X64460302Y-32238873D01*
X64569607Y-31974987D01*
X64728293Y-31737496D01*
X64930256Y-31535533D01*
X65167747Y-31376847D01*
X65431633Y-31267542D01*
X65711766Y-31211820D01*
X65997394Y-31211820D01*
X66277527Y-31267542D01*
X66277527Y-31267542D01*
G37*
G36*
X48672600Y-31951000D02*
X46272600Y-31951000D01*
X46272600Y-29771000D01*
X48672600Y-29771000D01*
X48672600Y-31951000D01*
X48672600Y-31951000D01*
G37*
G36*
X41052600Y-31951000D02*
X38652600Y-31951000D01*
X38652600Y-29771000D01*
X41052600Y-29771000D01*
X41052600Y-31951000D01*
X41052600Y-31951000D01*
G37*
G36*
X34167247Y-29424897D02*
X34244376Y-29432493D01*
X34376327Y-29472520D01*
X34442303Y-29492533D01*
X34624712Y-29590033D01*
X34784594Y-29721246D01*
X34915807Y-29881128D01*
X35013307Y-30063537D01*
X35013307Y-30063538D01*
X35073347Y-30261464D01*
X35093620Y-30467300D01*
X35073347Y-30673136D01*
X35033320Y-30805087D01*
X35013307Y-30871063D01*
X34915807Y-31053472D01*
X34784594Y-31213354D01*
X34624712Y-31344567D01*
X34442303Y-31442067D01*
X34376327Y-31462080D01*
X34244376Y-31502107D01*
X34167247Y-31509703D01*
X34090120Y-31517300D01*
X33986960Y-31517300D01*
X33909833Y-31509703D01*
X33832704Y-31502107D01*
X33700753Y-31462080D01*
X33634777Y-31442067D01*
X33452368Y-31344567D01*
X33292486Y-31213354D01*
X33161273Y-31053472D01*
X33063773Y-30871063D01*
X33043760Y-30805087D01*
X33003733Y-30673136D01*
X32983460Y-30467300D01*
X33003733Y-30261464D01*
X33063773Y-30063538D01*
X33063773Y-30063537D01*
X33161273Y-29881128D01*
X33292486Y-29721246D01*
X33452368Y-29590033D01*
X33634777Y-29492533D01*
X33700753Y-29472520D01*
X33832704Y-29432493D01*
X33909833Y-29424897D01*
X33986960Y-29417300D01*
X34090120Y-29417300D01*
X34167247Y-29424897D01*
X34167247Y-29424897D01*
G37*
G36*
X37628540Y-31517300D02*
X35528540Y-31517300D01*
X35528540Y-29417300D01*
X37628540Y-29417300D01*
X37628540Y-31517300D01*
X37628540Y-31517300D01*
G37*
G36*
X55331229Y-28941076D02*
X55439852Y-28974026D01*
X55548477Y-29006977D01*
X55748695Y-29113996D01*
X55924181Y-29258013D01*
X55970097Y-29313963D01*
X56068205Y-29433508D01*
X56068206Y-29433510D01*
X56175223Y-29633724D01*
X56175223Y-29633725D01*
X56241124Y-29850971D01*
X56241124Y-29850973D01*
X56257800Y-30020285D01*
X56257800Y-30228516D01*
X56241124Y-30397828D01*
X56175223Y-30615077D01*
X56068204Y-30815295D01*
X55924187Y-30990781D01*
X55807189Y-31086798D01*
X55748692Y-31134805D01*
X55748690Y-31134806D01*
X55548476Y-31241823D01*
X55439852Y-31274773D01*
X55331228Y-31307724D01*
X55105300Y-31329976D01*
X54879371Y-31307724D01*
X54770747Y-31274773D01*
X54662123Y-31241823D01*
X54461905Y-31134804D01*
X54286419Y-30990787D01*
X54188164Y-30871062D01*
X54142395Y-30815292D01*
X54035378Y-30615077D01*
X54035377Y-30615076D01*
X53990550Y-30467300D01*
X53969476Y-30397828D01*
X53963917Y-30341390D01*
X53952800Y-30228515D01*
X53952800Y-30020284D01*
X53969476Y-29850972D01*
X54035377Y-29633723D01*
X54110845Y-29492533D01*
X54142395Y-29433507D01*
X54187325Y-29378760D01*
X54286417Y-29258016D01*
X54461906Y-29113996D01*
X54662124Y-29006977D01*
X54770748Y-28974027D01*
X54879372Y-28941076D01*
X55105300Y-28918824D01*
X55331229Y-28941076D01*
X55331229Y-28941076D01*
G37*
G36*
X48672600Y-29411000D02*
X46272600Y-29411000D01*
X46272600Y-27231000D01*
X48672600Y-27231000D01*
X48672600Y-29411000D01*
X48672600Y-29411000D01*
G37*
G36*
X41052600Y-29411000D02*
X38652600Y-29411000D01*
X38652600Y-27231000D01*
X41052600Y-27231000D01*
X41052600Y-29411000D01*
X41052600Y-29411000D01*
G37*
G36*
X51932709Y-27013216D02*
X52041332Y-27046166D01*
X52149957Y-27079117D01*
X52350175Y-27186136D01*
X52525661Y-27330153D01*
X52621678Y-27447151D01*
X52669685Y-27505648D01*
X52669686Y-27505650D01*
X52776703Y-27705864D01*
X52776703Y-27705865D01*
X52842604Y-27923111D01*
X52842604Y-27923113D01*
X52859280Y-28092425D01*
X52859280Y-28300656D01*
X52842604Y-28469968D01*
X52776703Y-28687217D01*
X52669684Y-28887435D01*
X52525667Y-29062921D01*
X52408669Y-29158938D01*
X52350172Y-29206945D01*
X52350170Y-29206946D01*
X52149956Y-29313963D01*
X52041331Y-29346914D01*
X51932708Y-29379864D01*
X51706780Y-29402116D01*
X51480851Y-29379864D01*
X51372228Y-29346914D01*
X51263603Y-29313963D01*
X51063385Y-29206944D01*
X50887899Y-29062927D01*
X50769638Y-28918824D01*
X50743875Y-28887432D01*
X50636858Y-28687217D01*
X50636857Y-28687216D01*
X50603906Y-28578591D01*
X50570956Y-28469968D01*
X50554280Y-28300653D01*
X50554280Y-28092426D01*
X50570956Y-27923111D01*
X50603907Y-27814487D01*
X50636857Y-27705863D01*
X50694060Y-27598845D01*
X50743875Y-27505647D01*
X50769701Y-27474178D01*
X50887897Y-27330156D01*
X51063386Y-27186136D01*
X51263604Y-27079117D01*
X51372229Y-27046166D01*
X51480852Y-27013216D01*
X51706780Y-26990964D01*
X51932709Y-27013216D01*
X51932709Y-27013216D01*
G37*
G36*
X59989060Y-29378760D02*
X57684060Y-29378760D01*
X57684060Y-26978760D01*
X59989060Y-26978760D01*
X59989060Y-29378760D01*
X59989060Y-29378760D01*
G37*
M02*
