G04 #@! TF.GenerationSoftware,KiCad,Pcbnew,5.0.1*
G04 #@! TF.CreationDate,2019-01-05T16:55:32+01:00*
G04 #@! TF.ProjectId,sensor_board-ac-7 -without-regulator-2,73656E736F725F626F6172642D61632D,V1.2*
G04 #@! TF.SameCoordinates,Original*
G04 #@! TF.FileFunction,Profile,NP*
%FSLAX46Y46*%
G04 Gerber Fmt 4.6, Leading zero omitted, Abs format (unit mm)*
G04 Created by KiCad (PCBNEW 5.0.1) date Sat 05 Jan 2019 04:55:32 PM CET*
%MOMM*%
%LPD*%
G01*
G04 APERTURE LIST*
%ADD10C,0.150000*%
%ADD11C,0.200000*%
G04 APERTURE END LIST*
D10*
X44350607Y-34275076D02*
G75*
G02X42704016Y-34325516I-825167J35876D01*
G01*
X44348400Y-34259520D02*
X44348400Y-27858720D01*
X42697400Y-27830780D02*
X42697400Y-34305240D01*
X42699373Y-38250181D02*
G75*
G02X44350940Y-38252400I825734J-38095D01*
G01*
X71721980Y-71622920D02*
X74079100Y-69265800D01*
D11*
X28569920Y-69783960D02*
X30403800Y-71617840D01*
D10*
X74104500Y-30708600D02*
X69689980Y-26294080D01*
X33383220Y-26281380D02*
X28575000Y-31089600D01*
X45186600Y-65821560D02*
G75*
G02X43825160Y-67066160I-680720J-622300D01*
G01*
X42760900Y-48846740D02*
X42760900Y-63141860D01*
X44411900Y-63091060D02*
X44411900Y-48839120D01*
X42758360Y-63149480D02*
X42758360Y-66006980D01*
X45186600Y-65821560D02*
X44409360Y-65044320D01*
X42763206Y-48818805D02*
G75*
G02X44414773Y-48821024I825734J-38095D01*
G01*
X42758360Y-66006980D02*
X43822620Y-67071240D01*
X44409360Y-63108840D02*
X44409360Y-65044320D01*
X42699373Y-27823481D02*
G75*
G02X44350940Y-27825700I825734J-38095D01*
G01*
X42699940Y-38239700D02*
X42699940Y-44714160D01*
X44350940Y-44668440D02*
X44350940Y-38267640D01*
X44353147Y-44683996D02*
G75*
G02X42706556Y-44734436I-825167J35876D01*
G01*
X69528091Y-68377160D02*
G75*
G02X67881500Y-68427600I-825167J35876D01*
G01*
X69786500Y-52971700D02*
X70891400Y-52971700D01*
X70497700Y-54749700D02*
X70904100Y-54749700D01*
X70891400Y-52971700D02*
G75*
G02X70891400Y-54749700I0J-889000D01*
G01*
X70497700Y-54749700D02*
X69532500Y-55714900D01*
X69532500Y-68364100D02*
X69532500Y-55714900D01*
X67881500Y-54876700D02*
X67881500Y-68414900D01*
X69786500Y-52971700D02*
X67881500Y-54876700D01*
X69687440Y-26289000D02*
X33380680Y-26289000D01*
X30398720Y-71630540D02*
X71727060Y-71630540D01*
X74079100Y-69265800D02*
X74079100Y-30708600D01*
X28562300Y-31089600D02*
X28562300Y-69763640D01*
M02*
